SplineFontDB: 3.2
FontName: EdenScript
FullName: Eden Script Regular
FamilyName: Eden Script
Weight: Book
Version: 1.0
ItalicAngle: 0
UnderlinePosition: 77
UnderlineWidth: 51
Ascent: 768
Descent: 256
InvalidEm: 0
sfntRevision: 0x00010000
LayerCount: 2
Layer: 0 1 "+BBcEMAQ0BD0EVgQ5 +BD8EOwQwBD0A" 1
Layer: 1 1 "+BB8ENQRABDUENAQ9BFYEOQAA +BD8EOwQwBD0A" 0
XUID: [1021 565 -382671656 30480]
StyleMap: 0x0040
FSType: 4
OS2Version: 2
OS2_WeightWidthSlopeOnly: 0
OS2_UseTypoMetrics: 0
CreationTime: 1805081
ModificationTime: 443153
PfmFamily: 81
TTFWeight: 400
TTFWidth: 5
LineGap: 0
VLineGap: 0
Panose: 0 0 4 0 0 0 0 0 0 0
OS2TypoAscent: 768
OS2TypoAOffset: 0
OS2TypoDescent: -256
OS2TypoDOffset: 0
OS2TypoLinegap: 0
OS2WinAscent: 768
OS2WinAOffset: 0
OS2WinDescent: 256
OS2WinDOffset: 0
HheadAscent: 768
HheadAOffset: 0
HheadDescent: -256
HheadDOffset: 0
OS2SubXSize: 512
OS2SubYSize: 512
OS2SubXOff: 0
OS2SubYOff: -128
OS2SupXSize: 512
OS2SupYSize: 512
OS2SupXOff: 0
OS2SupYOff: 512
OS2StrikeYSize: 51
OS2StrikeYPos: 204
OS2CapHeight: 768
OS2XHeight: 384
OS2Vendor: 'YAL.'
OS2CodePages: 200101ff.cdff0000
OS2UnicodeRanges: 00000201.00000000.00000000.00000000
DEI: 91125
ShortTable: maxp 16
  1
  0
  164
  340
  85
  0
  0
  2
  0
  0
  0
  0
  0
  0
  0
  0
EndShort
LangName: 1033 "" "" "Regular" "Eden Script" "" "Version 1.0" "" "" "" "grumpiestjohn" "01110111011011110111011001100101011011100010000001110010011001010110000101101100011010010111010001111001" "" "" "" "" "" "" "" "" "Intriguing, even."
Encoding: UnicodeBmp
UnicodeInterp: none
NameList: AGL For New Fonts
DisplaySize: -48
AntiAlias: 1
FitToEm: 0
WinInfo: 38 38 13
BeginChars: 65537 164

StartChar: exclam
Encoding: 33 33 3
Width: 320
GlyphClass: 1
Flags: W
LayerCount: 2
Fore
SplineSet
0 768 m 1,0,-1
 64 768 l 1,1,-1
 64 704 l 1,2,-1
 0 704 l 1,3,-1
 0 768 l 1,0,-1
64 768 m 1,4,-1
 128 768 l 1,5,-1
 128 704 l 1,6,-1
 64 704 l 1,7,-1
 64 768 l 1,4,-1
128 768 m 1,8,-1
 192 768 l 1,9,-1
 192 704 l 1,10,-1
 128 704 l 1,11,-1
 128 768 l 1,8,-1
0 704 m 1,12,-1
 64 704 l 1,13,-1
 64 640 l 1,14,-1
 0 640 l 1,15,-1
 0 704 l 1,12,-1
64 704 m 1,16,-1
 128 704 l 1,17,-1
 128 640 l 1,18,-1
 64 640 l 1,19,-1
 64 704 l 1,16,-1
128 704 m 1,20,-1
 192 704 l 1,21,-1
 192 640 l 1,22,-1
 128 640 l 1,23,-1
 128 704 l 1,20,-1
0 640 m 1,24,-1
 64 640 l 1,25,-1
 64 576 l 1,26,-1
 0 576 l 1,27,-1
 0 640 l 1,24,-1
64 640 m 1,28,-1
 128 640 l 1,29,-1
 128 576 l 1,30,-1
 64 576 l 1,31,-1
 64 640 l 1,28,-1
128 640 m 1,32,-1
 192 640 l 1,33,-1
 192 576 l 1,34,-1
 128 576 l 1,35,-1
 128 640 l 1,32,-1
0 576 m 1,36,-1
 64 576 l 1,37,-1
 64 512 l 1,38,-1
 0 512 l 1,39,-1
 0 576 l 1,36,-1
64 576 m 1,40,-1
 128 576 l 1,41,-1
 128 512 l 1,42,-1
 64 512 l 1,43,-1
 64 576 l 1,40,-1
128 576 m 1,44,-1
 192 576 l 1,45,-1
 192 512 l 1,46,-1
 128 512 l 1,47,-1
 128 576 l 1,44,-1
0 512 m 1,48,-1
 64 512 l 1,49,-1
 64 448 l 1,50,-1
 0 448 l 1,51,-1
 0 512 l 1,48,-1
64 512 m 1,52,-1
 128 512 l 1,53,-1
 128 448 l 1,54,-1
 64 448 l 1,55,-1
 64 512 l 1,52,-1
128 512 m 1,56,-1
 192 512 l 1,57,-1
 192 448 l 1,58,-1
 128 448 l 1,59,-1
 128 512 l 1,56,-1
0 448 m 1,60,-1
 64 448 l 1,61,-1
 64 384 l 1,62,-1
 0 384 l 1,63,-1
 0 448 l 1,60,-1
64 448 m 1,64,-1
 128 448 l 1,65,-1
 128 384 l 1,66,-1
 64 384 l 1,67,-1
 64 448 l 1,64,-1
128 448 m 1,68,-1
 192 448 l 1,69,-1
 192 384 l 1,70,-1
 128 384 l 1,71,-1
 128 448 l 1,68,-1
0 384 m 1,72,-1
 64 384 l 1,73,-1
 64 320 l 1,74,-1
 0 320 l 1,75,-1
 0 384 l 1,72,-1
64 384 m 1,76,-1
 128 384 l 1,77,-1
 128 320 l 1,78,-1
 64 320 l 1,79,-1
 64 384 l 1,76,-1
128 384 m 1,80,-1
 192 384 l 1,81,-1
 192 320 l 1,82,-1
 128 320 l 1,83,-1
 128 384 l 1,80,-1
0 192 m 1,84,-1
 64 192 l 1,85,-1
 64 128 l 1,86,-1
 0 128 l 1,87,-1
 0 192 l 1,84,-1
64 192 m 1,88,-1
 128 192 l 1,89,-1
 128 128 l 1,90,-1
 64 128 l 1,91,-1
 64 192 l 1,88,-1
128 192 m 1,92,-1
 192 192 l 1,93,-1
 192 128 l 1,94,-1
 128 128 l 1,95,-1
 128 192 l 1,92,-1
0 128 m 1,96,-1
 64 128 l 1,97,-1
 64 64 l 1,98,-1
 0 64 l 1,99,-1
 0 128 l 1,96,-1
64 128 m 1,100,-1
 128 128 l 1,101,-1
 128 64 l 1,102,-1
 64 64 l 1,103,-1
 64 128 l 1,100,-1
128 128 m 1,104,-1
 192 128 l 1,105,-1
 192 64 l 1,106,-1
 128 64 l 1,107,-1
 128 128 l 1,104,-1
0 64 m 1,108,-1
 64 64 l 1,109,-1
 64 0 l 1,110,-1
 0 0 l 1,111,-1
 0 64 l 1,108,-1
64 64 m 1,112,-1
 128 64 l 1,113,-1
 128 0 l 1,114,-1
 64 0 l 1,115,-1
 64 64 l 1,112,-1
128 64 m 1,116,-1
 192 64 l 1,117,-1
 192 0 l 1,118,-1
 128 0 l 1,119,-1
 128 64 l 1,116,-1
EndSplineSet
EndChar

StartChar: quotedbl
Encoding: 34 34 4
Width: 512
GlyphClass: 1
Flags: W
LayerCount: 2
Fore
SplineSet
0 768 m 1,0,-1
 64 768 l 1,1,-1
 64 704 l 1,2,-1
 0 704 l 1,3,-1
 0 768 l 1,0,-1
64 768 m 1,4,-1
 128 768 l 1,5,-1
 128 704 l 1,6,-1
 64 704 l 1,7,-1
 64 768 l 1,4,-1
256 768 m 1,8,-1
 320 768 l 1,9,-1
 320 704 l 1,10,-1
 256 704 l 1,11,-1
 256 768 l 1,8,-1
320 768 m 1,12,-1
 384 768 l 1,13,-1
 384 704 l 1,14,-1
 320 704 l 1,15,-1
 320 768 l 1,12,-1
0 704 m 1,16,-1
 64 704 l 1,17,-1
 64 640 l 1,18,-1
 0 640 l 1,19,-1
 0 704 l 1,16,-1
64 704 m 1,20,-1
 128 704 l 1,21,-1
 128 640 l 1,22,-1
 64 640 l 1,23,-1
 64 704 l 1,20,-1
256 704 m 1,24,-1
 320 704 l 1,25,-1
 320 640 l 1,26,-1
 256 640 l 1,27,-1
 256 704 l 1,24,-1
320 704 m 1,28,-1
 384 704 l 1,29,-1
 384 640 l 1,30,-1
 320 640 l 1,31,-1
 320 704 l 1,28,-1
0 640 m 1,32,-1
 64 640 l 1,33,-1
 64 576 l 1,34,-1
 0 576 l 1,35,-1
 0 640 l 1,32,-1
64 640 m 1,36,-1
 128 640 l 1,37,-1
 128 576 l 1,38,-1
 64 576 l 1,39,-1
 64 640 l 1,36,-1
256 640 m 1,40,-1
 320 640 l 1,41,-1
 320 576 l 1,42,-1
 256 576 l 1,43,-1
 256 640 l 1,40,-1
320 640 m 1,44,-1
 384 640 l 1,45,-1
 384 576 l 1,46,-1
 320 576 l 1,47,-1
 320 640 l 1,44,-1
0 576 m 1,48,-1
 64 576 l 1,49,-1
 64 512 l 1,50,-1
 0 512 l 1,51,-1
 0 576 l 1,48,-1
64 576 m 1,52,-1
 128 576 l 1,53,-1
 128 512 l 1,54,-1
 64 512 l 1,55,-1
 64 576 l 1,52,-1
256 576 m 1,56,-1
 320 576 l 1,57,-1
 320 512 l 1,58,-1
 256 512 l 1,59,-1
 256 576 l 1,56,-1
320 576 m 1,60,-1
 384 576 l 1,61,-1
 384 512 l 1,62,-1
 320 512 l 1,63,-1
 320 576 l 1,60,-1
EndSplineSet
EndChar

StartChar: numbersign
Encoding: 35 35 5
Width: 768
GlyphClass: 1
Flags: W
LayerCount: 2
Fore
SplineSet
128 640 m 1,0,-1
 192 640 l 1,1,-1
 192 576 l 1,2,-1
 128 576 l 1,3,-1
 128 640 l 1,0,-1
192 640 m 1,4,-1
 256 640 l 1,5,-1
 256 576 l 1,6,-1
 192 576 l 1,7,-1
 192 640 l 1,4,-1
384 640 m 1,8,-1
 448 640 l 1,9,-1
 448 576 l 1,10,-1
 384 576 l 1,11,-1
 384 640 l 1,8,-1
448 640 m 1,12,-1
 512 640 l 1,13,-1
 512 576 l 1,14,-1
 448 576 l 1,15,-1
 448 640 l 1,12,-1
128 576 m 1,16,-1
 192 576 l 1,17,-1
 192 512 l 1,18,-1
 128 512 l 1,19,-1
 128 576 l 1,16,-1
192 576 m 1,20,-1
 256 576 l 1,21,-1
 256 512 l 1,22,-1
 192 512 l 1,23,-1
 192 576 l 1,20,-1
384 576 m 1,24,-1
 448 576 l 1,25,-1
 448 512 l 1,26,-1
 384 512 l 1,27,-1
 384 576 l 1,24,-1
448 576 m 1,28,-1
 512 576 l 1,29,-1
 512 512 l 1,30,-1
 448 512 l 1,31,-1
 448 576 l 1,28,-1
0 512 m 1,32,-1
 64 512 l 1,33,-1
 64 448 l 1,34,-1
 0 448 l 1,35,-1
 0 512 l 1,32,-1
64 512 m 1,36,-1
 128 512 l 1,37,-1
 128 448 l 1,38,-1
 64 448 l 1,39,-1
 64 512 l 1,36,-1
128 512 m 1,40,-1
 192 512 l 1,41,-1
 192 448 l 1,42,-1
 128 448 l 1,43,-1
 128 512 l 1,40,-1
192 512 m 1,44,-1
 256 512 l 1,45,-1
 256 448 l 1,46,-1
 192 448 l 1,47,-1
 192 512 l 1,44,-1
256 512 m 1,48,-1
 320 512 l 1,49,-1
 320 448 l 1,50,-1
 256 448 l 1,51,-1
 256 512 l 1,48,-1
320 512 m 1,52,-1
 384 512 l 1,53,-1
 384 448 l 1,54,-1
 320 448 l 1,55,-1
 320 512 l 1,52,-1
384 512 m 1,56,-1
 448 512 l 1,57,-1
 448 448 l 1,58,-1
 384 448 l 1,59,-1
 384 512 l 1,56,-1
448 512 m 1,60,-1
 512 512 l 1,61,-1
 512 448 l 1,62,-1
 448 448 l 1,63,-1
 448 512 l 1,60,-1
512 512 m 1,64,-1
 576 512 l 1,65,-1
 576 448 l 1,66,-1
 512 448 l 1,67,-1
 512 512 l 1,64,-1
576 512 m 1,68,-1
 640 512 l 1,69,-1
 640 448 l 1,70,-1
 576 448 l 1,71,-1
 576 512 l 1,68,-1
0 448 m 1,72,-1
 64 448 l 1,73,-1
 64 384 l 1,74,-1
 0 384 l 1,75,-1
 0 448 l 1,72,-1
64 448 m 1,76,-1
 128 448 l 1,77,-1
 128 384 l 1,78,-1
 64 384 l 1,79,-1
 64 448 l 1,76,-1
128 448 m 1,80,-1
 192 448 l 1,81,-1
 192 384 l 1,82,-1
 128 384 l 1,83,-1
 128 448 l 1,80,-1
192 448 m 1,84,-1
 256 448 l 1,85,-1
 256 384 l 1,86,-1
 192 384 l 1,87,-1
 192 448 l 1,84,-1
256 448 m 1,88,-1
 320 448 l 1,89,-1
 320 384 l 1,90,-1
 256 384 l 1,91,-1
 256 448 l 1,88,-1
320 448 m 1,92,-1
 384 448 l 1,93,-1
 384 384 l 1,94,-1
 320 384 l 1,95,-1
 320 448 l 1,92,-1
384 448 m 1,96,-1
 448 448 l 1,97,-1
 448 384 l 1,98,-1
 384 384 l 1,99,-1
 384 448 l 1,96,-1
448 448 m 1,100,-1
 512 448 l 1,101,-1
 512 384 l 1,102,-1
 448 384 l 1,103,-1
 448 448 l 1,100,-1
512 448 m 1,104,-1
 576 448 l 1,105,-1
 576 384 l 1,106,-1
 512 384 l 1,107,-1
 512 448 l 1,104,-1
576 448 m 1,108,-1
 640 448 l 1,109,-1
 640 384 l 1,110,-1
 576 384 l 1,111,-1
 576 448 l 1,108,-1
128 384 m 1,112,-1
 192 384 l 1,113,-1
 192 320 l 1,114,-1
 128 320 l 1,115,-1
 128 384 l 1,112,-1
192 384 m 1,116,-1
 256 384 l 1,117,-1
 256 320 l 1,118,-1
 192 320 l 1,119,-1
 192 384 l 1,116,-1
384 384 m 1,120,-1
 448 384 l 1,121,-1
 448 320 l 1,122,-1
 384 320 l 1,123,-1
 384 384 l 1,120,-1
448 384 m 1,124,-1
 512 384 l 1,125,-1
 512 320 l 1,126,-1
 448 320 l 1,127,-1
 448 384 l 1,124,-1
128 320 m 1,128,-1
 192 320 l 1,129,-1
 192 256 l 1,130,-1
 128 256 l 1,131,-1
 128 320 l 1,128,-1
192 320 m 1,132,-1
 256 320 l 1,133,-1
 256 256 l 1,134,-1
 192 256 l 1,135,-1
 192 320 l 1,132,-1
384 320 m 1,136,-1
 448 320 l 1,137,-1
 448 256 l 1,138,-1
 384 256 l 1,139,-1
 384 320 l 1,136,-1
448 320 m 1,140,-1
 512 320 l 1,141,-1
 512 256 l 1,142,-1
 448 256 l 1,143,-1
 448 320 l 1,140,-1
0 256 m 1,144,-1
 64 256 l 1,145,-1
 64 192 l 1,146,-1
 0 192 l 1,147,-1
 0 256 l 1,144,-1
64 256 m 1,148,-1
 128 256 l 1,149,-1
 128 192 l 1,150,-1
 64 192 l 1,151,-1
 64 256 l 1,148,-1
128 256 m 1,152,-1
 192 256 l 1,153,-1
 192 192 l 1,154,-1
 128 192 l 1,155,-1
 128 256 l 1,152,-1
192 256 m 1,156,-1
 256 256 l 1,157,-1
 256 192 l 1,158,-1
 192 192 l 1,159,-1
 192 256 l 1,156,-1
256 256 m 1,160,-1
 320 256 l 1,161,-1
 320 192 l 1,162,-1
 256 192 l 1,163,-1
 256 256 l 1,160,-1
320 256 m 1,164,-1
 384 256 l 1,165,-1
 384 192 l 1,166,-1
 320 192 l 1,167,-1
 320 256 l 1,164,-1
384 256 m 1,168,-1
 448 256 l 1,169,-1
 448 192 l 1,170,-1
 384 192 l 1,171,-1
 384 256 l 1,168,-1
448 256 m 1,172,-1
 512 256 l 1,173,-1
 512 192 l 1,174,-1
 448 192 l 1,175,-1
 448 256 l 1,172,-1
512 256 m 1,176,-1
 576 256 l 1,177,-1
 576 192 l 1,178,-1
 512 192 l 1,179,-1
 512 256 l 1,176,-1
576 256 m 1,180,-1
 640 256 l 1,181,-1
 640 192 l 1,182,-1
 576 192 l 1,183,-1
 576 256 l 1,180,-1
0 192 m 1,184,-1
 64 192 l 1,185,-1
 64 128 l 1,186,-1
 0 128 l 1,187,-1
 0 192 l 1,184,-1
64 192 m 1,188,-1
 128 192 l 1,189,-1
 128 128 l 1,190,-1
 64 128 l 1,191,-1
 64 192 l 1,188,-1
128 192 m 1,192,-1
 192 192 l 1,193,-1
 192 128 l 1,194,-1
 128 128 l 1,195,-1
 128 192 l 1,192,-1
192 192 m 1,196,-1
 256 192 l 1,197,-1
 256 128 l 1,198,-1
 192 128 l 1,199,-1
 192 192 l 1,196,-1
256 192 m 1,200,-1
 320 192 l 1,201,-1
 320 128 l 1,202,-1
 256 128 l 1,203,-1
 256 192 l 1,200,-1
320 192 m 1,204,-1
 384 192 l 1,205,-1
 384 128 l 1,206,-1
 320 128 l 1,207,-1
 320 192 l 1,204,-1
384 192 m 1,208,-1
 448 192 l 1,209,-1
 448 128 l 1,210,-1
 384 128 l 1,211,-1
 384 192 l 1,208,-1
448 192 m 1,212,-1
 512 192 l 1,213,-1
 512 128 l 1,214,-1
 448 128 l 1,215,-1
 448 192 l 1,212,-1
512 192 m 1,216,-1
 576 192 l 1,217,-1
 576 128 l 1,218,-1
 512 128 l 1,219,-1
 512 192 l 1,216,-1
576 192 m 1,220,-1
 640 192 l 1,221,-1
 640 128 l 1,222,-1
 576 128 l 1,223,-1
 576 192 l 1,220,-1
128 128 m 1,224,-1
 192 128 l 1,225,-1
 192 64 l 1,226,-1
 128 64 l 1,227,-1
 128 128 l 1,224,-1
192 128 m 1,228,-1
 256 128 l 1,229,-1
 256 64 l 1,230,-1
 192 64 l 1,231,-1
 192 128 l 1,228,-1
384 128 m 1,232,-1
 448 128 l 1,233,-1
 448 64 l 1,234,-1
 384 64 l 1,235,-1
 384 128 l 1,232,-1
448 128 m 1,236,-1
 512 128 l 1,237,-1
 512 64 l 1,238,-1
 448 64 l 1,239,-1
 448 128 l 1,236,-1
128 64 m 1,240,-1
 192 64 l 1,241,-1
 192 0 l 1,242,-1
 128 0 l 1,243,-1
 128 64 l 1,240,-1
192 64 m 1,244,-1
 256 64 l 1,245,-1
 256 0 l 1,246,-1
 192 0 l 1,247,-1
 192 64 l 1,244,-1
384 64 m 1,248,-1
 448 64 l 1,249,-1
 448 0 l 1,250,-1
 384 0 l 1,251,-1
 384 64 l 1,248,-1
448 64 m 1,252,-1
 512 64 l 1,253,-1
 512 0 l 1,254,-1
 448 0 l 1,255,-1
 448 64 l 1,252,-1
EndSplineSet
EndChar

StartChar: dollar
Encoding: 36 36 6
Width: 640
GlyphClass: 1
Flags: W
LayerCount: 2
Fore
SplineSet
384 768 m 1,0,-1
 448 768 l 1,1,-1
 448 704 l 1,2,-1
 384 704 l 1,3,-1
 384 768 l 1,0,-1
64 704 m 1,4,-1
 128 704 l 1,5,-1
 128 640 l 1,6,-1
 64 640 l 1,7,-1
 64 704 l 1,4,-1
128 704 m 1,8,-1
 192 704 l 1,9,-1
 192 640 l 1,10,-1
 128 640 l 1,11,-1
 128 704 l 1,8,-1
192 704 m 1,12,-1
 256 704 l 1,13,-1
 256 640 l 1,14,-1
 192 640 l 1,15,-1
 192 704 l 1,12,-1
256 704 m 1,16,-1
 320 704 l 1,17,-1
 320 640 l 1,18,-1
 256 640 l 1,19,-1
 256 704 l 1,16,-1
320 704 m 1,20,-1
 384 704 l 1,21,-1
 384 640 l 1,22,-1
 320 640 l 1,23,-1
 320 704 l 1,20,-1
384 704 m 1,24,-1
 448 704 l 1,25,-1
 448 640 l 1,26,-1
 384 640 l 1,27,-1
 384 704 l 1,24,-1
0 640 m 1,28,-1
 64 640 l 1,29,-1
 64 576 l 1,30,-1
 0 576 l 1,31,-1
 0 640 l 1,28,-1
64 640 m 1,32,-1
 128 640 l 1,33,-1
 128 576 l 1,34,-1
 64 576 l 1,35,-1
 64 640 l 1,32,-1
128 640 m 1,36,-1
 192 640 l 1,37,-1
 192 576 l 1,38,-1
 128 576 l 1,39,-1
 128 640 l 1,36,-1
320 640 m 1,40,-1
 384 640 l 1,41,-1
 384 576 l 1,42,-1
 320 576 l 1,43,-1
 320 640 l 1,40,-1
384 640 m 1,44,-1
 448 640 l 1,45,-1
 448 576 l 1,46,-1
 384 576 l 1,47,-1
 384 640 l 1,44,-1
448 640 m 1,48,-1
 512 640 l 1,49,-1
 512 576 l 1,50,-1
 448 576 l 1,51,-1
 448 640 l 1,48,-1
0 576 m 1,52,-1
 64 576 l 1,53,-1
 64 512 l 1,54,-1
 0 512 l 1,55,-1
 0 576 l 1,52,-1
64 576 m 1,56,-1
 128 576 l 1,57,-1
 128 512 l 1,58,-1
 64 512 l 1,59,-1
 64 576 l 1,56,-1
128 576 m 1,60,-1
 192 576 l 1,61,-1
 192 512 l 1,62,-1
 128 512 l 1,63,-1
 128 576 l 1,60,-1
256 576 m 1,64,-1
 320 576 l 1,65,-1
 320 512 l 1,66,-1
 256 512 l 1,67,-1
 256 576 l 1,64,-1
384 576 m 1,68,-1
 448 576 l 1,69,-1
 448 512 l 1,70,-1
 384 512 l 1,71,-1
 384 576 l 1,68,-1
448 576 m 1,72,-1
 512 576 l 1,73,-1
 512 512 l 1,74,-1
 448 512 l 1,75,-1
 448 576 l 1,72,-1
64 512 m 1,76,-1
 128 512 l 1,77,-1
 128 448 l 1,78,-1
 64 448 l 1,79,-1
 64 512 l 1,76,-1
128 512 m 1,80,-1
 192 512 l 1,81,-1
 192 448 l 1,82,-1
 128 448 l 1,83,-1
 128 512 l 1,80,-1
192 512 m 1,84,-1
 256 512 l 1,85,-1
 256 448 l 1,86,-1
 192 448 l 1,87,-1
 192 512 l 1,84,-1
256 512 m 1,88,-1
 320 512 l 1,89,-1
 320 448 l 1,90,-1
 256 448 l 1,91,-1
 256 512 l 1,88,-1
64 448 m 1,92,-1
 128 448 l 1,93,-1
 128 384 l 1,94,-1
 64 384 l 1,95,-1
 64 448 l 1,92,-1
128 448 m 1,96,-1
 192 448 l 1,97,-1
 192 384 l 1,98,-1
 128 384 l 1,99,-1
 128 448 l 1,96,-1
192 448 m 1,100,-1
 256 448 l 1,101,-1
 256 384 l 1,102,-1
 192 384 l 1,103,-1
 192 448 l 1,100,-1
256 448 m 1,104,-1
 320 448 l 1,105,-1
 320 384 l 1,106,-1
 256 384 l 1,107,-1
 256 448 l 1,104,-1
192 384 m 1,108,-1
 256 384 l 1,109,-1
 256 320 l 1,110,-1
 192 320 l 1,111,-1
 192 384 l 1,108,-1
256 384 m 1,112,-1
 320 384 l 1,113,-1
 320 320 l 1,114,-1
 256 320 l 1,115,-1
 256 384 l 1,112,-1
320 384 m 1,116,-1
 384 384 l 1,117,-1
 384 320 l 1,118,-1
 320 320 l 1,119,-1
 320 384 l 1,116,-1
384 384 m 1,120,-1
 448 384 l 1,121,-1
 448 320 l 1,122,-1
 384 320 l 1,123,-1
 384 384 l 1,120,-1
192 320 m 1,124,-1
 256 320 l 1,125,-1
 256 256 l 1,126,-1
 192 256 l 1,127,-1
 192 320 l 1,124,-1
256 320 m 1,128,-1
 320 320 l 1,129,-1
 320 256 l 1,130,-1
 256 256 l 1,131,-1
 256 320 l 1,128,-1
320 320 m 1,132,-1
 384 320 l 1,133,-1
 384 256 l 1,134,-1
 320 256 l 1,135,-1
 320 320 l 1,132,-1
384 320 m 1,136,-1
 448 320 l 1,137,-1
 448 256 l 1,138,-1
 384 256 l 1,139,-1
 384 320 l 1,136,-1
0 256 m 1,140,-1
 64 256 l 1,141,-1
 64 192 l 1,142,-1
 0 192 l 1,143,-1
 0 256 l 1,140,-1
192 256 m 1,144,-1
 256 256 l 1,145,-1
 256 192 l 1,146,-1
 192 192 l 1,147,-1
 192 256 l 1,144,-1
320 256 m 1,148,-1
 384 256 l 1,149,-1
 384 192 l 1,150,-1
 320 192 l 1,151,-1
 320 256 l 1,148,-1
384 256 m 1,152,-1
 448 256 l 1,153,-1
 448 192 l 1,154,-1
 384 192 l 1,155,-1
 384 256 l 1,152,-1
448 256 m 1,156,-1
 512 256 l 1,157,-1
 512 192 l 1,158,-1
 448 192 l 1,159,-1
 448 256 l 1,156,-1
0 192 m 1,160,-1
 64 192 l 1,161,-1
 64 128 l 1,162,-1
 0 128 l 1,163,-1
 0 192 l 1,160,-1
64 192 m 1,164,-1
 128 192 l 1,165,-1
 128 128 l 1,166,-1
 64 128 l 1,167,-1
 64 192 l 1,164,-1
128 192 m 1,168,-1
 192 192 l 1,169,-1
 192 128 l 1,170,-1
 128 128 l 1,171,-1
 128 192 l 1,168,-1
320 192 m 1,172,-1
 384 192 l 1,173,-1
 384 128 l 1,174,-1
 320 128 l 1,175,-1
 320 192 l 1,172,-1
384 192 m 1,176,-1
 448 192 l 1,177,-1
 448 128 l 1,178,-1
 384 128 l 1,179,-1
 384 192 l 1,176,-1
448 192 m 1,180,-1
 512 192 l 1,181,-1
 512 128 l 1,182,-1
 448 128 l 1,183,-1
 448 192 l 1,180,-1
64 128 m 1,184,-1
 128 128 l 1,185,-1
 128 64 l 1,186,-1
 64 64 l 1,187,-1
 64 128 l 1,184,-1
128 128 m 1,188,-1
 192 128 l 1,189,-1
 192 64 l 1,190,-1
 128 64 l 1,191,-1
 128 128 l 1,188,-1
192 128 m 1,192,-1
 256 128 l 1,193,-1
 256 64 l 1,194,-1
 192 64 l 1,195,-1
 192 128 l 1,192,-1
256 128 m 1,196,-1
 320 128 l 1,197,-1
 320 64 l 1,198,-1
 256 64 l 1,199,-1
 256 128 l 1,196,-1
320 128 m 1,200,-1
 384 128 l 1,201,-1
 384 64 l 1,202,-1
 320 64 l 1,203,-1
 320 128 l 1,200,-1
384 128 m 1,204,-1
 448 128 l 1,205,-1
 448 64 l 1,206,-1
 384 64 l 1,207,-1
 384 128 l 1,204,-1
128 64 m 1,208,-1
 192 64 l 1,209,-1
 192 0 l 1,210,-1
 128 0 l 1,211,-1
 128 64 l 1,208,-1
EndSplineSet
EndChar

StartChar: percent
Encoding: 37 37 7
Width: 640
GlyphClass: 1
Flags: W
LayerCount: 2
Fore
SplineSet
256 768 m 1,0,-1
 320 768 l 1,1,-1
 320 704 l 1,2,-1
 256 704 l 1,3,-1
 256 768 l 1,0,-1
320 768 m 1,4,-1
 384 768 l 1,5,-1
 384 704 l 1,6,-1
 320 704 l 1,7,-1
 320 768 l 1,4,-1
0 704 m 1,8,-1
 64 704 l 1,9,-1
 64 640 l 1,10,-1
 0 640 l 1,11,-1
 0 704 l 1,8,-1
64 704 m 1,12,-1
 128 704 l 1,13,-1
 128 640 l 1,14,-1
 64 640 l 1,15,-1
 64 704 l 1,12,-1
256 704 m 1,16,-1
 320 704 l 1,17,-1
 320 640 l 1,18,-1
 256 640 l 1,19,-1
 256 704 l 1,16,-1
320 704 m 1,20,-1
 384 704 l 1,21,-1
 384 640 l 1,22,-1
 320 640 l 1,23,-1
 320 704 l 1,20,-1
0 640 m 1,24,-1
 64 640 l 1,25,-1
 64 576 l 1,26,-1
 0 576 l 1,27,-1
 0 640 l 1,24,-1
64 640 m 1,28,-1
 128 640 l 1,29,-1
 128 576 l 1,30,-1
 64 576 l 1,31,-1
 64 640 l 1,28,-1
256 640 m 1,32,-1
 320 640 l 1,33,-1
 320 576 l 1,34,-1
 256 576 l 1,35,-1
 256 640 l 1,32,-1
320 640 m 1,36,-1
 384 640 l 1,37,-1
 384 576 l 1,38,-1
 320 576 l 1,39,-1
 320 640 l 1,36,-1
192 576 m 1,40,-1
 256 576 l 1,41,-1
 256 512 l 1,42,-1
 192 512 l 1,43,-1
 192 576 l 1,40,-1
256 576 m 1,44,-1
 320 576 l 1,45,-1
 320 512 l 1,46,-1
 256 512 l 1,47,-1
 256 576 l 1,44,-1
320 576 m 1,48,-1
 384 576 l 1,49,-1
 384 512 l 1,50,-1
 320 512 l 1,51,-1
 320 576 l 1,48,-1
192 512 m 1,52,-1
 256 512 l 1,53,-1
 256 448 l 1,54,-1
 192 448 l 1,55,-1
 192 512 l 1,52,-1
256 512 m 1,56,-1
 320 512 l 1,57,-1
 320 448 l 1,58,-1
 256 448 l 1,59,-1
 256 512 l 1,56,-1
192 448 m 1,60,-1
 256 448 l 1,61,-1
 256 384 l 1,62,-1
 192 384 l 1,63,-1
 192 448 l 1,60,-1
256 448 m 1,64,-1
 320 448 l 1,65,-1
 320 384 l 1,66,-1
 256 384 l 1,67,-1
 256 448 l 1,64,-1
128 384 m 1,68,-1
 192 384 l 1,69,-1
 192 320 l 1,70,-1
 128 320 l 1,71,-1
 128 384 l 1,68,-1
192 384 m 1,72,-1
 256 384 l 1,73,-1
 256 320 l 1,74,-1
 192 320 l 1,75,-1
 192 384 l 1,72,-1
256 384 m 1,76,-1
 320 384 l 1,77,-1
 320 320 l 1,78,-1
 256 320 l 1,79,-1
 256 384 l 1,76,-1
128 320 m 1,80,-1
 192 320 l 1,81,-1
 192 256 l 1,82,-1
 128 256 l 1,83,-1
 128 320 l 1,80,-1
192 320 m 1,84,-1
 256 320 l 1,85,-1
 256 256 l 1,86,-1
 192 256 l 1,87,-1
 192 320 l 1,84,-1
128 256 m 1,88,-1
 192 256 l 1,89,-1
 192 192 l 1,90,-1
 128 192 l 1,91,-1
 128 256 l 1,88,-1
192 256 m 1,92,-1
 256 256 l 1,93,-1
 256 192 l 1,94,-1
 192 192 l 1,95,-1
 192 256 l 1,92,-1
384 256 m 1,96,-1
 448 256 l 1,97,-1
 448 192 l 1,98,-1
 384 192 l 1,99,-1
 384 256 l 1,96,-1
448 256 m 1,100,-1
 512 256 l 1,101,-1
 512 192 l 1,102,-1
 448 192 l 1,103,-1
 448 256 l 1,100,-1
64 192 m 1,104,-1
 128 192 l 1,105,-1
 128 128 l 1,106,-1
 64 128 l 1,107,-1
 64 192 l 1,104,-1
128 192 m 1,108,-1
 192 192 l 1,109,-1
 192 128 l 1,110,-1
 128 128 l 1,111,-1
 128 192 l 1,108,-1
192 192 m 1,112,-1
 256 192 l 1,113,-1
 256 128 l 1,114,-1
 192 128 l 1,115,-1
 192 192 l 1,112,-1
384 192 m 1,116,-1
 448 192 l 1,117,-1
 448 128 l 1,118,-1
 384 128 l 1,119,-1
 384 192 l 1,116,-1
448 192 m 1,120,-1
 512 192 l 1,121,-1
 512 128 l 1,122,-1
 448 128 l 1,123,-1
 448 192 l 1,120,-1
64 128 m 1,124,-1
 128 128 l 1,125,-1
 128 64 l 1,126,-1
 64 64 l 1,127,-1
 64 128 l 1,124,-1
128 128 m 1,128,-1
 192 128 l 1,129,-1
 192 64 l 1,130,-1
 128 64 l 1,131,-1
 128 128 l 1,128,-1
64 64 m 1,132,-1
 128 64 l 1,133,-1
 128 0 l 1,134,-1
 64 0 l 1,135,-1
 64 64 l 1,132,-1
128 64 m 1,136,-1
 192 64 l 1,137,-1
 192 0 l 1,138,-1
 128 0 l 1,139,-1
 128 64 l 1,136,-1
EndSplineSet
EndChar

StartChar: ampersand
Encoding: 38 38 8
Width: 640
GlyphClass: 1
Flags: W
LayerCount: 2
Fore
SplineSet
64 768 m 1,0,-1
 128 768 l 1,1,-1
 128 704 l 1,2,-1
 64 704 l 1,3,-1
 64 768 l 1,0,-1
128 768 m 1,4,-1
 192 768 l 1,5,-1
 192 704 l 1,6,-1
 128 704 l 1,7,-1
 128 768 l 1,4,-1
192 768 m 1,8,-1
 256 768 l 1,9,-1
 256 704 l 1,10,-1
 192 704 l 1,11,-1
 192 768 l 1,8,-1
256 768 m 1,12,-1
 320 768 l 1,13,-1
 320 704 l 1,14,-1
 256 704 l 1,15,-1
 256 768 l 1,12,-1
320 768 m 1,16,-1
 384 768 l 1,17,-1
 384 704 l 1,18,-1
 320 704 l 1,19,-1
 320 768 l 1,16,-1
384 768 m 1,20,-1
 448 768 l 1,21,-1
 448 704 l 1,22,-1
 384 704 l 1,23,-1
 384 768 l 1,20,-1
0 704 m 1,24,-1
 64 704 l 1,25,-1
 64 640 l 1,26,-1
 0 640 l 1,27,-1
 0 704 l 1,24,-1
64 704 m 1,28,-1
 128 704 l 1,29,-1
 128 640 l 1,30,-1
 64 640 l 1,31,-1
 64 704 l 1,28,-1
128 704 m 1,32,-1
 192 704 l 1,33,-1
 192 640 l 1,34,-1
 128 640 l 1,35,-1
 128 704 l 1,32,-1
192 704 m 1,36,-1
 256 704 l 1,37,-1
 256 640 l 1,38,-1
 192 640 l 1,39,-1
 192 704 l 1,36,-1
256 704 m 1,40,-1
 320 704 l 1,41,-1
 320 640 l 1,42,-1
 256 640 l 1,43,-1
 256 704 l 1,40,-1
320 704 m 1,44,-1
 384 704 l 1,45,-1
 384 640 l 1,46,-1
 320 640 l 1,47,-1
 320 704 l 1,44,-1
384 704 m 1,48,-1
 448 704 l 1,49,-1
 448 640 l 1,50,-1
 384 640 l 1,51,-1
 384 704 l 1,48,-1
448 704 m 1,52,-1
 512 704 l 1,53,-1
 512 640 l 1,54,-1
 448 640 l 1,55,-1
 448 704 l 1,52,-1
0 640 m 1,56,-1
 64 640 l 1,57,-1
 64 576 l 1,58,-1
 0 576 l 1,59,-1
 0 640 l 1,56,-1
64 640 m 1,60,-1
 128 640 l 1,61,-1
 128 576 l 1,62,-1
 64 576 l 1,63,-1
 64 640 l 1,60,-1
384 640 m 1,64,-1
 448 640 l 1,65,-1
 448 576 l 1,66,-1
 384 576 l 1,67,-1
 384 640 l 1,64,-1
448 640 m 1,68,-1
 512 640 l 1,69,-1
 512 576 l 1,70,-1
 448 576 l 1,71,-1
 448 640 l 1,68,-1
0 576 m 1,72,-1
 64 576 l 1,73,-1
 64 512 l 1,74,-1
 0 512 l 1,75,-1
 0 576 l 1,72,-1
64 576 m 1,76,-1
 128 576 l 1,77,-1
 128 512 l 1,78,-1
 64 512 l 1,79,-1
 64 576 l 1,76,-1
320 576 m 1,80,-1
 384 576 l 1,81,-1
 384 512 l 1,82,-1
 320 512 l 1,83,-1
 320 576 l 1,80,-1
384 576 m 1,84,-1
 448 576 l 1,85,-1
 448 512 l 1,86,-1
 384 512 l 1,87,-1
 384 576 l 1,84,-1
448 576 m 1,88,-1
 512 576 l 1,89,-1
 512 512 l 1,90,-1
 448 512 l 1,91,-1
 448 576 l 1,88,-1
64 512 m 1,92,-1
 128 512 l 1,93,-1
 128 448 l 1,94,-1
 64 448 l 1,95,-1
 64 512 l 1,92,-1
128 512 m 1,96,-1
 192 512 l 1,97,-1
 192 448 l 1,98,-1
 128 448 l 1,99,-1
 128 512 l 1,96,-1
256 512 m 1,100,-1
 320 512 l 1,101,-1
 320 448 l 1,102,-1
 256 448 l 1,103,-1
 256 512 l 1,100,-1
320 512 m 1,104,-1
 384 512 l 1,105,-1
 384 448 l 1,106,-1
 320 448 l 1,107,-1
 320 512 l 1,104,-1
384 512 m 1,108,-1
 448 512 l 1,109,-1
 448 448 l 1,110,-1
 384 448 l 1,111,-1
 384 512 l 1,108,-1
448 512 m 1,112,-1
 512 512 l 1,113,-1
 512 448 l 1,114,-1
 448 448 l 1,115,-1
 448 512 l 1,112,-1
128 448 m 1,116,-1
 192 448 l 1,117,-1
 192 384 l 1,118,-1
 128 384 l 1,119,-1
 128 448 l 1,116,-1
192 448 m 1,120,-1
 256 448 l 1,121,-1
 256 384 l 1,122,-1
 192 384 l 1,123,-1
 192 448 l 1,120,-1
256 448 m 1,124,-1
 320 448 l 1,125,-1
 320 384 l 1,126,-1
 256 384 l 1,127,-1
 256 448 l 1,124,-1
64 384 m 1,128,-1
 128 384 l 1,129,-1
 128 320 l 1,130,-1
 64 320 l 1,131,-1
 64 384 l 1,128,-1
128 384 m 1,132,-1
 192 384 l 1,133,-1
 192 320 l 1,134,-1
 128 320 l 1,135,-1
 128 384 l 1,132,-1
192 384 m 1,136,-1
 256 384 l 1,137,-1
 256 320 l 1,138,-1
 192 320 l 1,139,-1
 192 384 l 1,136,-1
256 384 m 1,140,-1
 320 384 l 1,141,-1
 320 320 l 1,142,-1
 256 320 l 1,143,-1
 256 384 l 1,140,-1
384 384 m 1,144,-1
 448 384 l 1,145,-1
 448 320 l 1,146,-1
 384 320 l 1,147,-1
 384 384 l 1,144,-1
448 384 m 1,148,-1
 512 384 l 1,149,-1
 512 320 l 1,150,-1
 448 320 l 1,151,-1
 448 384 l 1,148,-1
0 320 m 1,152,-1
 64 320 l 1,153,-1
 64 256 l 1,154,-1
 0 256 l 1,155,-1
 0 320 l 1,152,-1
64 320 m 1,156,-1
 128 320 l 1,157,-1
 128 256 l 1,158,-1
 64 256 l 1,159,-1
 64 320 l 1,156,-1
128 320 m 1,160,-1
 192 320 l 1,161,-1
 192 256 l 1,162,-1
 128 256 l 1,163,-1
 128 320 l 1,160,-1
192 320 m 1,164,-1
 256 320 l 1,165,-1
 256 256 l 1,166,-1
 192 256 l 1,167,-1
 192 320 l 1,164,-1
256 320 m 1,168,-1
 320 320 l 1,169,-1
 320 256 l 1,170,-1
 256 256 l 1,171,-1
 256 320 l 1,168,-1
320 320 m 1,172,-1
 384 320 l 1,173,-1
 384 256 l 1,174,-1
 320 256 l 1,175,-1
 320 320 l 1,172,-1
384 320 m 1,176,-1
 448 320 l 1,177,-1
 448 256 l 1,178,-1
 384 256 l 1,179,-1
 384 320 l 1,176,-1
448 320 m 1,180,-1
 512 320 l 1,181,-1
 512 256 l 1,182,-1
 448 256 l 1,183,-1
 448 320 l 1,180,-1
0 256 m 1,184,-1
 64 256 l 1,185,-1
 64 192 l 1,186,-1
 0 192 l 1,187,-1
 0 256 l 1,184,-1
64 256 m 1,188,-1
 128 256 l 1,189,-1
 128 192 l 1,190,-1
 64 192 l 1,191,-1
 64 256 l 1,188,-1
256 256 m 1,192,-1
 320 256 l 1,193,-1
 320 192 l 1,194,-1
 256 192 l 1,195,-1
 256 256 l 1,192,-1
320 256 m 1,196,-1
 384 256 l 1,197,-1
 384 192 l 1,198,-1
 320 192 l 1,199,-1
 320 256 l 1,196,-1
384 256 m 1,200,-1
 448 256 l 1,201,-1
 448 192 l 1,202,-1
 384 192 l 1,203,-1
 384 256 l 1,200,-1
448 256 m 1,204,-1
 512 256 l 1,205,-1
 512 192 l 1,206,-1
 448 192 l 1,207,-1
 448 256 l 1,204,-1
0 192 m 1,208,-1
 64 192 l 1,209,-1
 64 128 l 1,210,-1
 0 128 l 1,211,-1
 0 192 l 1,208,-1
64 192 m 1,212,-1
 128 192 l 1,213,-1
 128 128 l 1,214,-1
 64 128 l 1,215,-1
 64 192 l 1,212,-1
320 192 m 1,216,-1
 384 192 l 1,217,-1
 384 128 l 1,218,-1
 320 128 l 1,219,-1
 320 192 l 1,216,-1
384 192 m 1,220,-1
 448 192 l 1,221,-1
 448 128 l 1,222,-1
 384 128 l 1,223,-1
 384 192 l 1,220,-1
0 128 m 1,224,-1
 64 128 l 1,225,-1
 64 64 l 1,226,-1
 0 64 l 1,227,-1
 0 128 l 1,224,-1
64 128 m 1,228,-1
 128 128 l 1,229,-1
 128 64 l 1,230,-1
 64 64 l 1,231,-1
 64 128 l 1,228,-1
128 128 m 1,232,-1
 192 128 l 1,233,-1
 192 64 l 1,234,-1
 128 64 l 1,235,-1
 128 128 l 1,232,-1
192 128 m 1,236,-1
 256 128 l 1,237,-1
 256 64 l 1,238,-1
 192 64 l 1,239,-1
 192 128 l 1,236,-1
256 128 m 1,240,-1
 320 128 l 1,241,-1
 320 64 l 1,242,-1
 256 64 l 1,243,-1
 256 128 l 1,240,-1
320 128 m 1,244,-1
 384 128 l 1,245,-1
 384 64 l 1,246,-1
 320 64 l 1,247,-1
 320 128 l 1,244,-1
384 128 m 1,248,-1
 448 128 l 1,249,-1
 448 64 l 1,250,-1
 384 64 l 1,251,-1
 384 128 l 1,248,-1
448 128 m 1,252,-1
 512 128 l 1,253,-1
 512 64 l 1,254,-1
 448 64 l 1,255,-1
 448 128 l 1,252,-1
64 64 m 1,256,-1
 128 64 l 1,257,-1
 128 0 l 1,258,-1
 64 0 l 1,259,-1
 64 64 l 1,256,-1
128 64 m 1,260,-1
 192 64 l 1,261,-1
 192 0 l 1,262,-1
 128 0 l 1,263,-1
 128 64 l 1,260,-1
192 64 m 1,264,-1
 256 64 l 1,265,-1
 256 0 l 1,266,-1
 192 0 l 1,267,-1
 192 64 l 1,264,-1
256 64 m 1,268,-1
 320 64 l 1,269,-1
 320 0 l 1,270,-1
 256 0 l 1,271,-1
 256 64 l 1,268,-1
320 64 m 1,272,-1
 384 64 l 1,273,-1
 384 0 l 1,274,-1
 320 0 l 1,275,-1
 320 64 l 1,272,-1
448 64 m 1,276,-1
 512 64 l 1,277,-1
 512 0 l 1,278,-1
 448 0 l 1,279,-1
 448 64 l 1,276,-1
EndSplineSet
EndChar

StartChar: quotesingle
Encoding: 39 39 9
Width: 256
GlyphClass: 1
Flags: W
LayerCount: 2
Fore
SplineSet
0 768 m 1,0,-1
 64 768 l 1,1,-1
 64 704 l 1,2,-1
 0 704 l 1,3,-1
 0 768 l 1,0,-1
64 768 m 1,4,-1
 128 768 l 1,5,-1
 128 704 l 1,6,-1
 64 704 l 1,7,-1
 64 768 l 1,4,-1
0 704 m 1,8,-1
 64 704 l 1,9,-1
 64 640 l 1,10,-1
 0 640 l 1,11,-1
 0 704 l 1,8,-1
64 704 m 1,12,-1
 128 704 l 1,13,-1
 128 640 l 1,14,-1
 64 640 l 1,15,-1
 64 704 l 1,12,-1
0 640 m 1,16,-1
 64 640 l 1,17,-1
 64 576 l 1,18,-1
 0 576 l 1,19,-1
 0 640 l 1,16,-1
64 640 m 1,20,-1
 128 640 l 1,21,-1
 128 576 l 1,22,-1
 64 576 l 1,23,-1
 64 640 l 1,20,-1
0 576 m 1,24,-1
 64 576 l 1,25,-1
 64 512 l 1,26,-1
 0 512 l 1,27,-1
 0 576 l 1,24,-1
64 576 m 1,28,-1
 128 576 l 1,29,-1
 128 512 l 1,30,-1
 64 512 l 1,31,-1
 64 576 l 1,28,-1
EndSplineSet
EndChar

StartChar: parenleft
Encoding: 40 40 10
Width: 320
GlyphClass: 1
Flags: W
LayerCount: 2
Fore
SplineSet
64 704 m 1,0,-1
 128 704 l 1,1,-1
 128 640 l 1,2,-1
 64 640 l 1,3,-1
 64 704 l 1,0,-1
128 704 m 1,4,-1
 192 704 l 1,5,-1
 192 640 l 1,6,-1
 128 640 l 1,7,-1
 128 704 l 1,4,-1
0 640 m 1,8,-1
 64 640 l 1,9,-1
 64 576 l 1,10,-1
 0 576 l 1,11,-1
 0 640 l 1,8,-1
64 640 m 1,12,-1
 128 640 l 1,13,-1
 128 576 l 1,14,-1
 64 576 l 1,15,-1
 64 640 l 1,12,-1
128 640 m 1,16,-1
 192 640 l 1,17,-1
 192 576 l 1,18,-1
 128 576 l 1,19,-1
 128 640 l 1,16,-1
0 576 m 1,20,-1
 64 576 l 1,21,-1
 64 512 l 1,22,-1
 0 512 l 1,23,-1
 0 576 l 1,20,-1
64 576 m 1,24,-1
 128 576 l 1,25,-1
 128 512 l 1,26,-1
 64 512 l 1,27,-1
 64 576 l 1,24,-1
0 512 m 1,28,-1
 64 512 l 1,29,-1
 64 448 l 1,30,-1
 0 448 l 1,31,-1
 0 512 l 1,28,-1
64 512 m 1,32,-1
 128 512 l 1,33,-1
 128 448 l 1,34,-1
 64 448 l 1,35,-1
 64 512 l 1,32,-1
0 448 m 1,36,-1
 64 448 l 1,37,-1
 64 384 l 1,38,-1
 0 384 l 1,39,-1
 0 448 l 1,36,-1
64 448 m 1,40,-1
 128 448 l 1,41,-1
 128 384 l 1,42,-1
 64 384 l 1,43,-1
 64 448 l 1,40,-1
0 384 m 1,44,-1
 64 384 l 1,45,-1
 64 320 l 1,46,-1
 0 320 l 1,47,-1
 0 384 l 1,44,-1
64 384 m 1,48,-1
 128 384 l 1,49,-1
 128 320 l 1,50,-1
 64 320 l 1,51,-1
 64 384 l 1,48,-1
0 320 m 1,52,-1
 64 320 l 1,53,-1
 64 256 l 1,54,-1
 0 256 l 1,55,-1
 0 320 l 1,52,-1
64 320 m 1,56,-1
 128 320 l 1,57,-1
 128 256 l 1,58,-1
 64 256 l 1,59,-1
 64 320 l 1,56,-1
0 256 m 1,60,-1
 64 256 l 1,61,-1
 64 192 l 1,62,-1
 0 192 l 1,63,-1
 0 256 l 1,60,-1
64 256 m 1,64,-1
 128 256 l 1,65,-1
 128 192 l 1,66,-1
 64 192 l 1,67,-1
 64 256 l 1,64,-1
0 192 m 1,68,-1
 64 192 l 1,69,-1
 64 128 l 1,70,-1
 0 128 l 1,71,-1
 0 192 l 1,68,-1
64 192 m 1,72,-1
 128 192 l 1,73,-1
 128 128 l 1,74,-1
 64 128 l 1,75,-1
 64 192 l 1,72,-1
0 128 m 1,76,-1
 64 128 l 1,77,-1
 64 64 l 1,78,-1
 0 64 l 1,79,-1
 0 128 l 1,76,-1
64 128 m 1,80,-1
 128 128 l 1,81,-1
 128 64 l 1,82,-1
 64 64 l 1,83,-1
 64 128 l 1,80,-1
0 64 m 1,84,-1
 64 64 l 1,85,-1
 64 0 l 1,86,-1
 0 0 l 1,87,-1
 0 64 l 1,84,-1
64 64 m 1,88,-1
 128 64 l 1,89,-1
 128 0 l 1,90,-1
 64 0 l 1,91,-1
 64 64 l 1,88,-1
128 64 m 1,92,-1
 192 64 l 1,93,-1
 192 0 l 1,94,-1
 128 0 l 1,95,-1
 128 64 l 1,92,-1
64 0 m 1,96,-1
 128 0 l 1,97,-1
 128 -64 l 1,98,-1
 64 -64 l 1,99,-1
 64 0 l 1,96,-1
128 0 m 1,100,-1
 192 0 l 1,101,-1
 192 -64 l 1,102,-1
 128 -64 l 1,103,-1
 128 0 l 1,100,-1
EndSplineSet
EndChar

StartChar: parenright
Encoding: 41 41 11
Width: 320
GlyphClass: 1
Flags: W
LayerCount: 2
Fore
SplineSet
0 704 m 1,0,-1
 64 704 l 1,1,-1
 64 640 l 1,2,-1
 0 640 l 1,3,-1
 0 704 l 1,0,-1
64 704 m 1,4,-1
 128 704 l 1,5,-1
 128 640 l 1,6,-1
 64 640 l 1,7,-1
 64 704 l 1,4,-1
0 640 m 1,8,-1
 64 640 l 1,9,-1
 64 576 l 1,10,-1
 0 576 l 1,11,-1
 0 640 l 1,8,-1
64 640 m 1,12,-1
 128 640 l 1,13,-1
 128 576 l 1,14,-1
 64 576 l 1,15,-1
 64 640 l 1,12,-1
128 640 m 1,16,-1
 192 640 l 1,17,-1
 192 576 l 1,18,-1
 128 576 l 1,19,-1
 128 640 l 1,16,-1
64 576 m 1,20,-1
 128 576 l 1,21,-1
 128 512 l 1,22,-1
 64 512 l 1,23,-1
 64 576 l 1,20,-1
128 576 m 1,24,-1
 192 576 l 1,25,-1
 192 512 l 1,26,-1
 128 512 l 1,27,-1
 128 576 l 1,24,-1
64 512 m 1,28,-1
 128 512 l 1,29,-1
 128 448 l 1,30,-1
 64 448 l 1,31,-1
 64 512 l 1,28,-1
128 512 m 1,32,-1
 192 512 l 1,33,-1
 192 448 l 1,34,-1
 128 448 l 1,35,-1
 128 512 l 1,32,-1
64 448 m 1,36,-1
 128 448 l 1,37,-1
 128 384 l 1,38,-1
 64 384 l 1,39,-1
 64 448 l 1,36,-1
128 448 m 1,40,-1
 192 448 l 1,41,-1
 192 384 l 1,42,-1
 128 384 l 1,43,-1
 128 448 l 1,40,-1
64 384 m 1,44,-1
 128 384 l 1,45,-1
 128 320 l 1,46,-1
 64 320 l 1,47,-1
 64 384 l 1,44,-1
128 384 m 1,48,-1
 192 384 l 1,49,-1
 192 320 l 1,50,-1
 128 320 l 1,51,-1
 128 384 l 1,48,-1
64 320 m 1,52,-1
 128 320 l 1,53,-1
 128 256 l 1,54,-1
 64 256 l 1,55,-1
 64 320 l 1,52,-1
128 320 m 1,56,-1
 192 320 l 1,57,-1
 192 256 l 1,58,-1
 128 256 l 1,59,-1
 128 320 l 1,56,-1
64 256 m 1,60,-1
 128 256 l 1,61,-1
 128 192 l 1,62,-1
 64 192 l 1,63,-1
 64 256 l 1,60,-1
128 256 m 1,64,-1
 192 256 l 1,65,-1
 192 192 l 1,66,-1
 128 192 l 1,67,-1
 128 256 l 1,64,-1
64 192 m 1,68,-1
 128 192 l 1,69,-1
 128 128 l 1,70,-1
 64 128 l 1,71,-1
 64 192 l 1,68,-1
128 192 m 1,72,-1
 192 192 l 1,73,-1
 192 128 l 1,74,-1
 128 128 l 1,75,-1
 128 192 l 1,72,-1
64 128 m 1,76,-1
 128 128 l 1,77,-1
 128 64 l 1,78,-1
 64 64 l 1,79,-1
 64 128 l 1,76,-1
128 128 m 1,80,-1
 192 128 l 1,81,-1
 192 64 l 1,82,-1
 128 64 l 1,83,-1
 128 128 l 1,80,-1
0 64 m 1,84,-1
 64 64 l 1,85,-1
 64 0 l 1,86,-1
 0 0 l 1,87,-1
 0 64 l 1,84,-1
64 64 m 1,88,-1
 128 64 l 1,89,-1
 128 0 l 1,90,-1
 64 0 l 1,91,-1
 64 64 l 1,88,-1
128 64 m 1,92,-1
 192 64 l 1,93,-1
 192 0 l 1,94,-1
 128 0 l 1,95,-1
 128 64 l 1,92,-1
0 0 m 1,96,-1
 64 0 l 1,97,-1
 64 -64 l 1,98,-1
 0 -64 l 1,99,-1
 0 0 l 1,96,-1
64 0 m 1,100,-1
 128 0 l 1,101,-1
 128 -64 l 1,102,-1
 64 -64 l 1,103,-1
 64 0 l 1,100,-1
EndSplineSet
EndChar

StartChar: asterisk
Encoding: 42 42 12
Width: 448
GlyphClass: 1
Flags: W
LayerCount: 2
Fore
SplineSet
0 768 m 1,0,-1
 64 768 l 1,1,-1
 64 704 l 1,2,-1
 0 704 l 1,3,-1
 0 768 l 1,0,-1
128 768 m 1,4,-1
 192 768 l 1,5,-1
 192 704 l 1,6,-1
 128 704 l 1,7,-1
 128 768 l 1,4,-1
256 768 m 1,8,-1
 320 768 l 1,9,-1
 320 704 l 1,10,-1
 256 704 l 1,11,-1
 256 768 l 1,8,-1
64 704 m 1,12,-1
 128 704 l 1,13,-1
 128 640 l 1,14,-1
 64 640 l 1,15,-1
 64 704 l 1,12,-1
128 704 m 1,16,-1
 192 704 l 1,17,-1
 192 640 l 1,18,-1
 128 640 l 1,19,-1
 128 704 l 1,16,-1
192 704 m 1,20,-1
 256 704 l 1,21,-1
 256 640 l 1,22,-1
 192 640 l 1,23,-1
 192 704 l 1,20,-1
0 640 m 1,24,-1
 64 640 l 1,25,-1
 64 576 l 1,26,-1
 0 576 l 1,27,-1
 0 640 l 1,24,-1
64 640 m 1,28,-1
 128 640 l 1,29,-1
 128 576 l 1,30,-1
 64 576 l 1,31,-1
 64 640 l 1,28,-1
128 640 m 1,32,-1
 192 640 l 1,33,-1
 192 576 l 1,34,-1
 128 576 l 1,35,-1
 128 640 l 1,32,-1
192 640 m 1,36,-1
 256 640 l 1,37,-1
 256 576 l 1,38,-1
 192 576 l 1,39,-1
 192 640 l 1,36,-1
256 640 m 1,40,-1
 320 640 l 1,41,-1
 320 576 l 1,42,-1
 256 576 l 1,43,-1
 256 640 l 1,40,-1
64 576 m 1,44,-1
 128 576 l 1,45,-1
 128 512 l 1,46,-1
 64 512 l 1,47,-1
 64 576 l 1,44,-1
128 576 m 1,48,-1
 192 576 l 1,49,-1
 192 512 l 1,50,-1
 128 512 l 1,51,-1
 128 576 l 1,48,-1
192 576 m 1,52,-1
 256 576 l 1,53,-1
 256 512 l 1,54,-1
 192 512 l 1,55,-1
 192 576 l 1,52,-1
0 512 m 1,56,-1
 64 512 l 1,57,-1
 64 448 l 1,58,-1
 0 448 l 1,59,-1
 0 512 l 1,56,-1
128 512 m 1,60,-1
 192 512 l 1,61,-1
 192 448 l 1,62,-1
 128 448 l 1,63,-1
 128 512 l 1,60,-1
256 512 m 1,64,-1
 320 512 l 1,65,-1
 320 448 l 1,66,-1
 256 448 l 1,67,-1
 256 512 l 1,64,-1
EndSplineSet
EndChar

StartChar: plus
Encoding: 43 43 13
Width: 512
GlyphClass: 1
Flags: W
LayerCount: 2
Fore
SplineSet
128 448 m 1,0,-1
 192 448 l 1,1,-1
 192 384 l 1,2,-1
 128 384 l 1,3,-1
 128 448 l 1,0,-1
192 448 m 1,4,-1
 256 448 l 1,5,-1
 256 384 l 1,6,-1
 192 384 l 1,7,-1
 192 448 l 1,4,-1
128 384 m 1,8,-1
 192 384 l 1,9,-1
 192 320 l 1,10,-1
 128 320 l 1,11,-1
 128 384 l 1,8,-1
192 384 m 1,12,-1
 256 384 l 1,13,-1
 256 320 l 1,14,-1
 192 320 l 1,15,-1
 192 384 l 1,12,-1
0 320 m 1,16,-1
 64 320 l 1,17,-1
 64 256 l 1,18,-1
 0 256 l 1,19,-1
 0 320 l 1,16,-1
64 320 m 1,20,-1
 128 320 l 1,21,-1
 128 256 l 1,22,-1
 64 256 l 1,23,-1
 64 320 l 1,20,-1
128 320 m 1,24,-1
 192 320 l 1,25,-1
 192 256 l 1,26,-1
 128 256 l 1,27,-1
 128 320 l 1,24,-1
192 320 m 1,28,-1
 256 320 l 1,29,-1
 256 256 l 1,30,-1
 192 256 l 1,31,-1
 192 320 l 1,28,-1
256 320 m 1,32,-1
 320 320 l 1,33,-1
 320 256 l 1,34,-1
 256 256 l 1,35,-1
 256 320 l 1,32,-1
320 320 m 1,36,-1
 384 320 l 1,37,-1
 384 256 l 1,38,-1
 320 256 l 1,39,-1
 320 320 l 1,36,-1
0 256 m 1,40,-1
 64 256 l 1,41,-1
 64 192 l 1,42,-1
 0 192 l 1,43,-1
 0 256 l 1,40,-1
64 256 m 1,44,-1
 128 256 l 1,45,-1
 128 192 l 1,46,-1
 64 192 l 1,47,-1
 64 256 l 1,44,-1
128 256 m 1,48,-1
 192 256 l 1,49,-1
 192 192 l 1,50,-1
 128 192 l 1,51,-1
 128 256 l 1,48,-1
192 256 m 1,52,-1
 256 256 l 1,53,-1
 256 192 l 1,54,-1
 192 192 l 1,55,-1
 192 256 l 1,52,-1
256 256 m 1,56,-1
 320 256 l 1,57,-1
 320 192 l 1,58,-1
 256 192 l 1,59,-1
 256 256 l 1,56,-1
320 256 m 1,60,-1
 384 256 l 1,61,-1
 384 192 l 1,62,-1
 320 192 l 1,63,-1
 320 256 l 1,60,-1
128 192 m 1,64,-1
 192 192 l 1,65,-1
 192 128 l 1,66,-1
 128 128 l 1,67,-1
 128 192 l 1,64,-1
192 192 m 1,68,-1
 256 192 l 1,69,-1
 256 128 l 1,70,-1
 192 128 l 1,71,-1
 192 192 l 1,68,-1
128 128 m 1,72,-1
 192 128 l 1,73,-1
 192 64 l 1,74,-1
 128 64 l 1,75,-1
 128 128 l 1,72,-1
192 128 m 1,76,-1
 256 128 l 1,77,-1
 256 64 l 1,78,-1
 192 64 l 1,79,-1
 192 128 l 1,76,-1
EndSplineSet
EndChar

StartChar: comma
Encoding: 44 44 14
Width: 256
GlyphClass: 1
Flags: W
LayerCount: 2
Fore
SplineSet
0 128 m 1,0,-1
 64 128 l 1,1,-1
 64 64 l 1,2,-1
 0 64 l 1,3,-1
 0 128 l 1,0,-1
64 128 m 1,4,-1
 128 128 l 1,5,-1
 128 64 l 1,6,-1
 64 64 l 1,7,-1
 64 128 l 1,4,-1
0 64 m 1,8,-1
 64 64 l 1,9,-1
 64 0 l 1,10,-1
 0 0 l 1,11,-1
 0 64 l 1,8,-1
64 64 m 1,12,-1
 128 64 l 1,13,-1
 128 0 l 1,14,-1
 64 0 l 1,15,-1
 64 64 l 1,12,-1
64 0 m 1,16,-1
 128 0 l 1,17,-1
 128 -64 l 1,18,-1
 64 -64 l 1,19,-1
 64 0 l 1,16,-1
0 -64 m 1,20,-1
 64 -64 l 1,21,-1
 64 -128 l 1,22,-1
 0 -128 l 1,23,-1
 0 -64 l 1,20,-1
EndSplineSet
EndChar

StartChar: hyphen
Encoding: 45 45 15
Width: 512
GlyphClass: 1
Flags: W
LayerCount: 2
Fore
SplineSet
0 320 m 1,0,-1
 64 320 l 1,1,-1
 64 256 l 1,2,-1
 0 256 l 1,3,-1
 0 320 l 1,0,-1
64 320 m 1,4,-1
 128 320 l 1,5,-1
 128 256 l 1,6,-1
 64 256 l 1,7,-1
 64 320 l 1,4,-1
128 320 m 1,8,-1
 192 320 l 1,9,-1
 192 256 l 1,10,-1
 128 256 l 1,11,-1
 128 320 l 1,8,-1
192 320 m 1,12,-1
 256 320 l 1,13,-1
 256 256 l 1,14,-1
 192 256 l 1,15,-1
 192 320 l 1,12,-1
256 320 m 1,16,-1
 320 320 l 1,17,-1
 320 256 l 1,18,-1
 256 256 l 1,19,-1
 256 320 l 1,16,-1
320 320 m 1,20,-1
 384 320 l 1,21,-1
 384 256 l 1,22,-1
 320 256 l 1,23,-1
 320 320 l 1,20,-1
0 256 m 1,24,-1
 64 256 l 1,25,-1
 64 192 l 1,26,-1
 0 192 l 1,27,-1
 0 256 l 1,24,-1
64 256 m 1,28,-1
 128 256 l 1,29,-1
 128 192 l 1,30,-1
 64 192 l 1,31,-1
 64 256 l 1,28,-1
128 256 m 1,32,-1
 192 256 l 1,33,-1
 192 192 l 1,34,-1
 128 192 l 1,35,-1
 128 256 l 1,32,-1
192 256 m 1,36,-1
 256 256 l 1,37,-1
 256 192 l 1,38,-1
 192 192 l 1,39,-1
 192 256 l 1,36,-1
256 256 m 1,40,-1
 320 256 l 1,41,-1
 320 192 l 1,42,-1
 256 192 l 1,43,-1
 256 256 l 1,40,-1
320 256 m 1,44,-1
 384 256 l 1,45,-1
 384 192 l 1,46,-1
 320 192 l 1,47,-1
 320 256 l 1,44,-1
EndSplineSet
EndChar

StartChar: period
Encoding: 46 46 16
Width: 256
GlyphClass: 1
Flags: W
LayerCount: 2
Fore
SplineSet
0 128 m 1,0,-1
 64 128 l 1,1,-1
 64 64 l 1,2,-1
 0 64 l 1,3,-1
 0 128 l 1,0,-1
64 128 m 1,4,-1
 128 128 l 1,5,-1
 128 64 l 1,6,-1
 64 64 l 1,7,-1
 64 128 l 1,4,-1
0 64 m 1,8,-1
 64 64 l 1,9,-1
 64 0 l 1,10,-1
 0 0 l 1,11,-1
 0 64 l 1,8,-1
64 64 m 1,12,-1
 128 64 l 1,13,-1
 128 0 l 1,14,-1
 64 0 l 1,15,-1
 64 64 l 1,12,-1
EndSplineSet
EndChar

StartChar: slash
Encoding: 47 47 17
Width: 448
GlyphClass: 1
Flags: W
LayerCount: 2
Fore
SplineSet
192 768 m 1,0,-1
 256 768 l 1,1,-1
 256 704 l 1,2,-1
 192 704 l 1,3,-1
 192 768 l 1,0,-1
256 768 m 1,4,-1
 320 768 l 1,5,-1
 320 704 l 1,6,-1
 256 704 l 1,7,-1
 256 768 l 1,4,-1
192 704 m 1,8,-1
 256 704 l 1,9,-1
 256 640 l 1,10,-1
 192 640 l 1,11,-1
 192 704 l 1,8,-1
256 704 m 1,12,-1
 320 704 l 1,13,-1
 320 640 l 1,14,-1
 256 640 l 1,15,-1
 256 704 l 1,12,-1
192 640 m 1,16,-1
 256 640 l 1,17,-1
 256 576 l 1,18,-1
 192 576 l 1,19,-1
 192 640 l 1,16,-1
256 640 m 1,20,-1
 320 640 l 1,21,-1
 320 576 l 1,22,-1
 256 576 l 1,23,-1
 256 640 l 1,20,-1
128 576 m 1,24,-1
 192 576 l 1,25,-1
 192 512 l 1,26,-1
 128 512 l 1,27,-1
 128 576 l 1,24,-1
192 576 m 1,28,-1
 256 576 l 1,29,-1
 256 512 l 1,30,-1
 192 512 l 1,31,-1
 192 576 l 1,28,-1
256 576 m 1,32,-1
 320 576 l 1,33,-1
 320 512 l 1,34,-1
 256 512 l 1,35,-1
 256 576 l 1,32,-1
128 512 m 1,36,-1
 192 512 l 1,37,-1
 192 448 l 1,38,-1
 128 448 l 1,39,-1
 128 512 l 1,36,-1
192 512 m 1,40,-1
 256 512 l 1,41,-1
 256 448 l 1,42,-1
 192 448 l 1,43,-1
 192 512 l 1,40,-1
128 448 m 1,44,-1
 192 448 l 1,45,-1
 192 384 l 1,46,-1
 128 384 l 1,47,-1
 128 448 l 1,44,-1
192 448 m 1,48,-1
 256 448 l 1,49,-1
 256 384 l 1,50,-1
 192 384 l 1,51,-1
 192 448 l 1,48,-1
64 384 m 1,52,-1
 128 384 l 1,53,-1
 128 320 l 1,54,-1
 64 320 l 1,55,-1
 64 384 l 1,52,-1
128 384 m 1,56,-1
 192 384 l 1,57,-1
 192 320 l 1,58,-1
 128 320 l 1,59,-1
 128 384 l 1,56,-1
192 384 m 1,60,-1
 256 384 l 1,61,-1
 256 320 l 1,62,-1
 192 320 l 1,63,-1
 192 384 l 1,60,-1
64 320 m 1,64,-1
 128 320 l 1,65,-1
 128 256 l 1,66,-1
 64 256 l 1,67,-1
 64 320 l 1,64,-1
128 320 m 1,68,-1
 192 320 l 1,69,-1
 192 256 l 1,70,-1
 128 256 l 1,71,-1
 128 320 l 1,68,-1
64 256 m 1,72,-1
 128 256 l 1,73,-1
 128 192 l 1,74,-1
 64 192 l 1,75,-1
 64 256 l 1,72,-1
128 256 m 1,76,-1
 192 256 l 1,77,-1
 192 192 l 1,78,-1
 128 192 l 1,79,-1
 128 256 l 1,76,-1
0 192 m 1,80,-1
 64 192 l 1,81,-1
 64 128 l 1,82,-1
 0 128 l 1,83,-1
 0 192 l 1,80,-1
64 192 m 1,84,-1
 128 192 l 1,85,-1
 128 128 l 1,86,-1
 64 128 l 1,87,-1
 64 192 l 1,84,-1
128 192 m 1,88,-1
 192 192 l 1,89,-1
 192 128 l 1,90,-1
 128 128 l 1,91,-1
 128 192 l 1,88,-1
0 128 m 1,92,-1
 64 128 l 1,93,-1
 64 64 l 1,94,-1
 0 64 l 1,95,-1
 0 128 l 1,92,-1
64 128 m 1,96,-1
 128 128 l 1,97,-1
 128 64 l 1,98,-1
 64 64 l 1,99,-1
 64 128 l 1,96,-1
0 64 m 1,100,-1
 64 64 l 1,101,-1
 64 0 l 1,102,-1
 0 0 l 1,103,-1
 0 64 l 1,100,-1
64 64 m 1,104,-1
 128 64 l 1,105,-1
 128 0 l 1,106,-1
 64 0 l 1,107,-1
 64 64 l 1,104,-1
EndSplineSet
EndChar

StartChar: zero
Encoding: 48 48 18
Width: 512
GlyphClass: 1
Flags: W
LayerCount: 2
Fore
SplineSet
64 768 m 1,0,-1
 128 768 l 1,1,-1
 128 704 l 1,2,-1
 64 704 l 1,3,-1
 64 768 l 1,0,-1
128 768 m 1,4,-1
 192 768 l 1,5,-1
 192 704 l 1,6,-1
 128 704 l 1,7,-1
 128 768 l 1,4,-1
192 768 m 1,8,-1
 256 768 l 1,9,-1
 256 704 l 1,10,-1
 192 704 l 1,11,-1
 192 768 l 1,8,-1
256 768 m 1,12,-1
 320 768 l 1,13,-1
 320 704 l 1,14,-1
 256 704 l 1,15,-1
 256 768 l 1,12,-1
0 704 m 1,16,-1
 64 704 l 1,17,-1
 64 640 l 1,18,-1
 0 640 l 1,19,-1
 0 704 l 1,16,-1
64 704 m 1,20,-1
 128 704 l 1,21,-1
 128 640 l 1,22,-1
 64 640 l 1,23,-1
 64 704 l 1,20,-1
128 704 m 1,24,-1
 192 704 l 1,25,-1
 192 640 l 1,26,-1
 128 640 l 1,27,-1
 128 704 l 1,24,-1
192 704 m 1,28,-1
 256 704 l 1,29,-1
 256 640 l 1,30,-1
 192 640 l 1,31,-1
 192 704 l 1,28,-1
256 704 m 1,32,-1
 320 704 l 1,33,-1
 320 640 l 1,34,-1
 256 640 l 1,35,-1
 256 704 l 1,32,-1
320 704 m 1,36,-1
 384 704 l 1,37,-1
 384 640 l 1,38,-1
 320 640 l 1,39,-1
 320 704 l 1,36,-1
0 640 m 1,40,-1
 64 640 l 1,41,-1
 64 576 l 1,42,-1
 0 576 l 1,43,-1
 0 640 l 1,40,-1
64 640 m 1,44,-1
 128 640 l 1,45,-1
 128 576 l 1,46,-1
 64 576 l 1,47,-1
 64 640 l 1,44,-1
256 640 m 1,48,-1
 320 640 l 1,49,-1
 320 576 l 1,50,-1
 256 576 l 1,51,-1
 256 640 l 1,48,-1
320 640 m 1,52,-1
 384 640 l 1,53,-1
 384 576 l 1,54,-1
 320 576 l 1,55,-1
 320 640 l 1,52,-1
0 576 m 1,56,-1
 64 576 l 1,57,-1
 64 512 l 1,58,-1
 0 512 l 1,59,-1
 0 576 l 1,56,-1
64 576 m 1,60,-1
 128 576 l 1,61,-1
 128 512 l 1,62,-1
 64 512 l 1,63,-1
 64 576 l 1,60,-1
256 576 m 1,64,-1
 320 576 l 1,65,-1
 320 512 l 1,66,-1
 256 512 l 1,67,-1
 256 576 l 1,64,-1
320 576 m 1,68,-1
 384 576 l 1,69,-1
 384 512 l 1,70,-1
 320 512 l 1,71,-1
 320 576 l 1,68,-1
0 512 m 1,72,-1
 64 512 l 1,73,-1
 64 448 l 1,74,-1
 0 448 l 1,75,-1
 0 512 l 1,72,-1
64 512 m 1,76,-1
 128 512 l 1,77,-1
 128 448 l 1,78,-1
 64 448 l 1,79,-1
 64 512 l 1,76,-1
256 512 m 1,80,-1
 320 512 l 1,81,-1
 320 448 l 1,82,-1
 256 448 l 1,83,-1
 256 512 l 1,80,-1
320 512 m 1,84,-1
 384 512 l 1,85,-1
 384 448 l 1,86,-1
 320 448 l 1,87,-1
 320 512 l 1,84,-1
0 448 m 1,88,-1
 64 448 l 1,89,-1
 64 384 l 1,90,-1
 0 384 l 1,91,-1
 0 448 l 1,88,-1
64 448 m 1,92,-1
 128 448 l 1,93,-1
 128 384 l 1,94,-1
 64 384 l 1,95,-1
 64 448 l 1,92,-1
256 448 m 1,96,-1
 320 448 l 1,97,-1
 320 384 l 1,98,-1
 256 384 l 1,99,-1
 256 448 l 1,96,-1
320 448 m 1,100,-1
 384 448 l 1,101,-1
 384 384 l 1,102,-1
 320 384 l 1,103,-1
 320 448 l 1,100,-1
0 384 m 1,104,-1
 64 384 l 1,105,-1
 64 320 l 1,106,-1
 0 320 l 1,107,-1
 0 384 l 1,104,-1
64 384 m 1,108,-1
 128 384 l 1,109,-1
 128 320 l 1,110,-1
 64 320 l 1,111,-1
 64 384 l 1,108,-1
256 384 m 1,112,-1
 320 384 l 1,113,-1
 320 320 l 1,114,-1
 256 320 l 1,115,-1
 256 384 l 1,112,-1
320 384 m 1,116,-1
 384 384 l 1,117,-1
 384 320 l 1,118,-1
 320 320 l 1,119,-1
 320 384 l 1,116,-1
0 320 m 1,120,-1
 64 320 l 1,121,-1
 64 256 l 1,122,-1
 0 256 l 1,123,-1
 0 320 l 1,120,-1
64 320 m 1,124,-1
 128 320 l 1,125,-1
 128 256 l 1,126,-1
 64 256 l 1,127,-1
 64 320 l 1,124,-1
256 320 m 1,128,-1
 320 320 l 1,129,-1
 320 256 l 1,130,-1
 256 256 l 1,131,-1
 256 320 l 1,128,-1
320 320 m 1,132,-1
 384 320 l 1,133,-1
 384 256 l 1,134,-1
 320 256 l 1,135,-1
 320 320 l 1,132,-1
0 256 m 1,136,-1
 64 256 l 1,137,-1
 64 192 l 1,138,-1
 0 192 l 1,139,-1
 0 256 l 1,136,-1
64 256 m 1,140,-1
 128 256 l 1,141,-1
 128 192 l 1,142,-1
 64 192 l 1,143,-1
 64 256 l 1,140,-1
256 256 m 1,144,-1
 320 256 l 1,145,-1
 320 192 l 1,146,-1
 256 192 l 1,147,-1
 256 256 l 1,144,-1
320 256 m 1,148,-1
 384 256 l 1,149,-1
 384 192 l 1,150,-1
 320 192 l 1,151,-1
 320 256 l 1,148,-1
0 192 m 1,152,-1
 64 192 l 1,153,-1
 64 128 l 1,154,-1
 0 128 l 1,155,-1
 0 192 l 1,152,-1
64 192 m 1,156,-1
 128 192 l 1,157,-1
 128 128 l 1,158,-1
 64 128 l 1,159,-1
 64 192 l 1,156,-1
256 192 m 1,160,-1
 320 192 l 1,161,-1
 320 128 l 1,162,-1
 256 128 l 1,163,-1
 256 192 l 1,160,-1
320 192 m 1,164,-1
 384 192 l 1,165,-1
 384 128 l 1,166,-1
 320 128 l 1,167,-1
 320 192 l 1,164,-1
0 128 m 1,168,-1
 64 128 l 1,169,-1
 64 64 l 1,170,-1
 0 64 l 1,171,-1
 0 128 l 1,168,-1
64 128 m 1,172,-1
 128 128 l 1,173,-1
 128 64 l 1,174,-1
 64 64 l 1,175,-1
 64 128 l 1,172,-1
128 128 m 1,176,-1
 192 128 l 1,177,-1
 192 64 l 1,178,-1
 128 64 l 1,179,-1
 128 128 l 1,176,-1
192 128 m 1,180,-1
 256 128 l 1,181,-1
 256 64 l 1,182,-1
 192 64 l 1,183,-1
 192 128 l 1,180,-1
256 128 m 1,184,-1
 320 128 l 1,185,-1
 320 64 l 1,186,-1
 256 64 l 1,187,-1
 256 128 l 1,184,-1
320 128 m 1,188,-1
 384 128 l 1,189,-1
 384 64 l 1,190,-1
 320 64 l 1,191,-1
 320 128 l 1,188,-1
64 64 m 1,192,-1
 128 64 l 1,193,-1
 128 0 l 1,194,-1
 64 0 l 1,195,-1
 64 64 l 1,192,-1
128 64 m 1,196,-1
 192 64 l 1,197,-1
 192 0 l 1,198,-1
 128 0 l 1,199,-1
 128 64 l 1,196,-1
192 64 m 1,200,-1
 256 64 l 1,201,-1
 256 0 l 1,202,-1
 192 0 l 1,203,-1
 192 64 l 1,200,-1
256 64 m 1,204,-1
 320 64 l 1,205,-1
 320 0 l 1,206,-1
 256 0 l 1,207,-1
 256 64 l 1,204,-1
EndSplineSet
EndChar

StartChar: one
Encoding: 49 49 19
Width: 512
GlyphClass: 1
Flags: W
LayerCount: 2
Fore
SplineSet
256 768 m 1,0,-1
 320 768 l 1,1,-1
 320 704 l 1,2,-1
 256 704 l 1,3,-1
 256 768 l 1,0,-1
320 768 m 1,4,-1
 384 768 l 1,5,-1
 384 704 l 1,6,-1
 320 704 l 1,7,-1
 320 768 l 1,4,-1
192 704 m 1,8,-1
 256 704 l 1,9,-1
 256 640 l 1,10,-1
 192 640 l 1,11,-1
 192 704 l 1,8,-1
256 704 m 1,12,-1
 320 704 l 1,13,-1
 320 640 l 1,14,-1
 256 640 l 1,15,-1
 256 704 l 1,12,-1
320 704 m 1,16,-1
 384 704 l 1,17,-1
 384 640 l 1,18,-1
 320 640 l 1,19,-1
 320 704 l 1,16,-1
128 640 m 1,20,-1
 192 640 l 1,21,-1
 192 576 l 1,22,-1
 128 576 l 1,23,-1
 128 640 l 1,20,-1
192 640 m 1,24,-1
 256 640 l 1,25,-1
 256 576 l 1,26,-1
 192 576 l 1,27,-1
 192 640 l 1,24,-1
256 640 m 1,28,-1
 320 640 l 1,29,-1
 320 576 l 1,30,-1
 256 576 l 1,31,-1
 256 640 l 1,28,-1
320 640 m 1,32,-1
 384 640 l 1,33,-1
 384 576 l 1,34,-1
 320 576 l 1,35,-1
 320 640 l 1,32,-1
64 576 m 1,36,-1
 128 576 l 1,37,-1
 128 512 l 1,38,-1
 64 512 l 1,39,-1
 64 576 l 1,36,-1
128 576 m 1,40,-1
 192 576 l 1,41,-1
 192 512 l 1,42,-1
 128 512 l 1,43,-1
 128 576 l 1,40,-1
192 576 m 1,44,-1
 256 576 l 1,45,-1
 256 512 l 1,46,-1
 192 512 l 1,47,-1
 192 576 l 1,44,-1
256 576 m 1,48,-1
 320 576 l 1,49,-1
 320 512 l 1,50,-1
 256 512 l 1,51,-1
 256 576 l 1,48,-1
320 576 m 1,52,-1
 384 576 l 1,53,-1
 384 512 l 1,54,-1
 320 512 l 1,55,-1
 320 576 l 1,52,-1
0 512 m 1,56,-1
 64 512 l 1,57,-1
 64 448 l 1,58,-1
 0 448 l 1,59,-1
 0 512 l 1,56,-1
64 512 m 1,60,-1
 128 512 l 1,61,-1
 128 448 l 1,62,-1
 64 448 l 1,63,-1
 64 512 l 1,60,-1
128 512 m 1,64,-1
 192 512 l 1,65,-1
 192 448 l 1,66,-1
 128 448 l 1,67,-1
 128 512 l 1,64,-1
256 512 m 1,68,-1
 320 512 l 1,69,-1
 320 448 l 1,70,-1
 256 448 l 1,71,-1
 256 512 l 1,68,-1
320 512 m 1,72,-1
 384 512 l 1,73,-1
 384 448 l 1,74,-1
 320 448 l 1,75,-1
 320 512 l 1,72,-1
0 448 m 1,76,-1
 64 448 l 1,77,-1
 64 384 l 1,78,-1
 0 384 l 1,79,-1
 0 448 l 1,76,-1
64 448 m 1,80,-1
 128 448 l 1,81,-1
 128 384 l 1,82,-1
 64 384 l 1,83,-1
 64 448 l 1,80,-1
256 448 m 1,84,-1
 320 448 l 1,85,-1
 320 384 l 1,86,-1
 256 384 l 1,87,-1
 256 448 l 1,84,-1
320 448 m 1,88,-1
 384 448 l 1,89,-1
 384 384 l 1,90,-1
 320 384 l 1,91,-1
 320 448 l 1,88,-1
256 384 m 1,92,-1
 320 384 l 1,93,-1
 320 320 l 1,94,-1
 256 320 l 1,95,-1
 256 384 l 1,92,-1
320 384 m 1,96,-1
 384 384 l 1,97,-1
 384 320 l 1,98,-1
 320 320 l 1,99,-1
 320 384 l 1,96,-1
256 320 m 1,100,-1
 320 320 l 1,101,-1
 320 256 l 1,102,-1
 256 256 l 1,103,-1
 256 320 l 1,100,-1
320 320 m 1,104,-1
 384 320 l 1,105,-1
 384 256 l 1,106,-1
 320 256 l 1,107,-1
 320 320 l 1,104,-1
256 256 m 1,108,-1
 320 256 l 1,109,-1
 320 192 l 1,110,-1
 256 192 l 1,111,-1
 256 256 l 1,108,-1
320 256 m 1,112,-1
 384 256 l 1,113,-1
 384 192 l 1,114,-1
 320 192 l 1,115,-1
 320 256 l 1,112,-1
256 192 m 1,116,-1
 320 192 l 1,117,-1
 320 128 l 1,118,-1
 256 128 l 1,119,-1
 256 192 l 1,116,-1
320 192 m 1,120,-1
 384 192 l 1,121,-1
 384 128 l 1,122,-1
 320 128 l 1,123,-1
 320 192 l 1,120,-1
256 128 m 1,124,-1
 320 128 l 1,125,-1
 320 64 l 1,126,-1
 256 64 l 1,127,-1
 256 128 l 1,124,-1
320 128 m 1,128,-1
 384 128 l 1,129,-1
 384 64 l 1,130,-1
 320 64 l 1,131,-1
 320 128 l 1,128,-1
256 64 m 1,132,-1
 320 64 l 1,133,-1
 320 0 l 1,134,-1
 256 0 l 1,135,-1
 256 64 l 1,132,-1
320 64 m 1,136,-1
 384 64 l 1,137,-1
 384 0 l 1,138,-1
 320 0 l 1,139,-1
 320 64 l 1,136,-1
EndSplineSet
EndChar

StartChar: two
Encoding: 50 50 20
Width: 512
GlyphClass: 1
Flags: W
LayerCount: 2
Fore
SplineSet
64 768 m 1,0,-1
 128 768 l 1,1,-1
 128 704 l 1,2,-1
 64 704 l 1,3,-1
 64 768 l 1,0,-1
128 768 m 1,4,-1
 192 768 l 1,5,-1
 192 704 l 1,6,-1
 128 704 l 1,7,-1
 128 768 l 1,4,-1
192 768 m 1,8,-1
 256 768 l 1,9,-1
 256 704 l 1,10,-1
 192 704 l 1,11,-1
 192 768 l 1,8,-1
256 768 m 1,12,-1
 320 768 l 1,13,-1
 320 704 l 1,14,-1
 256 704 l 1,15,-1
 256 768 l 1,12,-1
0 704 m 1,16,-1
 64 704 l 1,17,-1
 64 640 l 1,18,-1
 0 640 l 1,19,-1
 0 704 l 1,16,-1
64 704 m 1,20,-1
 128 704 l 1,21,-1
 128 640 l 1,22,-1
 64 640 l 1,23,-1
 64 704 l 1,20,-1
128 704 m 1,24,-1
 192 704 l 1,25,-1
 192 640 l 1,26,-1
 128 640 l 1,27,-1
 128 704 l 1,24,-1
192 704 m 1,28,-1
 256 704 l 1,29,-1
 256 640 l 1,30,-1
 192 640 l 1,31,-1
 192 704 l 1,28,-1
256 704 m 1,32,-1
 320 704 l 1,33,-1
 320 640 l 1,34,-1
 256 640 l 1,35,-1
 256 704 l 1,32,-1
320 704 m 1,36,-1
 384 704 l 1,37,-1
 384 640 l 1,38,-1
 320 640 l 1,39,-1
 320 704 l 1,36,-1
0 640 m 1,40,-1
 64 640 l 1,41,-1
 64 576 l 1,42,-1
 0 576 l 1,43,-1
 0 640 l 1,40,-1
64 640 m 1,44,-1
 128 640 l 1,45,-1
 128 576 l 1,46,-1
 64 576 l 1,47,-1
 64 640 l 1,44,-1
256 640 m 1,48,-1
 320 640 l 1,49,-1
 320 576 l 1,50,-1
 256 576 l 1,51,-1
 256 640 l 1,48,-1
320 640 m 1,52,-1
 384 640 l 1,53,-1
 384 576 l 1,54,-1
 320 576 l 1,55,-1
 320 640 l 1,52,-1
0 576 m 1,56,-1
 64 576 l 1,57,-1
 64 512 l 1,58,-1
 0 512 l 1,59,-1
 0 576 l 1,56,-1
64 576 m 1,60,-1
 128 576 l 1,61,-1
 128 512 l 1,62,-1
 64 512 l 1,63,-1
 64 576 l 1,60,-1
256 576 m 1,64,-1
 320 576 l 1,65,-1
 320 512 l 1,66,-1
 256 512 l 1,67,-1
 256 576 l 1,64,-1
320 576 m 1,68,-1
 384 576 l 1,69,-1
 384 512 l 1,70,-1
 320 512 l 1,71,-1
 320 576 l 1,68,-1
256 512 m 1,72,-1
 320 512 l 1,73,-1
 320 448 l 1,74,-1
 256 448 l 1,75,-1
 256 512 l 1,72,-1
320 512 m 1,76,-1
 384 512 l 1,77,-1
 384 448 l 1,78,-1
 320 448 l 1,79,-1
 320 512 l 1,76,-1
192 448 m 1,80,-1
 256 448 l 1,81,-1
 256 384 l 1,82,-1
 192 384 l 1,83,-1
 192 448 l 1,80,-1
256 448 m 1,84,-1
 320 448 l 1,85,-1
 320 384 l 1,86,-1
 256 384 l 1,87,-1
 256 448 l 1,84,-1
320 448 m 1,88,-1
 384 448 l 1,89,-1
 384 384 l 1,90,-1
 320 384 l 1,91,-1
 320 448 l 1,88,-1
128 384 m 1,92,-1
 192 384 l 1,93,-1
 192 320 l 1,94,-1
 128 320 l 1,95,-1
 128 384 l 1,92,-1
192 384 m 1,96,-1
 256 384 l 1,97,-1
 256 320 l 1,98,-1
 192 320 l 1,99,-1
 192 384 l 1,96,-1
256 384 m 1,100,-1
 320 384 l 1,101,-1
 320 320 l 1,102,-1
 256 320 l 1,103,-1
 256 384 l 1,100,-1
64 320 m 1,104,-1
 128 320 l 1,105,-1
 128 256 l 1,106,-1
 64 256 l 1,107,-1
 64 320 l 1,104,-1
128 320 m 1,108,-1
 192 320 l 1,109,-1
 192 256 l 1,110,-1
 128 256 l 1,111,-1
 128 320 l 1,108,-1
192 320 m 1,112,-1
 256 320 l 1,113,-1
 256 256 l 1,114,-1
 192 256 l 1,115,-1
 192 320 l 1,112,-1
0 256 m 1,116,-1
 64 256 l 1,117,-1
 64 192 l 1,118,-1
 0 192 l 1,119,-1
 0 256 l 1,116,-1
64 256 m 1,120,-1
 128 256 l 1,121,-1
 128 192 l 1,122,-1
 64 192 l 1,123,-1
 64 256 l 1,120,-1
128 256 m 1,124,-1
 192 256 l 1,125,-1
 192 192 l 1,126,-1
 128 192 l 1,127,-1
 128 256 l 1,124,-1
0 192 m 1,128,-1
 64 192 l 1,129,-1
 64 128 l 1,130,-1
 0 128 l 1,131,-1
 0 192 l 1,128,-1
64 192 m 1,132,-1
 128 192 l 1,133,-1
 128 128 l 1,134,-1
 64 128 l 1,135,-1
 64 192 l 1,132,-1
0 128 m 1,136,-1
 64 128 l 1,137,-1
 64 64 l 1,138,-1
 0 64 l 1,139,-1
 0 128 l 1,136,-1
64 128 m 1,140,-1
 128 128 l 1,141,-1
 128 64 l 1,142,-1
 64 64 l 1,143,-1
 64 128 l 1,140,-1
128 128 m 1,144,-1
 192 128 l 1,145,-1
 192 64 l 1,146,-1
 128 64 l 1,147,-1
 128 128 l 1,144,-1
192 128 m 1,148,-1
 256 128 l 1,149,-1
 256 64 l 1,150,-1
 192 64 l 1,151,-1
 192 128 l 1,148,-1
256 128 m 1,152,-1
 320 128 l 1,153,-1
 320 64 l 1,154,-1
 256 64 l 1,155,-1
 256 128 l 1,152,-1
320 128 m 1,156,-1
 384 128 l 1,157,-1
 384 64 l 1,158,-1
 320 64 l 1,159,-1
 320 128 l 1,156,-1
0 64 m 1,160,-1
 64 64 l 1,161,-1
 64 0 l 1,162,-1
 0 0 l 1,163,-1
 0 64 l 1,160,-1
64 64 m 1,164,-1
 128 64 l 1,165,-1
 128 0 l 1,166,-1
 64 0 l 1,167,-1
 64 64 l 1,164,-1
128 64 m 1,168,-1
 192 64 l 1,169,-1
 192 0 l 1,170,-1
 128 0 l 1,171,-1
 128 64 l 1,168,-1
192 64 m 1,172,-1
 256 64 l 1,173,-1
 256 0 l 1,174,-1
 192 0 l 1,175,-1
 192 64 l 1,172,-1
256 64 m 1,176,-1
 320 64 l 1,177,-1
 320 0 l 1,178,-1
 256 0 l 1,179,-1
 256 64 l 1,176,-1
320 64 m 1,180,-1
 384 64 l 1,181,-1
 384 0 l 1,182,-1
 320 0 l 1,183,-1
 320 64 l 1,180,-1
EndSplineSet
EndChar

StartChar: three
Encoding: 51 51 21
Width: 512
GlyphClass: 1
Flags: W
LayerCount: 2
Fore
SplineSet
0 768 m 1,0,-1
 64 768 l 1,1,-1
 64 704 l 1,2,-1
 0 704 l 1,3,-1
 0 768 l 1,0,-1
64 768 m 1,4,-1
 128 768 l 1,5,-1
 128 704 l 1,6,-1
 64 704 l 1,7,-1
 64 768 l 1,4,-1
128 768 m 1,8,-1
 192 768 l 1,9,-1
 192 704 l 1,10,-1
 128 704 l 1,11,-1
 128 768 l 1,8,-1
192 768 m 1,12,-1
 256 768 l 1,13,-1
 256 704 l 1,14,-1
 192 704 l 1,15,-1
 192 768 l 1,12,-1
256 768 m 1,16,-1
 320 768 l 1,17,-1
 320 704 l 1,18,-1
 256 704 l 1,19,-1
 256 768 l 1,16,-1
0 704 m 1,20,-1
 64 704 l 1,21,-1
 64 640 l 1,22,-1
 0 640 l 1,23,-1
 0 704 l 1,20,-1
64 704 m 1,24,-1
 128 704 l 1,25,-1
 128 640 l 1,26,-1
 64 640 l 1,27,-1
 64 704 l 1,24,-1
128 704 m 1,28,-1
 192 704 l 1,29,-1
 192 640 l 1,30,-1
 128 640 l 1,31,-1
 128 704 l 1,28,-1
192 704 m 1,32,-1
 256 704 l 1,33,-1
 256 640 l 1,34,-1
 192 640 l 1,35,-1
 192 704 l 1,32,-1
256 704 m 1,36,-1
 320 704 l 1,37,-1
 320 640 l 1,38,-1
 256 640 l 1,39,-1
 256 704 l 1,36,-1
320 704 m 1,40,-1
 384 704 l 1,41,-1
 384 640 l 1,42,-1
 320 640 l 1,43,-1
 320 704 l 1,40,-1
192 640 m 1,44,-1
 256 640 l 1,45,-1
 256 576 l 1,46,-1
 192 576 l 1,47,-1
 192 640 l 1,44,-1
256 640 m 1,48,-1
 320 640 l 1,49,-1
 320 576 l 1,50,-1
 256 576 l 1,51,-1
 256 640 l 1,48,-1
320 640 m 1,52,-1
 384 640 l 1,53,-1
 384 576 l 1,54,-1
 320 576 l 1,55,-1
 320 640 l 1,52,-1
192 576 m 1,56,-1
 256 576 l 1,57,-1
 256 512 l 1,58,-1
 192 512 l 1,59,-1
 192 576 l 1,56,-1
256 576 m 1,60,-1
 320 576 l 1,61,-1
 320 512 l 1,62,-1
 256 512 l 1,63,-1
 256 576 l 1,60,-1
320 576 m 1,64,-1
 384 576 l 1,65,-1
 384 512 l 1,66,-1
 320 512 l 1,67,-1
 320 576 l 1,64,-1
192 512 m 1,68,-1
 256 512 l 1,69,-1
 256 448 l 1,70,-1
 192 448 l 1,71,-1
 192 512 l 1,68,-1
256 512 m 1,72,-1
 320 512 l 1,73,-1
 320 448 l 1,74,-1
 256 448 l 1,75,-1
 256 512 l 1,72,-1
320 512 m 1,76,-1
 384 512 l 1,77,-1
 384 448 l 1,78,-1
 320 448 l 1,79,-1
 320 512 l 1,76,-1
0 448 m 1,80,-1
 64 448 l 1,81,-1
 64 384 l 1,82,-1
 0 384 l 1,83,-1
 0 448 l 1,80,-1
64 448 m 1,84,-1
 128 448 l 1,85,-1
 128 384 l 1,86,-1
 64 384 l 1,87,-1
 64 448 l 1,84,-1
128 448 m 1,88,-1
 192 448 l 1,89,-1
 192 384 l 1,90,-1
 128 384 l 1,91,-1
 128 448 l 1,88,-1
192 448 m 1,92,-1
 256 448 l 1,93,-1
 256 384 l 1,94,-1
 192 384 l 1,95,-1
 192 448 l 1,92,-1
256 448 m 1,96,-1
 320 448 l 1,97,-1
 320 384 l 1,98,-1
 256 384 l 1,99,-1
 256 448 l 1,96,-1
320 448 m 1,100,-1
 384 448 l 1,101,-1
 384 384 l 1,102,-1
 320 384 l 1,103,-1
 320 448 l 1,100,-1
0 384 m 1,104,-1
 64 384 l 1,105,-1
 64 320 l 1,106,-1
 0 320 l 1,107,-1
 0 384 l 1,104,-1
64 384 m 1,108,-1
 128 384 l 1,109,-1
 128 320 l 1,110,-1
 64 320 l 1,111,-1
 64 384 l 1,108,-1
128 384 m 1,112,-1
 192 384 l 1,113,-1
 192 320 l 1,114,-1
 128 320 l 1,115,-1
 128 384 l 1,112,-1
192 384 m 1,116,-1
 256 384 l 1,117,-1
 256 320 l 1,118,-1
 192 320 l 1,119,-1
 192 384 l 1,116,-1
256 384 m 1,120,-1
 320 384 l 1,121,-1
 320 320 l 1,122,-1
 256 320 l 1,123,-1
 256 384 l 1,120,-1
320 384 m 1,124,-1
 384 384 l 1,125,-1
 384 320 l 1,126,-1
 320 320 l 1,127,-1
 320 384 l 1,124,-1
192 320 m 1,128,-1
 256 320 l 1,129,-1
 256 256 l 1,130,-1
 192 256 l 1,131,-1
 192 320 l 1,128,-1
256 320 m 1,132,-1
 320 320 l 1,133,-1
 320 256 l 1,134,-1
 256 256 l 1,135,-1
 256 320 l 1,132,-1
320 320 m 1,136,-1
 384 320 l 1,137,-1
 384 256 l 1,138,-1
 320 256 l 1,139,-1
 320 320 l 1,136,-1
192 256 m 1,140,-1
 256 256 l 1,141,-1
 256 192 l 1,142,-1
 192 192 l 1,143,-1
 192 256 l 1,140,-1
256 256 m 1,144,-1
 320 256 l 1,145,-1
 320 192 l 1,146,-1
 256 192 l 1,147,-1
 256 256 l 1,144,-1
320 256 m 1,148,-1
 384 256 l 1,149,-1
 384 192 l 1,150,-1
 320 192 l 1,151,-1
 320 256 l 1,148,-1
192 192 m 1,152,-1
 256 192 l 1,153,-1
 256 128 l 1,154,-1
 192 128 l 1,155,-1
 192 192 l 1,152,-1
256 192 m 1,156,-1
 320 192 l 1,157,-1
 320 128 l 1,158,-1
 256 128 l 1,159,-1
 256 192 l 1,156,-1
320 192 m 1,160,-1
 384 192 l 1,161,-1
 384 128 l 1,162,-1
 320 128 l 1,163,-1
 320 192 l 1,160,-1
0 128 m 1,164,-1
 64 128 l 1,165,-1
 64 64 l 1,166,-1
 0 64 l 1,167,-1
 0 128 l 1,164,-1
64 128 m 1,168,-1
 128 128 l 1,169,-1
 128 64 l 1,170,-1
 64 64 l 1,171,-1
 64 128 l 1,168,-1
128 128 m 1,172,-1
 192 128 l 1,173,-1
 192 64 l 1,174,-1
 128 64 l 1,175,-1
 128 128 l 1,172,-1
192 128 m 1,176,-1
 256 128 l 1,177,-1
 256 64 l 1,178,-1
 192 64 l 1,179,-1
 192 128 l 1,176,-1
256 128 m 1,180,-1
 320 128 l 1,181,-1
 320 64 l 1,182,-1
 256 64 l 1,183,-1
 256 128 l 1,180,-1
320 128 m 1,184,-1
 384 128 l 1,185,-1
 384 64 l 1,186,-1
 320 64 l 1,187,-1
 320 128 l 1,184,-1
0 64 m 1,188,-1
 64 64 l 1,189,-1
 64 0 l 1,190,-1
 0 0 l 1,191,-1
 0 64 l 1,188,-1
64 64 m 1,192,-1
 128 64 l 1,193,-1
 128 0 l 1,194,-1
 64 0 l 1,195,-1
 64 64 l 1,192,-1
128 64 m 1,196,-1
 192 64 l 1,197,-1
 192 0 l 1,198,-1
 128 0 l 1,199,-1
 128 64 l 1,196,-1
192 64 m 1,200,-1
 256 64 l 1,201,-1
 256 0 l 1,202,-1
 192 0 l 1,203,-1
 192 64 l 1,200,-1
256 64 m 1,204,-1
 320 64 l 1,205,-1
 320 0 l 1,206,-1
 256 0 l 1,207,-1
 256 64 l 1,204,-1
EndSplineSet
EndChar

StartChar: four
Encoding: 52 52 22
Width: 512
GlyphClass: 1
Flags: W
LayerCount: 2
Fore
SplineSet
64 768 m 1,0,-1
 128 768 l 1,1,-1
 128 704 l 1,2,-1
 64 704 l 1,3,-1
 64 768 l 1,0,-1
128 768 m 1,4,-1
 192 768 l 1,5,-1
 192 704 l 1,6,-1
 128 704 l 1,7,-1
 128 768 l 1,4,-1
256 768 m 1,8,-1
 320 768 l 1,9,-1
 320 704 l 1,10,-1
 256 704 l 1,11,-1
 256 768 l 1,8,-1
320 768 m 1,12,-1
 384 768 l 1,13,-1
 384 704 l 1,14,-1
 320 704 l 1,15,-1
 320 768 l 1,12,-1
64 704 m 1,16,-1
 128 704 l 1,17,-1
 128 640 l 1,18,-1
 64 640 l 1,19,-1
 64 704 l 1,16,-1
128 704 m 1,20,-1
 192 704 l 1,21,-1
 192 640 l 1,22,-1
 128 640 l 1,23,-1
 128 704 l 1,20,-1
256 704 m 1,24,-1
 320 704 l 1,25,-1
 320 640 l 1,26,-1
 256 640 l 1,27,-1
 256 704 l 1,24,-1
320 704 m 1,28,-1
 384 704 l 1,29,-1
 384 640 l 1,30,-1
 320 640 l 1,31,-1
 320 704 l 1,28,-1
0 640 m 1,32,-1
 64 640 l 1,33,-1
 64 576 l 1,34,-1
 0 576 l 1,35,-1
 0 640 l 1,32,-1
64 640 m 1,36,-1
 128 640 l 1,37,-1
 128 576 l 1,38,-1
 64 576 l 1,39,-1
 64 640 l 1,36,-1
128 640 m 1,40,-1
 192 640 l 1,41,-1
 192 576 l 1,42,-1
 128 576 l 1,43,-1
 128 640 l 1,40,-1
256 640 m 1,44,-1
 320 640 l 1,45,-1
 320 576 l 1,46,-1
 256 576 l 1,47,-1
 256 640 l 1,44,-1
320 640 m 1,48,-1
 384 640 l 1,49,-1
 384 576 l 1,50,-1
 320 576 l 1,51,-1
 320 640 l 1,48,-1
0 576 m 1,52,-1
 64 576 l 1,53,-1
 64 512 l 1,54,-1
 0 512 l 1,55,-1
 0 576 l 1,52,-1
64 576 m 1,56,-1
 128 576 l 1,57,-1
 128 512 l 1,58,-1
 64 512 l 1,59,-1
 64 576 l 1,56,-1
256 576 m 1,60,-1
 320 576 l 1,61,-1
 320 512 l 1,62,-1
 256 512 l 1,63,-1
 256 576 l 1,60,-1
320 576 m 1,64,-1
 384 576 l 1,65,-1
 384 512 l 1,66,-1
 320 512 l 1,67,-1
 320 576 l 1,64,-1
0 512 m 1,68,-1
 64 512 l 1,69,-1
 64 448 l 1,70,-1
 0 448 l 1,71,-1
 0 512 l 1,68,-1
64 512 m 1,72,-1
 128 512 l 1,73,-1
 128 448 l 1,74,-1
 64 448 l 1,75,-1
 64 512 l 1,72,-1
256 512 m 1,76,-1
 320 512 l 1,77,-1
 320 448 l 1,78,-1
 256 448 l 1,79,-1
 256 512 l 1,76,-1
320 512 m 1,80,-1
 384 512 l 1,81,-1
 384 448 l 1,82,-1
 320 448 l 1,83,-1
 320 512 l 1,80,-1
0 448 m 1,84,-1
 64 448 l 1,85,-1
 64 384 l 1,86,-1
 0 384 l 1,87,-1
 0 448 l 1,84,-1
64 448 m 1,88,-1
 128 448 l 1,89,-1
 128 384 l 1,90,-1
 64 384 l 1,91,-1
 64 448 l 1,88,-1
128 448 m 1,92,-1
 192 448 l 1,93,-1
 192 384 l 1,94,-1
 128 384 l 1,95,-1
 128 448 l 1,92,-1
192 448 m 1,96,-1
 256 448 l 1,97,-1
 256 384 l 1,98,-1
 192 384 l 1,99,-1
 192 448 l 1,96,-1
256 448 m 1,100,-1
 320 448 l 1,101,-1
 320 384 l 1,102,-1
 256 384 l 1,103,-1
 256 448 l 1,100,-1
320 448 m 1,104,-1
 384 448 l 1,105,-1
 384 384 l 1,106,-1
 320 384 l 1,107,-1
 320 448 l 1,104,-1
0 384 m 1,108,-1
 64 384 l 1,109,-1
 64 320 l 1,110,-1
 0 320 l 1,111,-1
 0 384 l 1,108,-1
64 384 m 1,112,-1
 128 384 l 1,113,-1
 128 320 l 1,114,-1
 64 320 l 1,115,-1
 64 384 l 1,112,-1
128 384 m 1,116,-1
 192 384 l 1,117,-1
 192 320 l 1,118,-1
 128 320 l 1,119,-1
 128 384 l 1,116,-1
192 384 m 1,120,-1
 256 384 l 1,121,-1
 256 320 l 1,122,-1
 192 320 l 1,123,-1
 192 384 l 1,120,-1
256 384 m 1,124,-1
 320 384 l 1,125,-1
 320 320 l 1,126,-1
 256 320 l 1,127,-1
 256 384 l 1,124,-1
320 384 m 1,128,-1
 384 384 l 1,129,-1
 384 320 l 1,130,-1
 320 320 l 1,131,-1
 320 384 l 1,128,-1
256 320 m 1,132,-1
 320 320 l 1,133,-1
 320 256 l 1,134,-1
 256 256 l 1,135,-1
 256 320 l 1,132,-1
320 320 m 1,136,-1
 384 320 l 1,137,-1
 384 256 l 1,138,-1
 320 256 l 1,139,-1
 320 320 l 1,136,-1
256 256 m 1,140,-1
 320 256 l 1,141,-1
 320 192 l 1,142,-1
 256 192 l 1,143,-1
 256 256 l 1,140,-1
320 256 m 1,144,-1
 384 256 l 1,145,-1
 384 192 l 1,146,-1
 320 192 l 1,147,-1
 320 256 l 1,144,-1
256 192 m 1,148,-1
 320 192 l 1,149,-1
 320 128 l 1,150,-1
 256 128 l 1,151,-1
 256 192 l 1,148,-1
320 192 m 1,152,-1
 384 192 l 1,153,-1
 384 128 l 1,154,-1
 320 128 l 1,155,-1
 320 192 l 1,152,-1
256 128 m 1,156,-1
 320 128 l 1,157,-1
 320 64 l 1,158,-1
 256 64 l 1,159,-1
 256 128 l 1,156,-1
320 128 m 1,160,-1
 384 128 l 1,161,-1
 384 64 l 1,162,-1
 320 64 l 1,163,-1
 320 128 l 1,160,-1
256 64 m 1,164,-1
 320 64 l 1,165,-1
 320 0 l 1,166,-1
 256 0 l 1,167,-1
 256 64 l 1,164,-1
320 64 m 1,168,-1
 384 64 l 1,169,-1
 384 0 l 1,170,-1
 320 0 l 1,171,-1
 320 64 l 1,168,-1
EndSplineSet
EndChar

StartChar: five
Encoding: 53 53 23
Width: 512
GlyphClass: 1
Flags: W
LayerCount: 2
Fore
SplineSet
0 768 m 1,0,-1
 64 768 l 1,1,-1
 64 704 l 1,2,-1
 0 704 l 1,3,-1
 0 768 l 1,0,-1
64 768 m 1,4,-1
 128 768 l 1,5,-1
 128 704 l 1,6,-1
 64 704 l 1,7,-1
 64 768 l 1,4,-1
128 768 m 1,8,-1
 192 768 l 1,9,-1
 192 704 l 1,10,-1
 128 704 l 1,11,-1
 128 768 l 1,8,-1
192 768 m 1,12,-1
 256 768 l 1,13,-1
 256 704 l 1,14,-1
 192 704 l 1,15,-1
 192 768 l 1,12,-1
256 768 m 1,16,-1
 320 768 l 1,17,-1
 320 704 l 1,18,-1
 256 704 l 1,19,-1
 256 768 l 1,16,-1
320 768 m 1,20,-1
 384 768 l 1,21,-1
 384 704 l 1,22,-1
 320 704 l 1,23,-1
 320 768 l 1,20,-1
0 704 m 1,24,-1
 64 704 l 1,25,-1
 64 640 l 1,26,-1
 0 640 l 1,27,-1
 0 704 l 1,24,-1
64 704 m 1,28,-1
 128 704 l 1,29,-1
 128 640 l 1,30,-1
 64 640 l 1,31,-1
 64 704 l 1,28,-1
128 704 m 1,32,-1
 192 704 l 1,33,-1
 192 640 l 1,34,-1
 128 640 l 1,35,-1
 128 704 l 1,32,-1
192 704 m 1,36,-1
 256 704 l 1,37,-1
 256 640 l 1,38,-1
 192 640 l 1,39,-1
 192 704 l 1,36,-1
256 704 m 1,40,-1
 320 704 l 1,41,-1
 320 640 l 1,42,-1
 256 640 l 1,43,-1
 256 704 l 1,40,-1
320 704 m 1,44,-1
 384 704 l 1,45,-1
 384 640 l 1,46,-1
 320 640 l 1,47,-1
 320 704 l 1,44,-1
0 640 m 1,48,-1
 64 640 l 1,49,-1
 64 576 l 1,50,-1
 0 576 l 1,51,-1
 0 640 l 1,48,-1
64 640 m 1,52,-1
 128 640 l 1,53,-1
 128 576 l 1,54,-1
 64 576 l 1,55,-1
 64 640 l 1,52,-1
256 640 m 1,56,-1
 320 640 l 1,57,-1
 320 576 l 1,58,-1
 256 576 l 1,59,-1
 256 640 l 1,56,-1
320 640 m 1,60,-1
 384 640 l 1,61,-1
 384 576 l 1,62,-1
 320 576 l 1,63,-1
 320 640 l 1,60,-1
0 576 m 1,64,-1
 64 576 l 1,65,-1
 64 512 l 1,66,-1
 0 512 l 1,67,-1
 0 576 l 1,64,-1
64 576 m 1,68,-1
 128 576 l 1,69,-1
 128 512 l 1,70,-1
 64 512 l 1,71,-1
 64 576 l 1,68,-1
0 512 m 1,72,-1
 64 512 l 1,73,-1
 64 448 l 1,74,-1
 0 448 l 1,75,-1
 0 512 l 1,72,-1
64 512 m 1,76,-1
 128 512 l 1,77,-1
 128 448 l 1,78,-1
 64 448 l 1,79,-1
 64 512 l 1,76,-1
0 448 m 1,80,-1
 64 448 l 1,81,-1
 64 384 l 1,82,-1
 0 384 l 1,83,-1
 0 448 l 1,80,-1
64 448 m 1,84,-1
 128 448 l 1,85,-1
 128 384 l 1,86,-1
 64 384 l 1,87,-1
 64 448 l 1,84,-1
128 448 m 1,88,-1
 192 448 l 1,89,-1
 192 384 l 1,90,-1
 128 384 l 1,91,-1
 128 448 l 1,88,-1
192 448 m 1,92,-1
 256 448 l 1,93,-1
 256 384 l 1,94,-1
 192 384 l 1,95,-1
 192 448 l 1,92,-1
256 448 m 1,96,-1
 320 448 l 1,97,-1
 320 384 l 1,98,-1
 256 384 l 1,99,-1
 256 448 l 1,96,-1
320 448 m 1,100,-1
 384 448 l 1,101,-1
 384 384 l 1,102,-1
 320 384 l 1,103,-1
 320 448 l 1,100,-1
0 384 m 1,104,-1
 64 384 l 1,105,-1
 64 320 l 1,106,-1
 0 320 l 1,107,-1
 0 384 l 1,104,-1
64 384 m 1,108,-1
 128 384 l 1,109,-1
 128 320 l 1,110,-1
 64 320 l 1,111,-1
 64 384 l 1,108,-1
128 384 m 1,112,-1
 192 384 l 1,113,-1
 192 320 l 1,114,-1
 128 320 l 1,115,-1
 128 384 l 1,112,-1
192 384 m 1,116,-1
 256 384 l 1,117,-1
 256 320 l 1,118,-1
 192 320 l 1,119,-1
 192 384 l 1,116,-1
256 384 m 1,120,-1
 320 384 l 1,121,-1
 320 320 l 1,122,-1
 256 320 l 1,123,-1
 256 384 l 1,120,-1
320 384 m 1,124,-1
 384 384 l 1,125,-1
 384 320 l 1,126,-1
 320 320 l 1,127,-1
 320 384 l 1,124,-1
256 320 m 1,128,-1
 320 320 l 1,129,-1
 320 256 l 1,130,-1
 256 256 l 1,131,-1
 256 320 l 1,128,-1
320 320 m 1,132,-1
 384 320 l 1,133,-1
 384 256 l 1,134,-1
 320 256 l 1,135,-1
 320 320 l 1,132,-1
0 256 m 1,136,-1
 64 256 l 1,137,-1
 64 192 l 1,138,-1
 0 192 l 1,139,-1
 0 256 l 1,136,-1
64 256 m 1,140,-1
 128 256 l 1,141,-1
 128 192 l 1,142,-1
 64 192 l 1,143,-1
 64 256 l 1,140,-1
256 256 m 1,144,-1
 320 256 l 1,145,-1
 320 192 l 1,146,-1
 256 192 l 1,147,-1
 256 256 l 1,144,-1
320 256 m 1,148,-1
 384 256 l 1,149,-1
 384 192 l 1,150,-1
 320 192 l 1,151,-1
 320 256 l 1,148,-1
0 192 m 1,152,-1
 64 192 l 1,153,-1
 64 128 l 1,154,-1
 0 128 l 1,155,-1
 0 192 l 1,152,-1
64 192 m 1,156,-1
 128 192 l 1,157,-1
 128 128 l 1,158,-1
 64 128 l 1,159,-1
 64 192 l 1,156,-1
256 192 m 1,160,-1
 320 192 l 1,161,-1
 320 128 l 1,162,-1
 256 128 l 1,163,-1
 256 192 l 1,160,-1
320 192 m 1,164,-1
 384 192 l 1,165,-1
 384 128 l 1,166,-1
 320 128 l 1,167,-1
 320 192 l 1,164,-1
0 128 m 1,168,-1
 64 128 l 1,169,-1
 64 64 l 1,170,-1
 0 64 l 1,171,-1
 0 128 l 1,168,-1
64 128 m 1,172,-1
 128 128 l 1,173,-1
 128 64 l 1,174,-1
 64 64 l 1,175,-1
 64 128 l 1,172,-1
128 128 m 1,176,-1
 192 128 l 1,177,-1
 192 64 l 1,178,-1
 128 64 l 1,179,-1
 128 128 l 1,176,-1
192 128 m 1,180,-1
 256 128 l 1,181,-1
 256 64 l 1,182,-1
 192 64 l 1,183,-1
 192 128 l 1,180,-1
256 128 m 1,184,-1
 320 128 l 1,185,-1
 320 64 l 1,186,-1
 256 64 l 1,187,-1
 256 128 l 1,184,-1
320 128 m 1,188,-1
 384 128 l 1,189,-1
 384 64 l 1,190,-1
 320 64 l 1,191,-1
 320 128 l 1,188,-1
64 64 m 1,192,-1
 128 64 l 1,193,-1
 128 0 l 1,194,-1
 64 0 l 1,195,-1
 64 64 l 1,192,-1
128 64 m 1,196,-1
 192 64 l 1,197,-1
 192 0 l 1,198,-1
 128 0 l 1,199,-1
 128 64 l 1,196,-1
192 64 m 1,200,-1
 256 64 l 1,201,-1
 256 0 l 1,202,-1
 192 0 l 1,203,-1
 192 64 l 1,200,-1
256 64 m 1,204,-1
 320 64 l 1,205,-1
 320 0 l 1,206,-1
 256 0 l 1,207,-1
 256 64 l 1,204,-1
EndSplineSet
EndChar

StartChar: six
Encoding: 54 54 24
Width: 512
GlyphClass: 1
Flags: W
LayerCount: 2
Fore
SplineSet
64 768 m 1,0,-1
 128 768 l 1,1,-1
 128 704 l 1,2,-1
 64 704 l 1,3,-1
 64 768 l 1,0,-1
128 768 m 1,4,-1
 192 768 l 1,5,-1
 192 704 l 1,6,-1
 128 704 l 1,7,-1
 128 768 l 1,4,-1
192 768 m 1,8,-1
 256 768 l 1,9,-1
 256 704 l 1,10,-1
 192 704 l 1,11,-1
 192 768 l 1,8,-1
256 768 m 1,12,-1
 320 768 l 1,13,-1
 320 704 l 1,14,-1
 256 704 l 1,15,-1
 256 768 l 1,12,-1
0 704 m 1,16,-1
 64 704 l 1,17,-1
 64 640 l 1,18,-1
 0 640 l 1,19,-1
 0 704 l 1,16,-1
64 704 m 1,20,-1
 128 704 l 1,21,-1
 128 640 l 1,22,-1
 64 640 l 1,23,-1
 64 704 l 1,20,-1
128 704 m 1,24,-1
 192 704 l 1,25,-1
 192 640 l 1,26,-1
 128 640 l 1,27,-1
 128 704 l 1,24,-1
192 704 m 1,28,-1
 256 704 l 1,29,-1
 256 640 l 1,30,-1
 192 640 l 1,31,-1
 192 704 l 1,28,-1
256 704 m 1,32,-1
 320 704 l 1,33,-1
 320 640 l 1,34,-1
 256 640 l 1,35,-1
 256 704 l 1,32,-1
320 704 m 1,36,-1
 384 704 l 1,37,-1
 384 640 l 1,38,-1
 320 640 l 1,39,-1
 320 704 l 1,36,-1
0 640 m 1,40,-1
 64 640 l 1,41,-1
 64 576 l 1,42,-1
 0 576 l 1,43,-1
 0 640 l 1,40,-1
64 640 m 1,44,-1
 128 640 l 1,45,-1
 128 576 l 1,46,-1
 64 576 l 1,47,-1
 64 640 l 1,44,-1
256 640 m 1,48,-1
 320 640 l 1,49,-1
 320 576 l 1,50,-1
 256 576 l 1,51,-1
 256 640 l 1,48,-1
320 640 m 1,52,-1
 384 640 l 1,53,-1
 384 576 l 1,54,-1
 320 576 l 1,55,-1
 320 640 l 1,52,-1
0 576 m 1,56,-1
 64 576 l 1,57,-1
 64 512 l 1,58,-1
 0 512 l 1,59,-1
 0 576 l 1,56,-1
64 576 m 1,60,-1
 128 576 l 1,61,-1
 128 512 l 1,62,-1
 64 512 l 1,63,-1
 64 576 l 1,60,-1
256 576 m 1,64,-1
 320 576 l 1,65,-1
 320 512 l 1,66,-1
 256 512 l 1,67,-1
 256 576 l 1,64,-1
320 576 m 1,68,-1
 384 576 l 1,69,-1
 384 512 l 1,70,-1
 320 512 l 1,71,-1
 320 576 l 1,68,-1
0 512 m 1,72,-1
 64 512 l 1,73,-1
 64 448 l 1,74,-1
 0 448 l 1,75,-1
 0 512 l 1,72,-1
64 512 m 1,76,-1
 128 512 l 1,77,-1
 128 448 l 1,78,-1
 64 448 l 1,79,-1
 64 512 l 1,76,-1
0 448 m 1,80,-1
 64 448 l 1,81,-1
 64 384 l 1,82,-1
 0 384 l 1,83,-1
 0 448 l 1,80,-1
64 448 m 1,84,-1
 128 448 l 1,85,-1
 128 384 l 1,86,-1
 64 384 l 1,87,-1
 64 448 l 1,84,-1
0 384 m 1,88,-1
 64 384 l 1,89,-1
 64 320 l 1,90,-1
 0 320 l 1,91,-1
 0 384 l 1,88,-1
64 384 m 1,92,-1
 128 384 l 1,93,-1
 128 320 l 1,94,-1
 64 320 l 1,95,-1
 64 384 l 1,92,-1
128 384 m 1,96,-1
 192 384 l 1,97,-1
 192 320 l 1,98,-1
 128 320 l 1,99,-1
 128 384 l 1,96,-1
192 384 m 1,100,-1
 256 384 l 1,101,-1
 256 320 l 1,102,-1
 192 320 l 1,103,-1
 192 384 l 1,100,-1
256 384 m 1,104,-1
 320 384 l 1,105,-1
 320 320 l 1,106,-1
 256 320 l 1,107,-1
 256 384 l 1,104,-1
320 384 m 1,108,-1
 384 384 l 1,109,-1
 384 320 l 1,110,-1
 320 320 l 1,111,-1
 320 384 l 1,108,-1
0 320 m 1,112,-1
 64 320 l 1,113,-1
 64 256 l 1,114,-1
 0 256 l 1,115,-1
 0 320 l 1,112,-1
64 320 m 1,116,-1
 128 320 l 1,117,-1
 128 256 l 1,118,-1
 64 256 l 1,119,-1
 64 320 l 1,116,-1
128 320 m 1,120,-1
 192 320 l 1,121,-1
 192 256 l 1,122,-1
 128 256 l 1,123,-1
 128 320 l 1,120,-1
192 320 m 1,124,-1
 256 320 l 1,125,-1
 256 256 l 1,126,-1
 192 256 l 1,127,-1
 192 320 l 1,124,-1
256 320 m 1,128,-1
 320 320 l 1,129,-1
 320 256 l 1,130,-1
 256 256 l 1,131,-1
 256 320 l 1,128,-1
320 320 m 1,132,-1
 384 320 l 1,133,-1
 384 256 l 1,134,-1
 320 256 l 1,135,-1
 320 320 l 1,132,-1
0 256 m 1,136,-1
 64 256 l 1,137,-1
 64 192 l 1,138,-1
 0 192 l 1,139,-1
 0 256 l 1,136,-1
64 256 m 1,140,-1
 128 256 l 1,141,-1
 128 192 l 1,142,-1
 64 192 l 1,143,-1
 64 256 l 1,140,-1
256 256 m 1,144,-1
 320 256 l 1,145,-1
 320 192 l 1,146,-1
 256 192 l 1,147,-1
 256 256 l 1,144,-1
320 256 m 1,148,-1
 384 256 l 1,149,-1
 384 192 l 1,150,-1
 320 192 l 1,151,-1
 320 256 l 1,148,-1
0 192 m 1,152,-1
 64 192 l 1,153,-1
 64 128 l 1,154,-1
 0 128 l 1,155,-1
 0 192 l 1,152,-1
64 192 m 1,156,-1
 128 192 l 1,157,-1
 128 128 l 1,158,-1
 64 128 l 1,159,-1
 64 192 l 1,156,-1
256 192 m 1,160,-1
 320 192 l 1,161,-1
 320 128 l 1,162,-1
 256 128 l 1,163,-1
 256 192 l 1,160,-1
320 192 m 1,164,-1
 384 192 l 1,165,-1
 384 128 l 1,166,-1
 320 128 l 1,167,-1
 320 192 l 1,164,-1
0 128 m 1,168,-1
 64 128 l 1,169,-1
 64 64 l 1,170,-1
 0 64 l 1,171,-1
 0 128 l 1,168,-1
64 128 m 1,172,-1
 128 128 l 1,173,-1
 128 64 l 1,174,-1
 64 64 l 1,175,-1
 64 128 l 1,172,-1
128 128 m 1,176,-1
 192 128 l 1,177,-1
 192 64 l 1,178,-1
 128 64 l 1,179,-1
 128 128 l 1,176,-1
192 128 m 1,180,-1
 256 128 l 1,181,-1
 256 64 l 1,182,-1
 192 64 l 1,183,-1
 192 128 l 1,180,-1
256 128 m 1,184,-1
 320 128 l 1,185,-1
 320 64 l 1,186,-1
 256 64 l 1,187,-1
 256 128 l 1,184,-1
320 128 m 1,188,-1
 384 128 l 1,189,-1
 384 64 l 1,190,-1
 320 64 l 1,191,-1
 320 128 l 1,188,-1
64 64 m 1,192,-1
 128 64 l 1,193,-1
 128 0 l 1,194,-1
 64 0 l 1,195,-1
 64 64 l 1,192,-1
128 64 m 1,196,-1
 192 64 l 1,197,-1
 192 0 l 1,198,-1
 128 0 l 1,199,-1
 128 64 l 1,196,-1
192 64 m 1,200,-1
 256 64 l 1,201,-1
 256 0 l 1,202,-1
 192 0 l 1,203,-1
 192 64 l 1,200,-1
256 64 m 1,204,-1
 320 64 l 1,205,-1
 320 0 l 1,206,-1
 256 0 l 1,207,-1
 256 64 l 1,204,-1
EndSplineSet
EndChar

StartChar: seven
Encoding: 55 55 25
Width: 512
GlyphClass: 1
Flags: W
LayerCount: 2
Fore
SplineSet
0 768 m 1,0,-1
 64 768 l 1,1,-1
 64 704 l 1,2,-1
 0 704 l 1,3,-1
 0 768 l 1,0,-1
64 768 m 1,4,-1
 128 768 l 1,5,-1
 128 704 l 1,6,-1
 64 704 l 1,7,-1
 64 768 l 1,4,-1
128 768 m 1,8,-1
 192 768 l 1,9,-1
 192 704 l 1,10,-1
 128 704 l 1,11,-1
 128 768 l 1,8,-1
192 768 m 1,12,-1
 256 768 l 1,13,-1
 256 704 l 1,14,-1
 192 704 l 1,15,-1
 192 768 l 1,12,-1
256 768 m 1,16,-1
 320 768 l 1,17,-1
 320 704 l 1,18,-1
 256 704 l 1,19,-1
 256 768 l 1,16,-1
320 768 m 1,20,-1
 384 768 l 1,21,-1
 384 704 l 1,22,-1
 320 704 l 1,23,-1
 320 768 l 1,20,-1
0 704 m 1,24,-1
 64 704 l 1,25,-1
 64 640 l 1,26,-1
 0 640 l 1,27,-1
 0 704 l 1,24,-1
64 704 m 1,28,-1
 128 704 l 1,29,-1
 128 640 l 1,30,-1
 64 640 l 1,31,-1
 64 704 l 1,28,-1
128 704 m 1,32,-1
 192 704 l 1,33,-1
 192 640 l 1,34,-1
 128 640 l 1,35,-1
 128 704 l 1,32,-1
192 704 m 1,36,-1
 256 704 l 1,37,-1
 256 640 l 1,38,-1
 192 640 l 1,39,-1
 192 704 l 1,36,-1
256 704 m 1,40,-1
 320 704 l 1,41,-1
 320 640 l 1,42,-1
 256 640 l 1,43,-1
 256 704 l 1,40,-1
320 704 m 1,44,-1
 384 704 l 1,45,-1
 384 640 l 1,46,-1
 320 640 l 1,47,-1
 320 704 l 1,44,-1
0 640 m 1,48,-1
 64 640 l 1,49,-1
 64 576 l 1,50,-1
 0 576 l 1,51,-1
 0 640 l 1,48,-1
256 640 m 1,52,-1
 320 640 l 1,53,-1
 320 576 l 1,54,-1
 256 576 l 1,55,-1
 256 640 l 1,52,-1
320 640 m 1,56,-1
 384 640 l 1,57,-1
 384 576 l 1,58,-1
 320 576 l 1,59,-1
 320 640 l 1,56,-1
256 576 m 1,60,-1
 320 576 l 1,61,-1
 320 512 l 1,62,-1
 256 512 l 1,63,-1
 256 576 l 1,60,-1
320 576 m 1,64,-1
 384 576 l 1,65,-1
 384 512 l 1,66,-1
 320 512 l 1,67,-1
 320 576 l 1,64,-1
256 512 m 1,68,-1
 320 512 l 1,69,-1
 320 448 l 1,70,-1
 256 448 l 1,71,-1
 256 512 l 1,68,-1
320 512 m 1,72,-1
 384 512 l 1,73,-1
 384 448 l 1,74,-1
 320 448 l 1,75,-1
 320 512 l 1,72,-1
192 448 m 1,76,-1
 256 448 l 1,77,-1
 256 384 l 1,78,-1
 192 384 l 1,79,-1
 192 448 l 1,76,-1
256 448 m 1,80,-1
 320 448 l 1,81,-1
 320 384 l 1,82,-1
 256 384 l 1,83,-1
 256 448 l 1,80,-1
192 384 m 1,84,-1
 256 384 l 1,85,-1
 256 320 l 1,86,-1
 192 320 l 1,87,-1
 192 384 l 1,84,-1
256 384 m 1,88,-1
 320 384 l 1,89,-1
 320 320 l 1,90,-1
 256 320 l 1,91,-1
 256 384 l 1,88,-1
128 320 m 1,92,-1
 192 320 l 1,93,-1
 192 256 l 1,94,-1
 128 256 l 1,95,-1
 128 320 l 1,92,-1
192 320 m 1,96,-1
 256 320 l 1,97,-1
 256 256 l 1,98,-1
 192 256 l 1,99,-1
 192 320 l 1,96,-1
128 256 m 1,100,-1
 192 256 l 1,101,-1
 192 192 l 1,102,-1
 128 192 l 1,103,-1
 128 256 l 1,100,-1
192 256 m 1,104,-1
 256 256 l 1,105,-1
 256 192 l 1,106,-1
 192 192 l 1,107,-1
 192 256 l 1,104,-1
128 192 m 1,108,-1
 192 192 l 1,109,-1
 192 128 l 1,110,-1
 128 128 l 1,111,-1
 128 192 l 1,108,-1
192 192 m 1,112,-1
 256 192 l 1,113,-1
 256 128 l 1,114,-1
 192 128 l 1,115,-1
 192 192 l 1,112,-1
64 128 m 1,116,-1
 128 128 l 1,117,-1
 128 64 l 1,118,-1
 64 64 l 1,119,-1
 64 128 l 1,116,-1
128 128 m 1,120,-1
 192 128 l 1,121,-1
 192 64 l 1,122,-1
 128 64 l 1,123,-1
 128 128 l 1,120,-1
64 64 m 1,124,-1
 128 64 l 1,125,-1
 128 0 l 1,126,-1
 64 0 l 1,127,-1
 64 64 l 1,124,-1
128 64 m 1,128,-1
 192 64 l 1,129,-1
 192 0 l 1,130,-1
 128 0 l 1,131,-1
 128 64 l 1,128,-1
EndSplineSet
EndChar

StartChar: eight
Encoding: 56 56 26
Width: 512
GlyphClass: 1
Flags: W
LayerCount: 2
Fore
SplineSet
64 768 m 1,0,-1
 128 768 l 1,1,-1
 128 704 l 1,2,-1
 64 704 l 1,3,-1
 64 768 l 1,0,-1
128 768 m 1,4,-1
 192 768 l 1,5,-1
 192 704 l 1,6,-1
 128 704 l 1,7,-1
 128 768 l 1,4,-1
192 768 m 1,8,-1
 256 768 l 1,9,-1
 256 704 l 1,10,-1
 192 704 l 1,11,-1
 192 768 l 1,8,-1
256 768 m 1,12,-1
 320 768 l 1,13,-1
 320 704 l 1,14,-1
 256 704 l 1,15,-1
 256 768 l 1,12,-1
0 704 m 1,16,-1
 64 704 l 1,17,-1
 64 640 l 1,18,-1
 0 640 l 1,19,-1
 0 704 l 1,16,-1
64 704 m 1,20,-1
 128 704 l 1,21,-1
 128 640 l 1,22,-1
 64 640 l 1,23,-1
 64 704 l 1,20,-1
128 704 m 1,24,-1
 192 704 l 1,25,-1
 192 640 l 1,26,-1
 128 640 l 1,27,-1
 128 704 l 1,24,-1
192 704 m 1,28,-1
 256 704 l 1,29,-1
 256 640 l 1,30,-1
 192 640 l 1,31,-1
 192 704 l 1,28,-1
256 704 m 1,32,-1
 320 704 l 1,33,-1
 320 640 l 1,34,-1
 256 640 l 1,35,-1
 256 704 l 1,32,-1
320 704 m 1,36,-1
 384 704 l 1,37,-1
 384 640 l 1,38,-1
 320 640 l 1,39,-1
 320 704 l 1,36,-1
0 640 m 1,40,-1
 64 640 l 1,41,-1
 64 576 l 1,42,-1
 0 576 l 1,43,-1
 0 640 l 1,40,-1
64 640 m 1,44,-1
 128 640 l 1,45,-1
 128 576 l 1,46,-1
 64 576 l 1,47,-1
 64 640 l 1,44,-1
256 640 m 1,48,-1
 320 640 l 1,49,-1
 320 576 l 1,50,-1
 256 576 l 1,51,-1
 256 640 l 1,48,-1
320 640 m 1,52,-1
 384 640 l 1,53,-1
 384 576 l 1,54,-1
 320 576 l 1,55,-1
 320 640 l 1,52,-1
0 576 m 1,56,-1
 64 576 l 1,57,-1
 64 512 l 1,58,-1
 0 512 l 1,59,-1
 0 576 l 1,56,-1
64 576 m 1,60,-1
 128 576 l 1,61,-1
 128 512 l 1,62,-1
 64 512 l 1,63,-1
 64 576 l 1,60,-1
256 576 m 1,64,-1
 320 576 l 1,65,-1
 320 512 l 1,66,-1
 256 512 l 1,67,-1
 256 576 l 1,64,-1
320 576 m 1,68,-1
 384 576 l 1,69,-1
 384 512 l 1,70,-1
 320 512 l 1,71,-1
 320 576 l 1,68,-1
0 512 m 1,72,-1
 64 512 l 1,73,-1
 64 448 l 1,74,-1
 0 448 l 1,75,-1
 0 512 l 1,72,-1
64 512 m 1,76,-1
 128 512 l 1,77,-1
 128 448 l 1,78,-1
 64 448 l 1,79,-1
 64 512 l 1,76,-1
256 512 m 1,80,-1
 320 512 l 1,81,-1
 320 448 l 1,82,-1
 256 448 l 1,83,-1
 256 512 l 1,80,-1
320 512 m 1,84,-1
 384 512 l 1,85,-1
 384 448 l 1,86,-1
 320 448 l 1,87,-1
 320 512 l 1,84,-1
0 448 m 1,88,-1
 64 448 l 1,89,-1
 64 384 l 1,90,-1
 0 384 l 1,91,-1
 0 448 l 1,88,-1
64 448 m 1,92,-1
 128 448 l 1,93,-1
 128 384 l 1,94,-1
 64 384 l 1,95,-1
 64 448 l 1,92,-1
128 448 m 1,96,-1
 192 448 l 1,97,-1
 192 384 l 1,98,-1
 128 384 l 1,99,-1
 128 448 l 1,96,-1
192 448 m 1,100,-1
 256 448 l 1,101,-1
 256 384 l 1,102,-1
 192 384 l 1,103,-1
 192 448 l 1,100,-1
256 448 m 1,104,-1
 320 448 l 1,105,-1
 320 384 l 1,106,-1
 256 384 l 1,107,-1
 256 448 l 1,104,-1
320 448 m 1,108,-1
 384 448 l 1,109,-1
 384 384 l 1,110,-1
 320 384 l 1,111,-1
 320 448 l 1,108,-1
0 384 m 1,112,-1
 64 384 l 1,113,-1
 64 320 l 1,114,-1
 0 320 l 1,115,-1
 0 384 l 1,112,-1
64 384 m 1,116,-1
 128 384 l 1,117,-1
 128 320 l 1,118,-1
 64 320 l 1,119,-1
 64 384 l 1,116,-1
128 384 m 1,120,-1
 192 384 l 1,121,-1
 192 320 l 1,122,-1
 128 320 l 1,123,-1
 128 384 l 1,120,-1
192 384 m 1,124,-1
 256 384 l 1,125,-1
 256 320 l 1,126,-1
 192 320 l 1,127,-1
 192 384 l 1,124,-1
256 384 m 1,128,-1
 320 384 l 1,129,-1
 320 320 l 1,130,-1
 256 320 l 1,131,-1
 256 384 l 1,128,-1
320 384 m 1,132,-1
 384 384 l 1,133,-1
 384 320 l 1,134,-1
 320 320 l 1,135,-1
 320 384 l 1,132,-1
0 320 m 1,136,-1
 64 320 l 1,137,-1
 64 256 l 1,138,-1
 0 256 l 1,139,-1
 0 320 l 1,136,-1
64 320 m 1,140,-1
 128 320 l 1,141,-1
 128 256 l 1,142,-1
 64 256 l 1,143,-1
 64 320 l 1,140,-1
256 320 m 1,144,-1
 320 320 l 1,145,-1
 320 256 l 1,146,-1
 256 256 l 1,147,-1
 256 320 l 1,144,-1
320 320 m 1,148,-1
 384 320 l 1,149,-1
 384 256 l 1,150,-1
 320 256 l 1,151,-1
 320 320 l 1,148,-1
0 256 m 1,152,-1
 64 256 l 1,153,-1
 64 192 l 1,154,-1
 0 192 l 1,155,-1
 0 256 l 1,152,-1
64 256 m 1,156,-1
 128 256 l 1,157,-1
 128 192 l 1,158,-1
 64 192 l 1,159,-1
 64 256 l 1,156,-1
256 256 m 1,160,-1
 320 256 l 1,161,-1
 320 192 l 1,162,-1
 256 192 l 1,163,-1
 256 256 l 1,160,-1
320 256 m 1,164,-1
 384 256 l 1,165,-1
 384 192 l 1,166,-1
 320 192 l 1,167,-1
 320 256 l 1,164,-1
0 192 m 1,168,-1
 64 192 l 1,169,-1
 64 128 l 1,170,-1
 0 128 l 1,171,-1
 0 192 l 1,168,-1
64 192 m 1,172,-1
 128 192 l 1,173,-1
 128 128 l 1,174,-1
 64 128 l 1,175,-1
 64 192 l 1,172,-1
256 192 m 1,176,-1
 320 192 l 1,177,-1
 320 128 l 1,178,-1
 256 128 l 1,179,-1
 256 192 l 1,176,-1
320 192 m 1,180,-1
 384 192 l 1,181,-1
 384 128 l 1,182,-1
 320 128 l 1,183,-1
 320 192 l 1,180,-1
0 128 m 1,184,-1
 64 128 l 1,185,-1
 64 64 l 1,186,-1
 0 64 l 1,187,-1
 0 128 l 1,184,-1
64 128 m 1,188,-1
 128 128 l 1,189,-1
 128 64 l 1,190,-1
 64 64 l 1,191,-1
 64 128 l 1,188,-1
128 128 m 1,192,-1
 192 128 l 1,193,-1
 192 64 l 1,194,-1
 128 64 l 1,195,-1
 128 128 l 1,192,-1
192 128 m 1,196,-1
 256 128 l 1,197,-1
 256 64 l 1,198,-1
 192 64 l 1,199,-1
 192 128 l 1,196,-1
256 128 m 1,200,-1
 320 128 l 1,201,-1
 320 64 l 1,202,-1
 256 64 l 1,203,-1
 256 128 l 1,200,-1
320 128 m 1,204,-1
 384 128 l 1,205,-1
 384 64 l 1,206,-1
 320 64 l 1,207,-1
 320 128 l 1,204,-1
64 64 m 1,208,-1
 128 64 l 1,209,-1
 128 0 l 1,210,-1
 64 0 l 1,211,-1
 64 64 l 1,208,-1
128 64 m 1,212,-1
 192 64 l 1,213,-1
 192 0 l 1,214,-1
 128 0 l 1,215,-1
 128 64 l 1,212,-1
192 64 m 1,216,-1
 256 64 l 1,217,-1
 256 0 l 1,218,-1
 192 0 l 1,219,-1
 192 64 l 1,216,-1
256 64 m 1,220,-1
 320 64 l 1,221,-1
 320 0 l 1,222,-1
 256 0 l 1,223,-1
 256 64 l 1,220,-1
EndSplineSet
EndChar

StartChar: nine
Encoding: 57 57 27
Width: 512
GlyphClass: 1
Flags: W
LayerCount: 2
Fore
SplineSet
64 768 m 1,0,-1
 128 768 l 1,1,-1
 128 704 l 1,2,-1
 64 704 l 1,3,-1
 64 768 l 1,0,-1
128 768 m 1,4,-1
 192 768 l 1,5,-1
 192 704 l 1,6,-1
 128 704 l 1,7,-1
 128 768 l 1,4,-1
192 768 m 1,8,-1
 256 768 l 1,9,-1
 256 704 l 1,10,-1
 192 704 l 1,11,-1
 192 768 l 1,8,-1
256 768 m 1,12,-1
 320 768 l 1,13,-1
 320 704 l 1,14,-1
 256 704 l 1,15,-1
 256 768 l 1,12,-1
0 704 m 1,16,-1
 64 704 l 1,17,-1
 64 640 l 1,18,-1
 0 640 l 1,19,-1
 0 704 l 1,16,-1
64 704 m 1,20,-1
 128 704 l 1,21,-1
 128 640 l 1,22,-1
 64 640 l 1,23,-1
 64 704 l 1,20,-1
128 704 m 1,24,-1
 192 704 l 1,25,-1
 192 640 l 1,26,-1
 128 640 l 1,27,-1
 128 704 l 1,24,-1
192 704 m 1,28,-1
 256 704 l 1,29,-1
 256 640 l 1,30,-1
 192 640 l 1,31,-1
 192 704 l 1,28,-1
256 704 m 1,32,-1
 320 704 l 1,33,-1
 320 640 l 1,34,-1
 256 640 l 1,35,-1
 256 704 l 1,32,-1
320 704 m 1,36,-1
 384 704 l 1,37,-1
 384 640 l 1,38,-1
 320 640 l 1,39,-1
 320 704 l 1,36,-1
0 640 m 1,40,-1
 64 640 l 1,41,-1
 64 576 l 1,42,-1
 0 576 l 1,43,-1
 0 640 l 1,40,-1
64 640 m 1,44,-1
 128 640 l 1,45,-1
 128 576 l 1,46,-1
 64 576 l 1,47,-1
 64 640 l 1,44,-1
256 640 m 1,48,-1
 320 640 l 1,49,-1
 320 576 l 1,50,-1
 256 576 l 1,51,-1
 256 640 l 1,48,-1
320 640 m 1,52,-1
 384 640 l 1,53,-1
 384 576 l 1,54,-1
 320 576 l 1,55,-1
 320 640 l 1,52,-1
0 576 m 1,56,-1
 64 576 l 1,57,-1
 64 512 l 1,58,-1
 0 512 l 1,59,-1
 0 576 l 1,56,-1
64 576 m 1,60,-1
 128 576 l 1,61,-1
 128 512 l 1,62,-1
 64 512 l 1,63,-1
 64 576 l 1,60,-1
256 576 m 1,64,-1
 320 576 l 1,65,-1
 320 512 l 1,66,-1
 256 512 l 1,67,-1
 256 576 l 1,64,-1
320 576 m 1,68,-1
 384 576 l 1,69,-1
 384 512 l 1,70,-1
 320 512 l 1,71,-1
 320 576 l 1,68,-1
0 512 m 1,72,-1
 64 512 l 1,73,-1
 64 448 l 1,74,-1
 0 448 l 1,75,-1
 0 512 l 1,72,-1
64 512 m 1,76,-1
 128 512 l 1,77,-1
 128 448 l 1,78,-1
 64 448 l 1,79,-1
 64 512 l 1,76,-1
256 512 m 1,80,-1
 320 512 l 1,81,-1
 320 448 l 1,82,-1
 256 448 l 1,83,-1
 256 512 l 1,80,-1
320 512 m 1,84,-1
 384 512 l 1,85,-1
 384 448 l 1,86,-1
 320 448 l 1,87,-1
 320 512 l 1,84,-1
0 448 m 1,88,-1
 64 448 l 1,89,-1
 64 384 l 1,90,-1
 0 384 l 1,91,-1
 0 448 l 1,88,-1
64 448 m 1,92,-1
 128 448 l 1,93,-1
 128 384 l 1,94,-1
 64 384 l 1,95,-1
 64 448 l 1,92,-1
128 448 m 1,96,-1
 192 448 l 1,97,-1
 192 384 l 1,98,-1
 128 384 l 1,99,-1
 128 448 l 1,96,-1
192 448 m 1,100,-1
 256 448 l 1,101,-1
 256 384 l 1,102,-1
 192 384 l 1,103,-1
 192 448 l 1,100,-1
256 448 m 1,104,-1
 320 448 l 1,105,-1
 320 384 l 1,106,-1
 256 384 l 1,107,-1
 256 448 l 1,104,-1
320 448 m 1,108,-1
 384 448 l 1,109,-1
 384 384 l 1,110,-1
 320 384 l 1,111,-1
 320 448 l 1,108,-1
128 384 m 1,112,-1
 192 384 l 1,113,-1
 192 320 l 1,114,-1
 128 320 l 1,115,-1
 128 384 l 1,112,-1
192 384 m 1,116,-1
 256 384 l 1,117,-1
 256 320 l 1,118,-1
 192 320 l 1,119,-1
 192 384 l 1,116,-1
256 384 m 1,120,-1
 320 384 l 1,121,-1
 320 320 l 1,122,-1
 256 320 l 1,123,-1
 256 384 l 1,120,-1
320 384 m 1,124,-1
 384 384 l 1,125,-1
 384 320 l 1,126,-1
 320 320 l 1,127,-1
 320 384 l 1,124,-1
256 320 m 1,128,-1
 320 320 l 1,129,-1
 320 256 l 1,130,-1
 256 256 l 1,131,-1
 256 320 l 1,128,-1
320 320 m 1,132,-1
 384 320 l 1,133,-1
 384 256 l 1,134,-1
 320 256 l 1,135,-1
 320 320 l 1,132,-1
0 256 m 1,136,-1
 64 256 l 1,137,-1
 64 192 l 1,138,-1
 0 192 l 1,139,-1
 0 256 l 1,136,-1
64 256 m 1,140,-1
 128 256 l 1,141,-1
 128 192 l 1,142,-1
 64 192 l 1,143,-1
 64 256 l 1,140,-1
256 256 m 1,144,-1
 320 256 l 1,145,-1
 320 192 l 1,146,-1
 256 192 l 1,147,-1
 256 256 l 1,144,-1
320 256 m 1,148,-1
 384 256 l 1,149,-1
 384 192 l 1,150,-1
 320 192 l 1,151,-1
 320 256 l 1,148,-1
0 192 m 1,152,-1
 64 192 l 1,153,-1
 64 128 l 1,154,-1
 0 128 l 1,155,-1
 0 192 l 1,152,-1
64 192 m 1,156,-1
 128 192 l 1,157,-1
 128 128 l 1,158,-1
 64 128 l 1,159,-1
 64 192 l 1,156,-1
256 192 m 1,160,-1
 320 192 l 1,161,-1
 320 128 l 1,162,-1
 256 128 l 1,163,-1
 256 192 l 1,160,-1
320 192 m 1,164,-1
 384 192 l 1,165,-1
 384 128 l 1,166,-1
 320 128 l 1,167,-1
 320 192 l 1,164,-1
0 128 m 1,168,-1
 64 128 l 1,169,-1
 64 64 l 1,170,-1
 0 64 l 1,171,-1
 0 128 l 1,168,-1
64 128 m 1,172,-1
 128 128 l 1,173,-1
 128 64 l 1,174,-1
 64 64 l 1,175,-1
 64 128 l 1,172,-1
128 128 m 1,176,-1
 192 128 l 1,177,-1
 192 64 l 1,178,-1
 128 64 l 1,179,-1
 128 128 l 1,176,-1
192 128 m 1,180,-1
 256 128 l 1,181,-1
 256 64 l 1,182,-1
 192 64 l 1,183,-1
 192 128 l 1,180,-1
256 128 m 1,184,-1
 320 128 l 1,185,-1
 320 64 l 1,186,-1
 256 64 l 1,187,-1
 256 128 l 1,184,-1
320 128 m 1,188,-1
 384 128 l 1,189,-1
 384 64 l 1,190,-1
 320 64 l 1,191,-1
 320 128 l 1,188,-1
64 64 m 1,192,-1
 128 64 l 1,193,-1
 128 0 l 1,194,-1
 64 0 l 1,195,-1
 64 64 l 1,192,-1
128 64 m 1,196,-1
 192 64 l 1,197,-1
 192 0 l 1,198,-1
 128 0 l 1,199,-1
 128 64 l 1,196,-1
192 64 m 1,200,-1
 256 64 l 1,201,-1
 256 0 l 1,202,-1
 192 0 l 1,203,-1
 192 64 l 1,200,-1
256 64 m 1,204,-1
 320 64 l 1,205,-1
 320 0 l 1,206,-1
 256 0 l 1,207,-1
 256 64 l 1,204,-1
EndSplineSet
EndChar

StartChar: colon
Encoding: 58 58 28
Width: 256
GlyphClass: 1
Flags: W
LayerCount: 2
Fore
SplineSet
0 576 m 1,0,-1
 64 576 l 1,1,-1
 64 512 l 1,2,-1
 0 512 l 1,3,-1
 0 576 l 1,0,-1
64 576 m 1,4,-1
 128 576 l 1,5,-1
 128 512 l 1,6,-1
 64 512 l 1,7,-1
 64 576 l 1,4,-1
0 512 m 1,8,-1
 64 512 l 1,9,-1
 64 448 l 1,10,-1
 0 448 l 1,11,-1
 0 512 l 1,8,-1
64 512 m 1,12,-1
 128 512 l 1,13,-1
 128 448 l 1,14,-1
 64 448 l 1,15,-1
 64 512 l 1,12,-1
0 256 m 1,16,-1
 64 256 l 1,17,-1
 64 192 l 1,18,-1
 0 192 l 1,19,-1
 0 256 l 1,16,-1
64 256 m 1,20,-1
 128 256 l 1,21,-1
 128 192 l 1,22,-1
 64 192 l 1,23,-1
 64 256 l 1,20,-1
0 192 m 1,24,-1
 64 192 l 1,25,-1
 64 128 l 1,26,-1
 0 128 l 1,27,-1
 0 192 l 1,24,-1
64 192 m 1,28,-1
 128 192 l 1,29,-1
 128 128 l 1,30,-1
 64 128 l 1,31,-1
 64 192 l 1,28,-1
EndSplineSet
EndChar

StartChar: semicolon
Encoding: 59 59 29
Width: 256
GlyphClass: 1
Flags: W
LayerCount: 2
Fore
SplineSet
0 576 m 1,0,-1
 64 576 l 1,1,-1
 64 512 l 1,2,-1
 0 512 l 1,3,-1
 0 576 l 1,0,-1
64 576 m 1,4,-1
 128 576 l 1,5,-1
 128 512 l 1,6,-1
 64 512 l 1,7,-1
 64 576 l 1,4,-1
0 512 m 1,8,-1
 64 512 l 1,9,-1
 64 448 l 1,10,-1
 0 448 l 1,11,-1
 0 512 l 1,8,-1
64 512 m 1,12,-1
 128 512 l 1,13,-1
 128 448 l 1,14,-1
 64 448 l 1,15,-1
 64 512 l 1,12,-1
0 256 m 1,16,-1
 64 256 l 1,17,-1
 64 192 l 1,18,-1
 0 192 l 1,19,-1
 0 256 l 1,16,-1
64 256 m 1,20,-1
 128 256 l 1,21,-1
 128 192 l 1,22,-1
 64 192 l 1,23,-1
 64 256 l 1,20,-1
0 192 m 1,24,-1
 64 192 l 1,25,-1
 64 128 l 1,26,-1
 0 128 l 1,27,-1
 0 192 l 1,24,-1
64 192 m 1,28,-1
 128 192 l 1,29,-1
 128 128 l 1,30,-1
 64 128 l 1,31,-1
 64 192 l 1,28,-1
64 128 m 1,32,-1
 128 128 l 1,33,-1
 128 64 l 1,34,-1
 64 64 l 1,35,-1
 64 128 l 1,32,-1
0 64 m 1,36,-1
 64 64 l 1,37,-1
 64 0 l 1,38,-1
 0 0 l 1,39,-1
 0 64 l 1,36,-1
EndSplineSet
EndChar

StartChar: less
Encoding: 60 60 30
Width: 640
GlyphClass: 1
Flags: W
LayerCount: 2
Fore
SplineSet
384 640 m 1,0,-1
 448 640 l 1,1,-1
 448 576 l 1,2,-1
 384 576 l 1,3,-1
 384 640 l 1,0,-1
448 640 m 1,4,-1
 512 640 l 1,5,-1
 512 576 l 1,6,-1
 448 576 l 1,7,-1
 448 640 l 1,4,-1
256 576 m 1,8,-1
 320 576 l 1,9,-1
 320 512 l 1,10,-1
 256 512 l 1,11,-1
 256 576 l 1,8,-1
320 576 m 1,12,-1
 384 576 l 1,13,-1
 384 512 l 1,14,-1
 320 512 l 1,15,-1
 320 576 l 1,12,-1
384 576 m 1,16,-1
 448 576 l 1,17,-1
 448 512 l 1,18,-1
 384 512 l 1,19,-1
 384 576 l 1,16,-1
448 576 m 1,20,-1
 512 576 l 1,21,-1
 512 512 l 1,22,-1
 448 512 l 1,23,-1
 448 576 l 1,20,-1
128 512 m 1,24,-1
 192 512 l 1,25,-1
 192 448 l 1,26,-1
 128 448 l 1,27,-1
 128 512 l 1,24,-1
192 512 m 1,28,-1
 256 512 l 1,29,-1
 256 448 l 1,30,-1
 192 448 l 1,31,-1
 192 512 l 1,28,-1
256 512 m 1,32,-1
 320 512 l 1,33,-1
 320 448 l 1,34,-1
 256 448 l 1,35,-1
 256 512 l 1,32,-1
320 512 m 1,36,-1
 384 512 l 1,37,-1
 384 448 l 1,38,-1
 320 448 l 1,39,-1
 320 512 l 1,36,-1
0 448 m 1,40,-1
 64 448 l 1,41,-1
 64 384 l 1,42,-1
 0 384 l 1,43,-1
 0 448 l 1,40,-1
64 448 m 1,44,-1
 128 448 l 1,45,-1
 128 384 l 1,46,-1
 64 384 l 1,47,-1
 64 448 l 1,44,-1
128 448 m 1,48,-1
 192 448 l 1,49,-1
 192 384 l 1,50,-1
 128 384 l 1,51,-1
 128 448 l 1,48,-1
192 448 m 1,52,-1
 256 448 l 1,53,-1
 256 384 l 1,54,-1
 192 384 l 1,55,-1
 192 448 l 1,52,-1
0 384 m 1,56,-1
 64 384 l 1,57,-1
 64 320 l 1,58,-1
 0 320 l 1,59,-1
 0 384 l 1,56,-1
64 384 m 1,60,-1
 128 384 l 1,61,-1
 128 320 l 1,62,-1
 64 320 l 1,63,-1
 64 384 l 1,60,-1
0 320 m 1,64,-1
 64 320 l 1,65,-1
 64 256 l 1,66,-1
 0 256 l 1,67,-1
 0 320 l 1,64,-1
64 320 m 1,68,-1
 128 320 l 1,69,-1
 128 256 l 1,70,-1
 64 256 l 1,71,-1
 64 320 l 1,68,-1
128 320 m 1,72,-1
 192 320 l 1,73,-1
 192 256 l 1,74,-1
 128 256 l 1,75,-1
 128 320 l 1,72,-1
192 320 m 1,76,-1
 256 320 l 1,77,-1
 256 256 l 1,78,-1
 192 256 l 1,79,-1
 192 320 l 1,76,-1
128 256 m 1,80,-1
 192 256 l 1,81,-1
 192 192 l 1,82,-1
 128 192 l 1,83,-1
 128 256 l 1,80,-1
192 256 m 1,84,-1
 256 256 l 1,85,-1
 256 192 l 1,86,-1
 192 192 l 1,87,-1
 192 256 l 1,84,-1
256 256 m 1,88,-1
 320 256 l 1,89,-1
 320 192 l 1,90,-1
 256 192 l 1,91,-1
 256 256 l 1,88,-1
320 256 m 1,92,-1
 384 256 l 1,93,-1
 384 192 l 1,94,-1
 320 192 l 1,95,-1
 320 256 l 1,92,-1
256 192 m 1,96,-1
 320 192 l 1,97,-1
 320 128 l 1,98,-1
 256 128 l 1,99,-1
 256 192 l 1,96,-1
320 192 m 1,100,-1
 384 192 l 1,101,-1
 384 128 l 1,102,-1
 320 128 l 1,103,-1
 320 192 l 1,100,-1
384 192 m 1,104,-1
 448 192 l 1,105,-1
 448 128 l 1,106,-1
 384 128 l 1,107,-1
 384 192 l 1,104,-1
448 192 m 1,108,-1
 512 192 l 1,109,-1
 512 128 l 1,110,-1
 448 128 l 1,111,-1
 448 192 l 1,108,-1
384 128 m 1,112,-1
 448 128 l 1,113,-1
 448 64 l 1,114,-1
 384 64 l 1,115,-1
 384 128 l 1,112,-1
448 128 m 1,116,-1
 512 128 l 1,117,-1
 512 64 l 1,118,-1
 448 64 l 1,119,-1
 448 128 l 1,116,-1
EndSplineSet
EndChar

StartChar: equal
Encoding: 61 61 31
Width: 640
GlyphClass: 1
Flags: W
LayerCount: 2
Fore
SplineSet
0 448 m 1,0,-1
 64 448 l 1,1,-1
 64 384 l 1,2,-1
 0 384 l 1,3,-1
 0 448 l 1,0,-1
64 448 m 1,4,-1
 128 448 l 1,5,-1
 128 384 l 1,6,-1
 64 384 l 1,7,-1
 64 448 l 1,4,-1
128 448 m 1,8,-1
 192 448 l 1,9,-1
 192 384 l 1,10,-1
 128 384 l 1,11,-1
 128 448 l 1,8,-1
192 448 m 1,12,-1
 256 448 l 1,13,-1
 256 384 l 1,14,-1
 192 384 l 1,15,-1
 192 448 l 1,12,-1
256 448 m 1,16,-1
 320 448 l 1,17,-1
 320 384 l 1,18,-1
 256 384 l 1,19,-1
 256 448 l 1,16,-1
320 448 m 1,20,-1
 384 448 l 1,21,-1
 384 384 l 1,22,-1
 320 384 l 1,23,-1
 320 448 l 1,20,-1
384 448 m 1,24,-1
 448 448 l 1,25,-1
 448 384 l 1,26,-1
 384 384 l 1,27,-1
 384 448 l 1,24,-1
448 448 m 1,28,-1
 512 448 l 1,29,-1
 512 384 l 1,30,-1
 448 384 l 1,31,-1
 448 448 l 1,28,-1
0 384 m 1,32,-1
 64 384 l 1,33,-1
 64 320 l 1,34,-1
 0 320 l 1,35,-1
 0 384 l 1,32,-1
64 384 m 1,36,-1
 128 384 l 1,37,-1
 128 320 l 1,38,-1
 64 320 l 1,39,-1
 64 384 l 1,36,-1
128 384 m 1,40,-1
 192 384 l 1,41,-1
 192 320 l 1,42,-1
 128 320 l 1,43,-1
 128 384 l 1,40,-1
192 384 m 1,44,-1
 256 384 l 1,45,-1
 256 320 l 1,46,-1
 192 320 l 1,47,-1
 192 384 l 1,44,-1
256 384 m 1,48,-1
 320 384 l 1,49,-1
 320 320 l 1,50,-1
 256 320 l 1,51,-1
 256 384 l 1,48,-1
320 384 m 1,52,-1
 384 384 l 1,53,-1
 384 320 l 1,54,-1
 320 320 l 1,55,-1
 320 384 l 1,52,-1
384 384 m 1,56,-1
 448 384 l 1,57,-1
 448 320 l 1,58,-1
 384 320 l 1,59,-1
 384 384 l 1,56,-1
448 384 m 1,60,-1
 512 384 l 1,61,-1
 512 320 l 1,62,-1
 448 320 l 1,63,-1
 448 384 l 1,60,-1
0 256 m 1,64,-1
 64 256 l 1,65,-1
 64 192 l 1,66,-1
 0 192 l 1,67,-1
 0 256 l 1,64,-1
64 256 m 1,68,-1
 128 256 l 1,69,-1
 128 192 l 1,70,-1
 64 192 l 1,71,-1
 64 256 l 1,68,-1
128 256 m 1,72,-1
 192 256 l 1,73,-1
 192 192 l 1,74,-1
 128 192 l 1,75,-1
 128 256 l 1,72,-1
192 256 m 1,76,-1
 256 256 l 1,77,-1
 256 192 l 1,78,-1
 192 192 l 1,79,-1
 192 256 l 1,76,-1
256 256 m 1,80,-1
 320 256 l 1,81,-1
 320 192 l 1,82,-1
 256 192 l 1,83,-1
 256 256 l 1,80,-1
320 256 m 1,84,-1
 384 256 l 1,85,-1
 384 192 l 1,86,-1
 320 192 l 1,87,-1
 320 256 l 1,84,-1
384 256 m 1,88,-1
 448 256 l 1,89,-1
 448 192 l 1,90,-1
 384 192 l 1,91,-1
 384 256 l 1,88,-1
448 256 m 1,92,-1
 512 256 l 1,93,-1
 512 192 l 1,94,-1
 448 192 l 1,95,-1
 448 256 l 1,92,-1
0 192 m 1,96,-1
 64 192 l 1,97,-1
 64 128 l 1,98,-1
 0 128 l 1,99,-1
 0 192 l 1,96,-1
64 192 m 1,100,-1
 128 192 l 1,101,-1
 128 128 l 1,102,-1
 64 128 l 1,103,-1
 64 192 l 1,100,-1
128 192 m 1,104,-1
 192 192 l 1,105,-1
 192 128 l 1,106,-1
 128 128 l 1,107,-1
 128 192 l 1,104,-1
192 192 m 1,108,-1
 256 192 l 1,109,-1
 256 128 l 1,110,-1
 192 128 l 1,111,-1
 192 192 l 1,108,-1
256 192 m 1,112,-1
 320 192 l 1,113,-1
 320 128 l 1,114,-1
 256 128 l 1,115,-1
 256 192 l 1,112,-1
320 192 m 1,116,-1
 384 192 l 1,117,-1
 384 128 l 1,118,-1
 320 128 l 1,119,-1
 320 192 l 1,116,-1
384 192 m 1,120,-1
 448 192 l 1,121,-1
 448 128 l 1,122,-1
 384 128 l 1,123,-1
 384 192 l 1,120,-1
448 192 m 1,124,-1
 512 192 l 1,125,-1
 512 128 l 1,126,-1
 448 128 l 1,127,-1
 448 192 l 1,124,-1
EndSplineSet
EndChar

StartChar: greater
Encoding: 62 62 32
Width: 640
GlyphClass: 1
Flags: W
LayerCount: 2
Fore
SplineSet
0 640 m 1,0,-1
 64 640 l 1,1,-1
 64 576 l 1,2,-1
 0 576 l 1,3,-1
 0 640 l 1,0,-1
64 640 m 1,4,-1
 128 640 l 1,5,-1
 128 576 l 1,6,-1
 64 576 l 1,7,-1
 64 640 l 1,4,-1
0 576 m 1,8,-1
 64 576 l 1,9,-1
 64 512 l 1,10,-1
 0 512 l 1,11,-1
 0 576 l 1,8,-1
64 576 m 1,12,-1
 128 576 l 1,13,-1
 128 512 l 1,14,-1
 64 512 l 1,15,-1
 64 576 l 1,12,-1
128 576 m 1,16,-1
 192 576 l 1,17,-1
 192 512 l 1,18,-1
 128 512 l 1,19,-1
 128 576 l 1,16,-1
192 576 m 1,20,-1
 256 576 l 1,21,-1
 256 512 l 1,22,-1
 192 512 l 1,23,-1
 192 576 l 1,20,-1
128 512 m 1,24,-1
 192 512 l 1,25,-1
 192 448 l 1,26,-1
 128 448 l 1,27,-1
 128 512 l 1,24,-1
192 512 m 1,28,-1
 256 512 l 1,29,-1
 256 448 l 1,30,-1
 192 448 l 1,31,-1
 192 512 l 1,28,-1
256 512 m 1,32,-1
 320 512 l 1,33,-1
 320 448 l 1,34,-1
 256 448 l 1,35,-1
 256 512 l 1,32,-1
320 512 m 1,36,-1
 384 512 l 1,37,-1
 384 448 l 1,38,-1
 320 448 l 1,39,-1
 320 512 l 1,36,-1
256 448 m 1,40,-1
 320 448 l 1,41,-1
 320 384 l 1,42,-1
 256 384 l 1,43,-1
 256 448 l 1,40,-1
320 448 m 1,44,-1
 384 448 l 1,45,-1
 384 384 l 1,46,-1
 320 384 l 1,47,-1
 320 448 l 1,44,-1
384 448 m 1,48,-1
 448 448 l 1,49,-1
 448 384 l 1,50,-1
 384 384 l 1,51,-1
 384 448 l 1,48,-1
448 448 m 1,52,-1
 512 448 l 1,53,-1
 512 384 l 1,54,-1
 448 384 l 1,55,-1
 448 448 l 1,52,-1
384 384 m 1,56,-1
 448 384 l 1,57,-1
 448 320 l 1,58,-1
 384 320 l 1,59,-1
 384 384 l 1,56,-1
448 384 m 1,60,-1
 512 384 l 1,61,-1
 512 320 l 1,62,-1
 448 320 l 1,63,-1
 448 384 l 1,60,-1
256 320 m 1,64,-1
 320 320 l 1,65,-1
 320 256 l 1,66,-1
 256 256 l 1,67,-1
 256 320 l 1,64,-1
320 320 m 1,68,-1
 384 320 l 1,69,-1
 384 256 l 1,70,-1
 320 256 l 1,71,-1
 320 320 l 1,68,-1
384 320 m 1,72,-1
 448 320 l 1,73,-1
 448 256 l 1,74,-1
 384 256 l 1,75,-1
 384 320 l 1,72,-1
448 320 m 1,76,-1
 512 320 l 1,77,-1
 512 256 l 1,78,-1
 448 256 l 1,79,-1
 448 320 l 1,76,-1
128 256 m 1,80,-1
 192 256 l 1,81,-1
 192 192 l 1,82,-1
 128 192 l 1,83,-1
 128 256 l 1,80,-1
192 256 m 1,84,-1
 256 256 l 1,85,-1
 256 192 l 1,86,-1
 192 192 l 1,87,-1
 192 256 l 1,84,-1
256 256 m 1,88,-1
 320 256 l 1,89,-1
 320 192 l 1,90,-1
 256 192 l 1,91,-1
 256 256 l 1,88,-1
320 256 m 1,92,-1
 384 256 l 1,93,-1
 384 192 l 1,94,-1
 320 192 l 1,95,-1
 320 256 l 1,92,-1
0 192 m 1,96,-1
 64 192 l 1,97,-1
 64 128 l 1,98,-1
 0 128 l 1,99,-1
 0 192 l 1,96,-1
64 192 m 1,100,-1
 128 192 l 1,101,-1
 128 128 l 1,102,-1
 64 128 l 1,103,-1
 64 192 l 1,100,-1
128 192 m 1,104,-1
 192 192 l 1,105,-1
 192 128 l 1,106,-1
 128 128 l 1,107,-1
 128 192 l 1,104,-1
192 192 m 1,108,-1
 256 192 l 1,109,-1
 256 128 l 1,110,-1
 192 128 l 1,111,-1
 192 192 l 1,108,-1
0 128 m 1,112,-1
 64 128 l 1,113,-1
 64 64 l 1,114,-1
 0 64 l 1,115,-1
 0 128 l 1,112,-1
64 128 m 1,116,-1
 128 128 l 1,117,-1
 128 64 l 1,118,-1
 64 64 l 1,119,-1
 64 128 l 1,116,-1
EndSplineSet
EndChar

StartChar: question
Encoding: 63 63 33
Width: 512
GlyphClass: 1
Flags: W
LayerCount: 2
Fore
SplineSet
64 768 m 1,0,-1
 128 768 l 1,1,-1
 128 704 l 1,2,-1
 64 704 l 1,3,-1
 64 768 l 1,0,-1
128 768 m 1,4,-1
 192 768 l 1,5,-1
 192 704 l 1,6,-1
 128 704 l 1,7,-1
 128 768 l 1,4,-1
192 768 m 1,8,-1
 256 768 l 1,9,-1
 256 704 l 1,10,-1
 192 704 l 1,11,-1
 192 768 l 1,8,-1
256 768 m 1,12,-1
 320 768 l 1,13,-1
 320 704 l 1,14,-1
 256 704 l 1,15,-1
 256 768 l 1,12,-1
0 704 m 1,16,-1
 64 704 l 1,17,-1
 64 640 l 1,18,-1
 0 640 l 1,19,-1
 0 704 l 1,16,-1
64 704 m 1,20,-1
 128 704 l 1,21,-1
 128 640 l 1,22,-1
 64 640 l 1,23,-1
 64 704 l 1,20,-1
128 704 m 1,24,-1
 192 704 l 1,25,-1
 192 640 l 1,26,-1
 128 640 l 1,27,-1
 128 704 l 1,24,-1
192 704 m 1,28,-1
 256 704 l 1,29,-1
 256 640 l 1,30,-1
 192 640 l 1,31,-1
 192 704 l 1,28,-1
256 704 m 1,32,-1
 320 704 l 1,33,-1
 320 640 l 1,34,-1
 256 640 l 1,35,-1
 256 704 l 1,32,-1
320 704 m 1,36,-1
 384 704 l 1,37,-1
 384 640 l 1,38,-1
 320 640 l 1,39,-1
 320 704 l 1,36,-1
0 640 m 1,40,-1
 64 640 l 1,41,-1
 64 576 l 1,42,-1
 0 576 l 1,43,-1
 0 640 l 1,40,-1
64 640 m 1,44,-1
 128 640 l 1,45,-1
 128 576 l 1,46,-1
 64 576 l 1,47,-1
 64 640 l 1,44,-1
256 640 m 1,48,-1
 320 640 l 1,49,-1
 320 576 l 1,50,-1
 256 576 l 1,51,-1
 256 640 l 1,48,-1
320 640 m 1,52,-1
 384 640 l 1,53,-1
 384 576 l 1,54,-1
 320 576 l 1,55,-1
 320 640 l 1,52,-1
0 576 m 1,56,-1
 64 576 l 1,57,-1
 64 512 l 1,58,-1
 0 512 l 1,59,-1
 0 576 l 1,56,-1
64 576 m 1,60,-1
 128 576 l 1,61,-1
 128 512 l 1,62,-1
 64 512 l 1,63,-1
 64 576 l 1,60,-1
256 576 m 1,64,-1
 320 576 l 1,65,-1
 320 512 l 1,66,-1
 256 512 l 1,67,-1
 256 576 l 1,64,-1
320 576 m 1,68,-1
 384 576 l 1,69,-1
 384 512 l 1,70,-1
 320 512 l 1,71,-1
 320 576 l 1,68,-1
256 512 m 1,72,-1
 320 512 l 1,73,-1
 320 448 l 1,74,-1
 256 448 l 1,75,-1
 256 512 l 1,72,-1
320 512 m 1,76,-1
 384 512 l 1,77,-1
 384 448 l 1,78,-1
 320 448 l 1,79,-1
 320 512 l 1,76,-1
192 448 m 1,80,-1
 256 448 l 1,81,-1
 256 384 l 1,82,-1
 192 384 l 1,83,-1
 192 448 l 1,80,-1
256 448 m 1,84,-1
 320 448 l 1,85,-1
 320 384 l 1,86,-1
 256 384 l 1,87,-1
 256 448 l 1,84,-1
320 448 m 1,88,-1
 384 448 l 1,89,-1
 384 384 l 1,90,-1
 320 384 l 1,91,-1
 320 448 l 1,88,-1
128 384 m 1,92,-1
 192 384 l 1,93,-1
 192 320 l 1,94,-1
 128 320 l 1,95,-1
 128 384 l 1,92,-1
192 384 m 1,96,-1
 256 384 l 1,97,-1
 256 320 l 1,98,-1
 192 320 l 1,99,-1
 192 384 l 1,96,-1
256 384 m 1,100,-1
 320 384 l 1,101,-1
 320 320 l 1,102,-1
 256 320 l 1,103,-1
 256 384 l 1,100,-1
128 320 m 1,104,-1
 192 320 l 1,105,-1
 192 256 l 1,106,-1
 128 256 l 1,107,-1
 128 320 l 1,104,-1
192 320 m 1,108,-1
 256 320 l 1,109,-1
 256 256 l 1,110,-1
 192 256 l 1,111,-1
 192 320 l 1,108,-1
128 256 m 1,112,-1
 192 256 l 1,113,-1
 192 192 l 1,114,-1
 128 192 l 1,115,-1
 128 256 l 1,112,-1
192 256 m 1,116,-1
 256 256 l 1,117,-1
 256 192 l 1,118,-1
 192 192 l 1,119,-1
 192 256 l 1,116,-1
128 128 m 1,120,-1
 192 128 l 1,121,-1
 192 64 l 1,122,-1
 128 64 l 1,123,-1
 128 128 l 1,120,-1
192 128 m 1,124,-1
 256 128 l 1,125,-1
 256 64 l 1,126,-1
 192 64 l 1,127,-1
 192 128 l 1,124,-1
128 64 m 1,128,-1
 192 64 l 1,129,-1
 192 0 l 1,130,-1
 128 0 l 1,131,-1
 128 64 l 1,128,-1
192 64 m 1,132,-1
 256 64 l 1,133,-1
 256 0 l 1,134,-1
 192 0 l 1,135,-1
 192 64 l 1,132,-1
EndSplineSet
EndChar

StartChar: at
Encoding: 64 64 34
Width: 640
GlyphClass: 1
Flags: W
LayerCount: 2
Fore
SplineSet
192 704 m 1,0,-1
 256 704 l 1,1,-1
 256 640 l 1,2,-1
 192 640 l 1,3,-1
 192 704 l 1,0,-1
256 704 m 1,4,-1
 320 704 l 1,5,-1
 320 640 l 1,6,-1
 256 640 l 1,7,-1
 256 704 l 1,4,-1
320 704 m 1,8,-1
 384 704 l 1,9,-1
 384 640 l 1,10,-1
 320 640 l 1,11,-1
 320 704 l 1,8,-1
384 704 m 1,12,-1
 448 704 l 1,13,-1
 448 640 l 1,14,-1
 384 640 l 1,15,-1
 384 704 l 1,12,-1
128 640 m 1,16,-1
 192 640 l 1,17,-1
 192 576 l 1,18,-1
 128 576 l 1,19,-1
 128 640 l 1,16,-1
192 640 m 1,20,-1
 256 640 l 1,21,-1
 256 576 l 1,22,-1
 192 576 l 1,23,-1
 192 640 l 1,20,-1
448 640 m 1,24,-1
 512 640 l 1,25,-1
 512 576 l 1,26,-1
 448 576 l 1,27,-1
 448 640 l 1,24,-1
64 576 m 1,28,-1
 128 576 l 1,29,-1
 128 512 l 1,30,-1
 64 512 l 1,31,-1
 64 576 l 1,28,-1
320 576 m 1,32,-1
 384 576 l 1,33,-1
 384 512 l 1,34,-1
 320 512 l 1,35,-1
 320 576 l 1,32,-1
448 576 m 1,36,-1
 512 576 l 1,37,-1
 512 512 l 1,38,-1
 448 512 l 1,39,-1
 448 576 l 1,36,-1
0 512 m 1,40,-1
 64 512 l 1,41,-1
 64 448 l 1,42,-1
 0 448 l 1,43,-1
 0 512 l 1,40,-1
192 512 m 1,44,-1
 256 512 l 1,45,-1
 256 448 l 1,46,-1
 192 448 l 1,47,-1
 192 512 l 1,44,-1
256 512 m 1,48,-1
 320 512 l 1,49,-1
 320 448 l 1,50,-1
 256 448 l 1,51,-1
 256 512 l 1,48,-1
320 512 m 1,52,-1
 384 512 l 1,53,-1
 384 448 l 1,54,-1
 320 448 l 1,55,-1
 320 512 l 1,52,-1
448 512 m 1,56,-1
 512 512 l 1,57,-1
 512 448 l 1,58,-1
 448 448 l 1,59,-1
 448 512 l 1,56,-1
0 448 m 1,60,-1
 64 448 l 1,61,-1
 64 384 l 1,62,-1
 0 384 l 1,63,-1
 0 448 l 1,60,-1
128 448 m 1,64,-1
 192 448 l 1,65,-1
 192 384 l 1,66,-1
 128 384 l 1,67,-1
 128 448 l 1,64,-1
320 448 m 1,68,-1
 384 448 l 1,69,-1
 384 384 l 1,70,-1
 320 384 l 1,71,-1
 320 448 l 1,68,-1
448 448 m 1,72,-1
 512 448 l 1,73,-1
 512 384 l 1,74,-1
 448 384 l 1,75,-1
 448 448 l 1,72,-1
0 384 m 1,76,-1
 64 384 l 1,77,-1
 64 320 l 1,78,-1
 0 320 l 1,79,-1
 0 384 l 1,76,-1
128 384 m 1,80,-1
 192 384 l 1,81,-1
 192 320 l 1,82,-1
 128 320 l 1,83,-1
 128 384 l 1,80,-1
320 384 m 1,84,-1
 384 384 l 1,85,-1
 384 320 l 1,86,-1
 320 320 l 1,87,-1
 320 384 l 1,84,-1
448 384 m 1,88,-1
 512 384 l 1,89,-1
 512 320 l 1,90,-1
 448 320 l 1,91,-1
 448 384 l 1,88,-1
0 320 m 1,92,-1
 64 320 l 1,93,-1
 64 256 l 1,94,-1
 0 256 l 1,95,-1
 0 320 l 1,92,-1
128 320 m 1,96,-1
 192 320 l 1,97,-1
 192 256 l 1,98,-1
 128 256 l 1,99,-1
 128 320 l 1,96,-1
320 320 m 1,100,-1
 384 320 l 1,101,-1
 384 256 l 1,102,-1
 320 256 l 1,103,-1
 320 320 l 1,100,-1
448 320 m 1,104,-1
 512 320 l 1,105,-1
 512 256 l 1,106,-1
 448 256 l 1,107,-1
 448 320 l 1,104,-1
0 256 m 1,108,-1
 64 256 l 1,109,-1
 64 192 l 1,110,-1
 0 192 l 1,111,-1
 0 256 l 1,108,-1
128 256 m 1,112,-1
 192 256 l 1,113,-1
 192 192 l 1,114,-1
 128 192 l 1,115,-1
 128 256 l 1,112,-1
192 256 m 1,116,-1
 256 256 l 1,117,-1
 256 192 l 1,118,-1
 192 192 l 1,119,-1
 192 256 l 1,116,-1
256 256 m 1,120,-1
 320 256 l 1,121,-1
 320 192 l 1,122,-1
 256 192 l 1,123,-1
 256 256 l 1,120,-1
384 256 m 1,124,-1
 448 256 l 1,125,-1
 448 192 l 1,126,-1
 384 192 l 1,127,-1
 384 256 l 1,124,-1
0 192 m 1,128,-1
 64 192 l 1,129,-1
 64 128 l 1,130,-1
 0 128 l 1,131,-1
 0 192 l 1,128,-1
64 128 m 1,132,-1
 128 128 l 1,133,-1
 128 64 l 1,134,-1
 64 64 l 1,135,-1
 64 128 l 1,132,-1
448 128 m 1,136,-1
 512 128 l 1,137,-1
 512 64 l 1,138,-1
 448 64 l 1,139,-1
 448 128 l 1,136,-1
128 64 m 1,140,-1
 192 64 l 1,141,-1
 192 0 l 1,142,-1
 128 0 l 1,143,-1
 128 64 l 1,140,-1
192 64 m 1,144,-1
 256 64 l 1,145,-1
 256 0 l 1,146,-1
 192 0 l 1,147,-1
 192 64 l 1,144,-1
256 64 m 1,148,-1
 320 64 l 1,149,-1
 320 0 l 1,150,-1
 256 0 l 1,151,-1
 256 64 l 1,148,-1
320 64 m 1,152,-1
 384 64 l 1,153,-1
 384 0 l 1,154,-1
 320 0 l 1,155,-1
 320 64 l 1,152,-1
384 64 m 1,156,-1
 448 64 l 1,157,-1
 448 0 l 1,158,-1
 384 0 l 1,159,-1
 384 64 l 1,156,-1
EndSplineSet
EndChar

StartChar: A
Encoding: 65 65 35
Width: 640
GlyphClass: 1
Flags: W
LayerCount: 2
Fore
SplineSet
192 768 m 1,0,-1
 256 768 l 1,1,-1
 256 704 l 1,2,-1
 192 704 l 1,3,-1
 192 768 l 1,0,-1
256 768 m 1,4,-1
 320 768 l 1,5,-1
 320 704 l 1,6,-1
 256 704 l 1,7,-1
 256 768 l 1,4,-1
192 704 m 1,8,-1
 256 704 l 1,9,-1
 256 640 l 1,10,-1
 192 640 l 1,11,-1
 192 704 l 1,8,-1
256 704 m 1,12,-1
 320 704 l 1,13,-1
 320 640 l 1,14,-1
 256 640 l 1,15,-1
 256 704 l 1,12,-1
128 640 m 1,16,-1
 192 640 l 1,17,-1
 192 576 l 1,18,-1
 128 576 l 1,19,-1
 128 640 l 1,16,-1
192 640 m 1,20,-1
 256 640 l 1,21,-1
 256 576 l 1,22,-1
 192 576 l 1,23,-1
 192 640 l 1,20,-1
256 640 m 1,24,-1
 320 640 l 1,25,-1
 320 576 l 1,26,-1
 256 576 l 1,27,-1
 256 640 l 1,24,-1
320 640 m 1,28,-1
 384 640 l 1,29,-1
 384 576 l 1,30,-1
 320 576 l 1,31,-1
 320 640 l 1,28,-1
128 576 m 1,32,-1
 192 576 l 1,33,-1
 192 512 l 1,34,-1
 128 512 l 1,35,-1
 128 576 l 1,32,-1
192 576 m 1,36,-1
 256 576 l 1,37,-1
 256 512 l 1,38,-1
 192 512 l 1,39,-1
 192 576 l 1,36,-1
256 576 m 1,40,-1
 320 576 l 1,41,-1
 320 512 l 1,42,-1
 256 512 l 1,43,-1
 256 576 l 1,40,-1
320 576 m 1,44,-1
 384 576 l 1,45,-1
 384 512 l 1,46,-1
 320 512 l 1,47,-1
 320 576 l 1,44,-1
128 512 m 1,48,-1
 192 512 l 1,49,-1
 192 448 l 1,50,-1
 128 448 l 1,51,-1
 128 512 l 1,48,-1
192 512 m 1,52,-1
 256 512 l 1,53,-1
 256 448 l 1,54,-1
 192 448 l 1,55,-1
 192 512 l 1,52,-1
256 512 m 1,56,-1
 320 512 l 1,57,-1
 320 448 l 1,58,-1
 256 448 l 1,59,-1
 256 512 l 1,56,-1
320 512 m 1,60,-1
 384 512 l 1,61,-1
 384 448 l 1,62,-1
 320 448 l 1,63,-1
 320 512 l 1,60,-1
128 448 m 1,64,-1
 192 448 l 1,65,-1
 192 384 l 1,66,-1
 128 384 l 1,67,-1
 128 448 l 1,64,-1
192 448 m 1,68,-1
 256 448 l 1,69,-1
 256 384 l 1,70,-1
 192 384 l 1,71,-1
 192 448 l 1,68,-1
256 448 m 1,72,-1
 320 448 l 1,73,-1
 320 384 l 1,74,-1
 256 384 l 1,75,-1
 256 448 l 1,72,-1
320 448 m 1,76,-1
 384 448 l 1,77,-1
 384 384 l 1,78,-1
 320 384 l 1,79,-1
 320 448 l 1,76,-1
64 384 m 1,80,-1
 128 384 l 1,81,-1
 128 320 l 1,82,-1
 64 320 l 1,83,-1
 64 384 l 1,80,-1
128 384 m 1,84,-1
 192 384 l 1,85,-1
 192 320 l 1,86,-1
 128 320 l 1,87,-1
 128 384 l 1,84,-1
320 384 m 1,88,-1
 384 384 l 1,89,-1
 384 320 l 1,90,-1
 320 320 l 1,91,-1
 320 384 l 1,88,-1
384 384 m 1,92,-1
 448 384 l 1,93,-1
 448 320 l 1,94,-1
 384 320 l 1,95,-1
 384 384 l 1,92,-1
64 320 m 1,96,-1
 128 320 l 1,97,-1
 128 256 l 1,98,-1
 64 256 l 1,99,-1
 64 320 l 1,96,-1
128 320 m 1,100,-1
 192 320 l 1,101,-1
 192 256 l 1,102,-1
 128 256 l 1,103,-1
 128 320 l 1,100,-1
320 320 m 1,104,-1
 384 320 l 1,105,-1
 384 256 l 1,106,-1
 320 256 l 1,107,-1
 320 320 l 1,104,-1
384 320 m 1,108,-1
 448 320 l 1,109,-1
 448 256 l 1,110,-1
 384 256 l 1,111,-1
 384 320 l 1,108,-1
64 256 m 1,112,-1
 128 256 l 1,113,-1
 128 192 l 1,114,-1
 64 192 l 1,115,-1
 64 256 l 1,112,-1
128 256 m 1,116,-1
 192 256 l 1,117,-1
 192 192 l 1,118,-1
 128 192 l 1,119,-1
 128 256 l 1,116,-1
192 256 m 1,120,-1
 256 256 l 1,121,-1
 256 192 l 1,122,-1
 192 192 l 1,123,-1
 192 256 l 1,120,-1
256 256 m 1,124,-1
 320 256 l 1,125,-1
 320 192 l 1,126,-1
 256 192 l 1,127,-1
 256 256 l 1,124,-1
320 256 m 1,128,-1
 384 256 l 1,129,-1
 384 192 l 1,130,-1
 320 192 l 1,131,-1
 320 256 l 1,128,-1
384 256 m 1,132,-1
 448 256 l 1,133,-1
 448 192 l 1,134,-1
 384 192 l 1,135,-1
 384 256 l 1,132,-1
64 192 m 1,136,-1
 128 192 l 1,137,-1
 128 128 l 1,138,-1
 64 128 l 1,139,-1
 64 192 l 1,136,-1
128 192 m 1,140,-1
 192 192 l 1,141,-1
 192 128 l 1,142,-1
 128 128 l 1,143,-1
 128 192 l 1,140,-1
192 192 m 1,144,-1
 256 192 l 1,145,-1
 256 128 l 1,146,-1
 192 128 l 1,147,-1
 192 192 l 1,144,-1
256 192 m 1,148,-1
 320 192 l 1,149,-1
 320 128 l 1,150,-1
 256 128 l 1,151,-1
 256 192 l 1,148,-1
320 192 m 1,152,-1
 384 192 l 1,153,-1
 384 128 l 1,154,-1
 320 128 l 1,155,-1
 320 192 l 1,152,-1
384 192 m 1,156,-1
 448 192 l 1,157,-1
 448 128 l 1,158,-1
 384 128 l 1,159,-1
 384 192 l 1,156,-1
0 128 m 1,160,-1
 64 128 l 1,161,-1
 64 64 l 1,162,-1
 0 64 l 1,163,-1
 0 128 l 1,160,-1
64 128 m 1,164,-1
 128 128 l 1,165,-1
 128 64 l 1,166,-1
 64 64 l 1,167,-1
 64 128 l 1,164,-1
128 128 m 1,168,-1
 192 128 l 1,169,-1
 192 64 l 1,170,-1
 128 64 l 1,171,-1
 128 128 l 1,168,-1
320 128 m 1,172,-1
 384 128 l 1,173,-1
 384 64 l 1,174,-1
 320 64 l 1,175,-1
 320 128 l 1,172,-1
384 128 m 1,176,-1
 448 128 l 1,177,-1
 448 64 l 1,178,-1
 384 64 l 1,179,-1
 384 128 l 1,176,-1
448 128 m 1,180,-1
 512 128 l 1,181,-1
 512 64 l 1,182,-1
 448 64 l 1,183,-1
 448 128 l 1,180,-1
0 64 m 1,184,-1
 64 64 l 1,185,-1
 64 0 l 1,186,-1
 0 0 l 1,187,-1
 0 64 l 1,184,-1
64 64 m 1,188,-1
 128 64 l 1,189,-1
 128 0 l 1,190,-1
 64 0 l 1,191,-1
 64 64 l 1,188,-1
384 64 m 1,192,-1
 448 64 l 1,193,-1
 448 0 l 1,194,-1
 384 0 l 1,195,-1
 384 64 l 1,192,-1
448 64 m 1,196,-1
 512 64 l 1,197,-1
 512 0 l 1,198,-1
 448 0 l 1,199,-1
 448 64 l 1,196,-1
EndSplineSet
EndChar

StartChar: B
Encoding: 66 66 36
Width: 640
GlyphClass: 1
Flags: W
LayerCount: 2
Fore
SplineSet
64 768 m 1,0,-1
 128 768 l 1,1,-1
 128 704 l 1,2,-1
 64 704 l 1,3,-1
 64 768 l 1,0,-1
128 768 m 1,4,-1
 192 768 l 1,5,-1
 192 704 l 1,6,-1
 128 704 l 1,7,-1
 128 768 l 1,4,-1
192 768 m 1,8,-1
 256 768 l 1,9,-1
 256 704 l 1,10,-1
 192 704 l 1,11,-1
 192 768 l 1,8,-1
256 768 m 1,12,-1
 320 768 l 1,13,-1
 320 704 l 1,14,-1
 256 704 l 1,15,-1
 256 768 l 1,12,-1
320 768 m 1,16,-1
 384 768 l 1,17,-1
 384 704 l 1,18,-1
 320 704 l 1,19,-1
 320 768 l 1,16,-1
384 768 m 1,20,-1
 448 768 l 1,21,-1
 448 704 l 1,22,-1
 384 704 l 1,23,-1
 384 768 l 1,20,-1
0 704 m 1,24,-1
 64 704 l 1,25,-1
 64 640 l 1,26,-1
 0 640 l 1,27,-1
 0 704 l 1,24,-1
64 704 m 1,28,-1
 128 704 l 1,29,-1
 128 640 l 1,30,-1
 64 640 l 1,31,-1
 64 704 l 1,28,-1
128 704 m 1,32,-1
 192 704 l 1,33,-1
 192 640 l 1,34,-1
 128 640 l 1,35,-1
 128 704 l 1,32,-1
192 704 m 1,36,-1
 256 704 l 1,37,-1
 256 640 l 1,38,-1
 192 640 l 1,39,-1
 192 704 l 1,36,-1
256 704 m 1,40,-1
 320 704 l 1,41,-1
 320 640 l 1,42,-1
 256 640 l 1,43,-1
 256 704 l 1,40,-1
320 704 m 1,44,-1
 384 704 l 1,45,-1
 384 640 l 1,46,-1
 320 640 l 1,47,-1
 320 704 l 1,44,-1
384 704 m 1,48,-1
 448 704 l 1,49,-1
 448 640 l 1,50,-1
 384 640 l 1,51,-1
 384 704 l 1,48,-1
448 704 m 1,52,-1
 512 704 l 1,53,-1
 512 640 l 1,54,-1
 448 640 l 1,55,-1
 448 704 l 1,52,-1
0 640 m 1,56,-1
 64 640 l 1,57,-1
 64 576 l 1,58,-1
 0 576 l 1,59,-1
 0 640 l 1,56,-1
64 640 m 1,60,-1
 128 640 l 1,61,-1
 128 576 l 1,62,-1
 64 576 l 1,63,-1
 64 640 l 1,60,-1
128 640 m 1,64,-1
 192 640 l 1,65,-1
 192 576 l 1,66,-1
 128 576 l 1,67,-1
 128 640 l 1,64,-1
320 640 m 1,68,-1
 384 640 l 1,69,-1
 384 576 l 1,70,-1
 320 576 l 1,71,-1
 320 640 l 1,68,-1
384 640 m 1,72,-1
 448 640 l 1,73,-1
 448 576 l 1,74,-1
 384 576 l 1,75,-1
 384 640 l 1,72,-1
448 640 m 1,76,-1
 512 640 l 1,77,-1
 512 576 l 1,78,-1
 448 576 l 1,79,-1
 448 640 l 1,76,-1
0 576 m 1,80,-1
 64 576 l 1,81,-1
 64 512 l 1,82,-1
 0 512 l 1,83,-1
 0 576 l 1,80,-1
64 576 m 1,84,-1
 128 576 l 1,85,-1
 128 512 l 1,86,-1
 64 512 l 1,87,-1
 64 576 l 1,84,-1
384 576 m 1,88,-1
 448 576 l 1,89,-1
 448 512 l 1,90,-1
 384 512 l 1,91,-1
 384 576 l 1,88,-1
448 576 m 1,92,-1
 512 576 l 1,93,-1
 512 512 l 1,94,-1
 448 512 l 1,95,-1
 448 576 l 1,92,-1
0 512 m 1,96,-1
 64 512 l 1,97,-1
 64 448 l 1,98,-1
 0 448 l 1,99,-1
 0 512 l 1,96,-1
64 512 m 1,100,-1
 128 512 l 1,101,-1
 128 448 l 1,102,-1
 64 448 l 1,103,-1
 64 512 l 1,100,-1
128 512 m 1,104,-1
 192 512 l 1,105,-1
 192 448 l 1,106,-1
 128 448 l 1,107,-1
 128 512 l 1,104,-1
320 512 m 1,108,-1
 384 512 l 1,109,-1
 384 448 l 1,110,-1
 320 448 l 1,111,-1
 320 512 l 1,108,-1
384 512 m 1,112,-1
 448 512 l 1,113,-1
 448 448 l 1,114,-1
 384 448 l 1,115,-1
 384 512 l 1,112,-1
448 512 m 1,116,-1
 512 512 l 1,117,-1
 512 448 l 1,118,-1
 448 448 l 1,119,-1
 448 512 l 1,116,-1
0 448 m 1,120,-1
 64 448 l 1,121,-1
 64 384 l 1,122,-1
 0 384 l 1,123,-1
 0 448 l 1,120,-1
64 448 m 1,124,-1
 128 448 l 1,125,-1
 128 384 l 1,126,-1
 64 384 l 1,127,-1
 64 448 l 1,124,-1
128 448 m 1,128,-1
 192 448 l 1,129,-1
 192 384 l 1,130,-1
 128 384 l 1,131,-1
 128 448 l 1,128,-1
192 448 m 1,132,-1
 256 448 l 1,133,-1
 256 384 l 1,134,-1
 192 384 l 1,135,-1
 192 448 l 1,132,-1
256 448 m 1,136,-1
 320 448 l 1,137,-1
 320 384 l 1,138,-1
 256 384 l 1,139,-1
 256 448 l 1,136,-1
320 448 m 1,140,-1
 384 448 l 1,141,-1
 384 384 l 1,142,-1
 320 384 l 1,143,-1
 320 448 l 1,140,-1
384 448 m 1,144,-1
 448 448 l 1,145,-1
 448 384 l 1,146,-1
 384 384 l 1,147,-1
 384 448 l 1,144,-1
0 384 m 1,148,-1
 64 384 l 1,149,-1
 64 320 l 1,150,-1
 0 320 l 1,151,-1
 0 384 l 1,148,-1
64 384 m 1,152,-1
 128 384 l 1,153,-1
 128 320 l 1,154,-1
 64 320 l 1,155,-1
 64 384 l 1,152,-1
128 384 m 1,156,-1
 192 384 l 1,157,-1
 192 320 l 1,158,-1
 128 320 l 1,159,-1
 128 384 l 1,156,-1
192 384 m 1,160,-1
 256 384 l 1,161,-1
 256 320 l 1,162,-1
 192 320 l 1,163,-1
 192 384 l 1,160,-1
256 384 m 1,164,-1
 320 384 l 1,165,-1
 320 320 l 1,166,-1
 256 320 l 1,167,-1
 256 384 l 1,164,-1
320 384 m 1,168,-1
 384 384 l 1,169,-1
 384 320 l 1,170,-1
 320 320 l 1,171,-1
 320 384 l 1,168,-1
384 384 m 1,172,-1
 448 384 l 1,173,-1
 448 320 l 1,174,-1
 384 320 l 1,175,-1
 384 384 l 1,172,-1
0 320 m 1,176,-1
 64 320 l 1,177,-1
 64 256 l 1,178,-1
 0 256 l 1,179,-1
 0 320 l 1,176,-1
64 320 m 1,180,-1
 128 320 l 1,181,-1
 128 256 l 1,182,-1
 64 256 l 1,183,-1
 64 320 l 1,180,-1
128 320 m 1,184,-1
 192 320 l 1,185,-1
 192 256 l 1,186,-1
 128 256 l 1,187,-1
 128 320 l 1,184,-1
320 320 m 1,188,-1
 384 320 l 1,189,-1
 384 256 l 1,190,-1
 320 256 l 1,191,-1
 320 320 l 1,188,-1
384 320 m 1,192,-1
 448 320 l 1,193,-1
 448 256 l 1,194,-1
 384 256 l 1,195,-1
 384 320 l 1,192,-1
448 320 m 1,196,-1
 512 320 l 1,197,-1
 512 256 l 1,198,-1
 448 256 l 1,199,-1
 448 320 l 1,196,-1
0 256 m 1,200,-1
 64 256 l 1,201,-1
 64 192 l 1,202,-1
 0 192 l 1,203,-1
 0 256 l 1,200,-1
64 256 m 1,204,-1
 128 256 l 1,205,-1
 128 192 l 1,206,-1
 64 192 l 1,207,-1
 64 256 l 1,204,-1
384 256 m 1,208,-1
 448 256 l 1,209,-1
 448 192 l 1,210,-1
 384 192 l 1,211,-1
 384 256 l 1,208,-1
448 256 m 1,212,-1
 512 256 l 1,213,-1
 512 192 l 1,214,-1
 448 192 l 1,215,-1
 448 256 l 1,212,-1
0 192 m 1,216,-1
 64 192 l 1,217,-1
 64 128 l 1,218,-1
 0 128 l 1,219,-1
 0 192 l 1,216,-1
64 192 m 1,220,-1
 128 192 l 1,221,-1
 128 128 l 1,222,-1
 64 128 l 1,223,-1
 64 192 l 1,220,-1
128 192 m 1,224,-1
 192 192 l 1,225,-1
 192 128 l 1,226,-1
 128 128 l 1,227,-1
 128 192 l 1,224,-1
320 192 m 1,228,-1
 384 192 l 1,229,-1
 384 128 l 1,230,-1
 320 128 l 1,231,-1
 320 192 l 1,228,-1
384 192 m 1,232,-1
 448 192 l 1,233,-1
 448 128 l 1,234,-1
 384 128 l 1,235,-1
 384 192 l 1,232,-1
448 192 m 1,236,-1
 512 192 l 1,237,-1
 512 128 l 1,238,-1
 448 128 l 1,239,-1
 448 192 l 1,236,-1
0 128 m 1,240,-1
 64 128 l 1,241,-1
 64 64 l 1,242,-1
 0 64 l 1,243,-1
 0 128 l 1,240,-1
64 128 m 1,244,-1
 128 128 l 1,245,-1
 128 64 l 1,246,-1
 64 64 l 1,247,-1
 64 128 l 1,244,-1
128 128 m 1,248,-1
 192 128 l 1,249,-1
 192 64 l 1,250,-1
 128 64 l 1,251,-1
 128 128 l 1,248,-1
192 128 m 1,252,-1
 256 128 l 1,253,-1
 256 64 l 1,254,-1
 192 64 l 1,255,-1
 192 128 l 1,252,-1
256 128 m 1,256,-1
 320 128 l 1,257,-1
 320 64 l 1,258,-1
 256 64 l 1,259,-1
 256 128 l 1,256,-1
320 128 m 1,260,-1
 384 128 l 1,261,-1
 384 64 l 1,262,-1
 320 64 l 1,263,-1
 320 128 l 1,260,-1
384 128 m 1,264,-1
 448 128 l 1,265,-1
 448 64 l 1,266,-1
 384 64 l 1,267,-1
 384 128 l 1,264,-1
448 128 m 1,268,-1
 512 128 l 1,269,-1
 512 64 l 1,270,-1
 448 64 l 1,271,-1
 448 128 l 1,268,-1
0 64 m 1,272,-1
 64 64 l 1,273,-1
 64 0 l 1,274,-1
 0 0 l 1,275,-1
 0 64 l 1,272,-1
64 64 m 1,276,-1
 128 64 l 1,277,-1
 128 0 l 1,278,-1
 64 0 l 1,279,-1
 64 64 l 1,276,-1
128 64 m 1,280,-1
 192 64 l 1,281,-1
 192 0 l 1,282,-1
 128 0 l 1,283,-1
 128 64 l 1,280,-1
192 64 m 1,284,-1
 256 64 l 1,285,-1
 256 0 l 1,286,-1
 192 0 l 1,287,-1
 192 64 l 1,284,-1
256 64 m 1,288,-1
 320 64 l 1,289,-1
 320 0 l 1,290,-1
 256 0 l 1,291,-1
 256 64 l 1,288,-1
320 64 m 1,292,-1
 384 64 l 1,293,-1
 384 0 l 1,294,-1
 320 0 l 1,295,-1
 320 64 l 1,292,-1
384 64 m 1,296,-1
 448 64 l 1,297,-1
 448 0 l 1,298,-1
 384 0 l 1,299,-1
 384 64 l 1,296,-1
EndSplineSet
EndChar

StartChar: C
Encoding: 67 67 37
Width: 640
GlyphClass: 1
Flags: W
LayerCount: 2
Fore
SplineSet
64 768 m 1,0,-1
 128 768 l 1,1,-1
 128 704 l 1,2,-1
 64 704 l 1,3,-1
 64 768 l 1,0,-1
128 768 m 1,4,-1
 192 768 l 1,5,-1
 192 704 l 1,6,-1
 128 704 l 1,7,-1
 128 768 l 1,4,-1
192 768 m 1,8,-1
 256 768 l 1,9,-1
 256 704 l 1,10,-1
 192 704 l 1,11,-1
 192 768 l 1,8,-1
256 768 m 1,12,-1
 320 768 l 1,13,-1
 320 704 l 1,14,-1
 256 704 l 1,15,-1
 256 768 l 1,12,-1
320 768 m 1,16,-1
 384 768 l 1,17,-1
 384 704 l 1,18,-1
 320 704 l 1,19,-1
 320 768 l 1,16,-1
384 768 m 1,20,-1
 448 768 l 1,21,-1
 448 704 l 1,22,-1
 384 704 l 1,23,-1
 384 768 l 1,20,-1
0 704 m 1,24,-1
 64 704 l 1,25,-1
 64 640 l 1,26,-1
 0 640 l 1,27,-1
 0 704 l 1,24,-1
64 704 m 1,28,-1
 128 704 l 1,29,-1
 128 640 l 1,30,-1
 64 640 l 1,31,-1
 64 704 l 1,28,-1
128 704 m 1,32,-1
 192 704 l 1,33,-1
 192 640 l 1,34,-1
 128 640 l 1,35,-1
 128 704 l 1,32,-1
192 704 m 1,36,-1
 256 704 l 1,37,-1
 256 640 l 1,38,-1
 192 640 l 1,39,-1
 192 704 l 1,36,-1
256 704 m 1,40,-1
 320 704 l 1,41,-1
 320 640 l 1,42,-1
 256 640 l 1,43,-1
 256 704 l 1,40,-1
320 704 m 1,44,-1
 384 704 l 1,45,-1
 384 640 l 1,46,-1
 320 640 l 1,47,-1
 320 704 l 1,44,-1
384 704 m 1,48,-1
 448 704 l 1,49,-1
 448 640 l 1,50,-1
 384 640 l 1,51,-1
 384 704 l 1,48,-1
448 704 m 1,52,-1
 512 704 l 1,53,-1
 512 640 l 1,54,-1
 448 640 l 1,55,-1
 448 704 l 1,52,-1
0 640 m 1,56,-1
 64 640 l 1,57,-1
 64 576 l 1,58,-1
 0 576 l 1,59,-1
 0 640 l 1,56,-1
64 640 m 1,60,-1
 128 640 l 1,61,-1
 128 576 l 1,62,-1
 64 576 l 1,63,-1
 64 640 l 1,60,-1
128 640 m 1,64,-1
 192 640 l 1,65,-1
 192 576 l 1,66,-1
 128 576 l 1,67,-1
 128 640 l 1,64,-1
192 640 m 1,68,-1
 256 640 l 1,69,-1
 256 576 l 1,70,-1
 192 576 l 1,71,-1
 192 640 l 1,68,-1
256 640 m 1,72,-1
 320 640 l 1,73,-1
 320 576 l 1,74,-1
 256 576 l 1,75,-1
 256 640 l 1,72,-1
320 640 m 1,76,-1
 384 640 l 1,77,-1
 384 576 l 1,78,-1
 320 576 l 1,79,-1
 320 640 l 1,76,-1
384 640 m 1,80,-1
 448 640 l 1,81,-1
 448 576 l 1,82,-1
 384 576 l 1,83,-1
 384 640 l 1,80,-1
448 640 m 1,84,-1
 512 640 l 1,85,-1
 512 576 l 1,86,-1
 448 576 l 1,87,-1
 448 640 l 1,84,-1
0 576 m 1,88,-1
 64 576 l 1,89,-1
 64 512 l 1,90,-1
 0 512 l 1,91,-1
 0 576 l 1,88,-1
64 576 m 1,92,-1
 128 576 l 1,93,-1
 128 512 l 1,94,-1
 64 512 l 1,95,-1
 64 576 l 1,92,-1
128 576 m 1,96,-1
 192 576 l 1,97,-1
 192 512 l 1,98,-1
 128 512 l 1,99,-1
 128 576 l 1,96,-1
320 576 m 1,100,-1
 384 576 l 1,101,-1
 384 512 l 1,102,-1
 320 512 l 1,103,-1
 320 576 l 1,100,-1
384 576 m 1,104,-1
 448 576 l 1,105,-1
 448 512 l 1,106,-1
 384 512 l 1,107,-1
 384 576 l 1,104,-1
448 576 m 1,108,-1
 512 576 l 1,109,-1
 512 512 l 1,110,-1
 448 512 l 1,111,-1
 448 576 l 1,108,-1
0 512 m 1,112,-1
 64 512 l 1,113,-1
 64 448 l 1,114,-1
 0 448 l 1,115,-1
 0 512 l 1,112,-1
64 512 m 1,116,-1
 128 512 l 1,117,-1
 128 448 l 1,118,-1
 64 448 l 1,119,-1
 64 512 l 1,116,-1
128 512 m 1,120,-1
 192 512 l 1,121,-1
 192 448 l 1,122,-1
 128 448 l 1,123,-1
 128 512 l 1,120,-1
0 448 m 1,124,-1
 64 448 l 1,125,-1
 64 384 l 1,126,-1
 0 384 l 1,127,-1
 0 448 l 1,124,-1
64 448 m 1,128,-1
 128 448 l 1,129,-1
 128 384 l 1,130,-1
 64 384 l 1,131,-1
 64 448 l 1,128,-1
128 448 m 1,132,-1
 192 448 l 1,133,-1
 192 384 l 1,134,-1
 128 384 l 1,135,-1
 128 448 l 1,132,-1
0 384 m 1,136,-1
 64 384 l 1,137,-1
 64 320 l 1,138,-1
 0 320 l 1,139,-1
 0 384 l 1,136,-1
64 384 m 1,140,-1
 128 384 l 1,141,-1
 128 320 l 1,142,-1
 64 320 l 1,143,-1
 64 384 l 1,140,-1
128 384 m 1,144,-1
 192 384 l 1,145,-1
 192 320 l 1,146,-1
 128 320 l 1,147,-1
 128 384 l 1,144,-1
0 320 m 1,148,-1
 64 320 l 1,149,-1
 64 256 l 1,150,-1
 0 256 l 1,151,-1
 0 320 l 1,148,-1
64 320 m 1,152,-1
 128 320 l 1,153,-1
 128 256 l 1,154,-1
 64 256 l 1,155,-1
 64 320 l 1,152,-1
128 320 m 1,156,-1
 192 320 l 1,157,-1
 192 256 l 1,158,-1
 128 256 l 1,159,-1
 128 320 l 1,156,-1
0 256 m 1,160,-1
 64 256 l 1,161,-1
 64 192 l 1,162,-1
 0 192 l 1,163,-1
 0 256 l 1,160,-1
64 256 m 1,164,-1
 128 256 l 1,165,-1
 128 192 l 1,166,-1
 64 192 l 1,167,-1
 64 256 l 1,164,-1
128 256 m 1,168,-1
 192 256 l 1,169,-1
 192 192 l 1,170,-1
 128 192 l 1,171,-1
 128 256 l 1,168,-1
320 256 m 1,172,-1
 384 256 l 1,173,-1
 384 192 l 1,174,-1
 320 192 l 1,175,-1
 320 256 l 1,172,-1
384 256 m 1,176,-1
 448 256 l 1,177,-1
 448 192 l 1,178,-1
 384 192 l 1,179,-1
 384 256 l 1,176,-1
448 256 m 1,180,-1
 512 256 l 1,181,-1
 512 192 l 1,182,-1
 448 192 l 1,183,-1
 448 256 l 1,180,-1
0 192 m 1,184,-1
 64 192 l 1,185,-1
 64 128 l 1,186,-1
 0 128 l 1,187,-1
 0 192 l 1,184,-1
64 192 m 1,188,-1
 128 192 l 1,189,-1
 128 128 l 1,190,-1
 64 128 l 1,191,-1
 64 192 l 1,188,-1
128 192 m 1,192,-1
 192 192 l 1,193,-1
 192 128 l 1,194,-1
 128 128 l 1,195,-1
 128 192 l 1,192,-1
192 192 m 1,196,-1
 256 192 l 1,197,-1
 256 128 l 1,198,-1
 192 128 l 1,199,-1
 192 192 l 1,196,-1
256 192 m 1,200,-1
 320 192 l 1,201,-1
 320 128 l 1,202,-1
 256 128 l 1,203,-1
 256 192 l 1,200,-1
320 192 m 1,204,-1
 384 192 l 1,205,-1
 384 128 l 1,206,-1
 320 128 l 1,207,-1
 320 192 l 1,204,-1
384 192 m 1,208,-1
 448 192 l 1,209,-1
 448 128 l 1,210,-1
 384 128 l 1,211,-1
 384 192 l 1,208,-1
448 192 m 1,212,-1
 512 192 l 1,213,-1
 512 128 l 1,214,-1
 448 128 l 1,215,-1
 448 192 l 1,212,-1
0 128 m 1,216,-1
 64 128 l 1,217,-1
 64 64 l 1,218,-1
 0 64 l 1,219,-1
 0 128 l 1,216,-1
64 128 m 1,220,-1
 128 128 l 1,221,-1
 128 64 l 1,222,-1
 64 64 l 1,223,-1
 64 128 l 1,220,-1
128 128 m 1,224,-1
 192 128 l 1,225,-1
 192 64 l 1,226,-1
 128 64 l 1,227,-1
 128 128 l 1,224,-1
192 128 m 1,228,-1
 256 128 l 1,229,-1
 256 64 l 1,230,-1
 192 64 l 1,231,-1
 192 128 l 1,228,-1
256 128 m 1,232,-1
 320 128 l 1,233,-1
 320 64 l 1,234,-1
 256 64 l 1,235,-1
 256 128 l 1,232,-1
320 128 m 1,236,-1
 384 128 l 1,237,-1
 384 64 l 1,238,-1
 320 64 l 1,239,-1
 320 128 l 1,236,-1
384 128 m 1,240,-1
 448 128 l 1,241,-1
 448 64 l 1,242,-1
 384 64 l 1,243,-1
 384 128 l 1,240,-1
448 128 m 1,244,-1
 512 128 l 1,245,-1
 512 64 l 1,246,-1
 448 64 l 1,247,-1
 448 128 l 1,244,-1
64 64 m 1,248,-1
 128 64 l 1,249,-1
 128 0 l 1,250,-1
 64 0 l 1,251,-1
 64 64 l 1,248,-1
128 64 m 1,252,-1
 192 64 l 1,253,-1
 192 0 l 1,254,-1
 128 0 l 1,255,-1
 128 64 l 1,252,-1
192 64 m 1,256,-1
 256 64 l 1,257,-1
 256 0 l 1,258,-1
 192 0 l 1,259,-1
 192 64 l 1,256,-1
256 64 m 1,260,-1
 320 64 l 1,261,-1
 320 0 l 1,262,-1
 256 0 l 1,263,-1
 256 64 l 1,260,-1
320 64 m 1,264,-1
 384 64 l 1,265,-1
 384 0 l 1,266,-1
 320 0 l 1,267,-1
 320 64 l 1,264,-1
384 64 m 1,268,-1
 448 64 l 1,269,-1
 448 0 l 1,270,-1
 384 0 l 1,271,-1
 384 64 l 1,268,-1
EndSplineSet
EndChar

StartChar: D
Encoding: 68 68 38
Width: 640
GlyphClass: 1
Flags: W
LayerCount: 2
Fore
SplineSet
0 768 m 1,0,-1
 64 768 l 1,1,-1
 64 704 l 1,2,-1
 0 704 l 1,3,-1
 0 768 l 1,0,-1
64 768 m 1,4,-1
 128 768 l 1,5,-1
 128 704 l 1,6,-1
 64 704 l 1,7,-1
 64 768 l 1,4,-1
128 768 m 1,8,-1
 192 768 l 1,9,-1
 192 704 l 1,10,-1
 128 704 l 1,11,-1
 128 768 l 1,8,-1
192 768 m 1,12,-1
 256 768 l 1,13,-1
 256 704 l 1,14,-1
 192 704 l 1,15,-1
 192 768 l 1,12,-1
256 768 m 1,16,-1
 320 768 l 1,17,-1
 320 704 l 1,18,-1
 256 704 l 1,19,-1
 256 768 l 1,16,-1
320 768 m 1,20,-1
 384 768 l 1,21,-1
 384 704 l 1,22,-1
 320 704 l 1,23,-1
 320 768 l 1,20,-1
384 768 m 1,24,-1
 448 768 l 1,25,-1
 448 704 l 1,26,-1
 384 704 l 1,27,-1
 384 768 l 1,24,-1
0 704 m 1,28,-1
 64 704 l 1,29,-1
 64 640 l 1,30,-1
 0 640 l 1,31,-1
 0 704 l 1,28,-1
64 704 m 1,32,-1
 128 704 l 1,33,-1
 128 640 l 1,34,-1
 64 640 l 1,35,-1
 64 704 l 1,32,-1
128 704 m 1,36,-1
 192 704 l 1,37,-1
 192 640 l 1,38,-1
 128 640 l 1,39,-1
 128 704 l 1,36,-1
192 704 m 1,40,-1
 256 704 l 1,41,-1
 256 640 l 1,42,-1
 192 640 l 1,43,-1
 192 704 l 1,40,-1
256 704 m 1,44,-1
 320 704 l 1,45,-1
 320 640 l 1,46,-1
 256 640 l 1,47,-1
 256 704 l 1,44,-1
320 704 m 1,48,-1
 384 704 l 1,49,-1
 384 640 l 1,50,-1
 320 640 l 1,51,-1
 320 704 l 1,48,-1
384 704 m 1,52,-1
 448 704 l 1,53,-1
 448 640 l 1,54,-1
 384 640 l 1,55,-1
 384 704 l 1,52,-1
448 704 m 1,56,-1
 512 704 l 1,57,-1
 512 640 l 1,58,-1
 448 640 l 1,59,-1
 448 704 l 1,56,-1
64 640 m 1,60,-1
 128 640 l 1,61,-1
 128 576 l 1,62,-1
 64 576 l 1,63,-1
 64 640 l 1,60,-1
128 640 m 1,64,-1
 192 640 l 1,65,-1
 192 576 l 1,66,-1
 128 576 l 1,67,-1
 128 640 l 1,64,-1
192 640 m 1,68,-1
 256 640 l 1,69,-1
 256 576 l 1,70,-1
 192 576 l 1,71,-1
 192 640 l 1,68,-1
256 640 m 1,72,-1
 320 640 l 1,73,-1
 320 576 l 1,74,-1
 256 576 l 1,75,-1
 256 640 l 1,72,-1
320 640 m 1,76,-1
 384 640 l 1,77,-1
 384 576 l 1,78,-1
 320 576 l 1,79,-1
 320 640 l 1,76,-1
384 640 m 1,80,-1
 448 640 l 1,81,-1
 448 576 l 1,82,-1
 384 576 l 1,83,-1
 384 640 l 1,80,-1
448 640 m 1,84,-1
 512 640 l 1,85,-1
 512 576 l 1,86,-1
 448 576 l 1,87,-1
 448 640 l 1,84,-1
64 576 m 1,88,-1
 128 576 l 1,89,-1
 128 512 l 1,90,-1
 64 512 l 1,91,-1
 64 576 l 1,88,-1
128 576 m 1,92,-1
 192 576 l 1,93,-1
 192 512 l 1,94,-1
 128 512 l 1,95,-1
 128 576 l 1,92,-1
192 576 m 1,96,-1
 256 576 l 1,97,-1
 256 512 l 1,98,-1
 192 512 l 1,99,-1
 192 576 l 1,96,-1
320 576 m 1,100,-1
 384 576 l 1,101,-1
 384 512 l 1,102,-1
 320 512 l 1,103,-1
 320 576 l 1,100,-1
384 576 m 1,104,-1
 448 576 l 1,105,-1
 448 512 l 1,106,-1
 384 512 l 1,107,-1
 384 576 l 1,104,-1
448 576 m 1,108,-1
 512 576 l 1,109,-1
 512 512 l 1,110,-1
 448 512 l 1,111,-1
 448 576 l 1,108,-1
64 512 m 1,112,-1
 128 512 l 1,113,-1
 128 448 l 1,114,-1
 64 448 l 1,115,-1
 64 512 l 1,112,-1
128 512 m 1,116,-1
 192 512 l 1,117,-1
 192 448 l 1,118,-1
 128 448 l 1,119,-1
 128 512 l 1,116,-1
192 512 m 1,120,-1
 256 512 l 1,121,-1
 256 448 l 1,122,-1
 192 448 l 1,123,-1
 192 512 l 1,120,-1
320 512 m 1,124,-1
 384 512 l 1,125,-1
 384 448 l 1,126,-1
 320 448 l 1,127,-1
 320 512 l 1,124,-1
384 512 m 1,128,-1
 448 512 l 1,129,-1
 448 448 l 1,130,-1
 384 448 l 1,131,-1
 384 512 l 1,128,-1
448 512 m 1,132,-1
 512 512 l 1,133,-1
 512 448 l 1,134,-1
 448 448 l 1,135,-1
 448 512 l 1,132,-1
64 448 m 1,136,-1
 128 448 l 1,137,-1
 128 384 l 1,138,-1
 64 384 l 1,139,-1
 64 448 l 1,136,-1
128 448 m 1,140,-1
 192 448 l 1,141,-1
 192 384 l 1,142,-1
 128 384 l 1,143,-1
 128 448 l 1,140,-1
192 448 m 1,144,-1
 256 448 l 1,145,-1
 256 384 l 1,146,-1
 192 384 l 1,147,-1
 192 448 l 1,144,-1
320 448 m 1,148,-1
 384 448 l 1,149,-1
 384 384 l 1,150,-1
 320 384 l 1,151,-1
 320 448 l 1,148,-1
384 448 m 1,152,-1
 448 448 l 1,153,-1
 448 384 l 1,154,-1
 384 384 l 1,155,-1
 384 448 l 1,152,-1
448 448 m 1,156,-1
 512 448 l 1,157,-1
 512 384 l 1,158,-1
 448 384 l 1,159,-1
 448 448 l 1,156,-1
64 384 m 1,160,-1
 128 384 l 1,161,-1
 128 320 l 1,162,-1
 64 320 l 1,163,-1
 64 384 l 1,160,-1
128 384 m 1,164,-1
 192 384 l 1,165,-1
 192 320 l 1,166,-1
 128 320 l 1,167,-1
 128 384 l 1,164,-1
192 384 m 1,168,-1
 256 384 l 1,169,-1
 256 320 l 1,170,-1
 192 320 l 1,171,-1
 192 384 l 1,168,-1
320 384 m 1,172,-1
 384 384 l 1,173,-1
 384 320 l 1,174,-1
 320 320 l 1,175,-1
 320 384 l 1,172,-1
384 384 m 1,176,-1
 448 384 l 1,177,-1
 448 320 l 1,178,-1
 384 320 l 1,179,-1
 384 384 l 1,176,-1
448 384 m 1,180,-1
 512 384 l 1,181,-1
 512 320 l 1,182,-1
 448 320 l 1,183,-1
 448 384 l 1,180,-1
64 320 m 1,184,-1
 128 320 l 1,185,-1
 128 256 l 1,186,-1
 64 256 l 1,187,-1
 64 320 l 1,184,-1
128 320 m 1,188,-1
 192 320 l 1,189,-1
 192 256 l 1,190,-1
 128 256 l 1,191,-1
 128 320 l 1,188,-1
192 320 m 1,192,-1
 256 320 l 1,193,-1
 256 256 l 1,194,-1
 192 256 l 1,195,-1
 192 320 l 1,192,-1
320 320 m 1,196,-1
 384 320 l 1,197,-1
 384 256 l 1,198,-1
 320 256 l 1,199,-1
 320 320 l 1,196,-1
384 320 m 1,200,-1
 448 320 l 1,201,-1
 448 256 l 1,202,-1
 384 256 l 1,203,-1
 384 320 l 1,200,-1
448 320 m 1,204,-1
 512 320 l 1,205,-1
 512 256 l 1,206,-1
 448 256 l 1,207,-1
 448 320 l 1,204,-1
64 256 m 1,208,-1
 128 256 l 1,209,-1
 128 192 l 1,210,-1
 64 192 l 1,211,-1
 64 256 l 1,208,-1
128 256 m 1,212,-1
 192 256 l 1,213,-1
 192 192 l 1,214,-1
 128 192 l 1,215,-1
 128 256 l 1,212,-1
192 256 m 1,216,-1
 256 256 l 1,217,-1
 256 192 l 1,218,-1
 192 192 l 1,219,-1
 192 256 l 1,216,-1
320 256 m 1,220,-1
 384 256 l 1,221,-1
 384 192 l 1,222,-1
 320 192 l 1,223,-1
 320 256 l 1,220,-1
384 256 m 1,224,-1
 448 256 l 1,225,-1
 448 192 l 1,226,-1
 384 192 l 1,227,-1
 384 256 l 1,224,-1
448 256 m 1,228,-1
 512 256 l 1,229,-1
 512 192 l 1,230,-1
 448 192 l 1,231,-1
 448 256 l 1,228,-1
64 192 m 1,232,-1
 128 192 l 1,233,-1
 128 128 l 1,234,-1
 64 128 l 1,235,-1
 64 192 l 1,232,-1
128 192 m 1,236,-1
 192 192 l 1,237,-1
 192 128 l 1,238,-1
 128 128 l 1,239,-1
 128 192 l 1,236,-1
192 192 m 1,240,-1
 256 192 l 1,241,-1
 256 128 l 1,242,-1
 192 128 l 1,243,-1
 192 192 l 1,240,-1
256 192 m 1,244,-1
 320 192 l 1,245,-1
 320 128 l 1,246,-1
 256 128 l 1,247,-1
 256 192 l 1,244,-1
320 192 m 1,248,-1
 384 192 l 1,249,-1
 384 128 l 1,250,-1
 320 128 l 1,251,-1
 320 192 l 1,248,-1
384 192 m 1,252,-1
 448 192 l 1,253,-1
 448 128 l 1,254,-1
 384 128 l 1,255,-1
 384 192 l 1,252,-1
448 192 m 1,256,-1
 512 192 l 1,257,-1
 512 128 l 1,258,-1
 448 128 l 1,259,-1
 448 192 l 1,256,-1
0 128 m 1,260,-1
 64 128 l 1,261,-1
 64 64 l 1,262,-1
 0 64 l 1,263,-1
 0 128 l 1,260,-1
64 128 m 1,264,-1
 128 128 l 1,265,-1
 128 64 l 1,266,-1
 64 64 l 1,267,-1
 64 128 l 1,264,-1
128 128 m 1,268,-1
 192 128 l 1,269,-1
 192 64 l 1,270,-1
 128 64 l 1,271,-1
 128 128 l 1,268,-1
192 128 m 1,272,-1
 256 128 l 1,273,-1
 256 64 l 1,274,-1
 192 64 l 1,275,-1
 192 128 l 1,272,-1
256 128 m 1,276,-1
 320 128 l 1,277,-1
 320 64 l 1,278,-1
 256 64 l 1,279,-1
 256 128 l 1,276,-1
320 128 m 1,280,-1
 384 128 l 1,281,-1
 384 64 l 1,282,-1
 320 64 l 1,283,-1
 320 128 l 1,280,-1
384 128 m 1,284,-1
 448 128 l 1,285,-1
 448 64 l 1,286,-1
 384 64 l 1,287,-1
 384 128 l 1,284,-1
448 128 m 1,288,-1
 512 128 l 1,289,-1
 512 64 l 1,290,-1
 448 64 l 1,291,-1
 448 128 l 1,288,-1
0 64 m 1,292,-1
 64 64 l 1,293,-1
 64 0 l 1,294,-1
 0 0 l 1,295,-1
 0 64 l 1,292,-1
64 64 m 1,296,-1
 128 64 l 1,297,-1
 128 0 l 1,298,-1
 64 0 l 1,299,-1
 64 64 l 1,296,-1
128 64 m 1,300,-1
 192 64 l 1,301,-1
 192 0 l 1,302,-1
 128 0 l 1,303,-1
 128 64 l 1,300,-1
192 64 m 1,304,-1
 256 64 l 1,305,-1
 256 0 l 1,306,-1
 192 0 l 1,307,-1
 192 64 l 1,304,-1
256 64 m 1,308,-1
 320 64 l 1,309,-1
 320 0 l 1,310,-1
 256 0 l 1,311,-1
 256 64 l 1,308,-1
320 64 m 1,312,-1
 384 64 l 1,313,-1
 384 0 l 1,314,-1
 320 0 l 1,315,-1
 320 64 l 1,312,-1
384 64 m 1,316,-1
 448 64 l 1,317,-1
 448 0 l 1,318,-1
 384 0 l 1,319,-1
 384 64 l 1,316,-1
EndSplineSet
EndChar

StartChar: E
Encoding: 69 69 39
Width: 576
GlyphClass: 1
Flags: W
LayerCount: 2
Fore
SplineSet
64 768 m 1,0,-1
 128 768 l 1,1,-1
 128 704 l 1,2,-1
 64 704 l 1,3,-1
 64 768 l 1,0,-1
128 768 m 1,4,-1
 192 768 l 1,5,-1
 192 704 l 1,6,-1
 128 704 l 1,7,-1
 128 768 l 1,4,-1
192 768 m 1,8,-1
 256 768 l 1,9,-1
 256 704 l 1,10,-1
 192 704 l 1,11,-1
 192 768 l 1,8,-1
256 768 m 1,12,-1
 320 768 l 1,13,-1
 320 704 l 1,14,-1
 256 704 l 1,15,-1
 256 768 l 1,12,-1
320 768 m 1,16,-1
 384 768 l 1,17,-1
 384 704 l 1,18,-1
 320 704 l 1,19,-1
 320 768 l 1,16,-1
0 704 m 1,20,-1
 64 704 l 1,21,-1
 64 640 l 1,22,-1
 0 640 l 1,23,-1
 0 704 l 1,20,-1
64 704 m 1,24,-1
 128 704 l 1,25,-1
 128 640 l 1,26,-1
 64 640 l 1,27,-1
 64 704 l 1,24,-1
128 704 m 1,28,-1
 192 704 l 1,29,-1
 192 640 l 1,30,-1
 128 640 l 1,31,-1
 128 704 l 1,28,-1
192 704 m 1,32,-1
 256 704 l 1,33,-1
 256 640 l 1,34,-1
 192 640 l 1,35,-1
 192 704 l 1,32,-1
256 704 m 1,36,-1
 320 704 l 1,37,-1
 320 640 l 1,38,-1
 256 640 l 1,39,-1
 256 704 l 1,36,-1
320 704 m 1,40,-1
 384 704 l 1,41,-1
 384 640 l 1,42,-1
 320 640 l 1,43,-1
 320 704 l 1,40,-1
384 704 m 1,44,-1
 448 704 l 1,45,-1
 448 640 l 1,46,-1
 384 640 l 1,47,-1
 384 704 l 1,44,-1
0 640 m 1,48,-1
 64 640 l 1,49,-1
 64 576 l 1,50,-1
 0 576 l 1,51,-1
 0 640 l 1,48,-1
64 640 m 1,52,-1
 128 640 l 1,53,-1
 128 576 l 1,54,-1
 64 576 l 1,55,-1
 64 640 l 1,52,-1
128 640 m 1,56,-1
 192 640 l 1,57,-1
 192 576 l 1,58,-1
 128 576 l 1,59,-1
 128 640 l 1,56,-1
192 640 m 1,60,-1
 256 640 l 1,61,-1
 256 576 l 1,62,-1
 192 576 l 1,63,-1
 192 640 l 1,60,-1
256 640 m 1,64,-1
 320 640 l 1,65,-1
 320 576 l 1,66,-1
 256 576 l 1,67,-1
 256 640 l 1,64,-1
320 640 m 1,68,-1
 384 640 l 1,69,-1
 384 576 l 1,70,-1
 320 576 l 1,71,-1
 320 640 l 1,68,-1
384 640 m 1,72,-1
 448 640 l 1,73,-1
 448 576 l 1,74,-1
 384 576 l 1,75,-1
 384 640 l 1,72,-1
0 576 m 1,76,-1
 64 576 l 1,77,-1
 64 512 l 1,78,-1
 0 512 l 1,79,-1
 0 576 l 1,76,-1
64 576 m 1,80,-1
 128 576 l 1,81,-1
 128 512 l 1,82,-1
 64 512 l 1,83,-1
 64 576 l 1,80,-1
128 576 m 1,84,-1
 192 576 l 1,85,-1
 192 512 l 1,86,-1
 128 512 l 1,87,-1
 128 576 l 1,84,-1
0 512 m 1,88,-1
 64 512 l 1,89,-1
 64 448 l 1,90,-1
 0 448 l 1,91,-1
 0 512 l 1,88,-1
64 512 m 1,92,-1
 128 512 l 1,93,-1
 128 448 l 1,94,-1
 64 448 l 1,95,-1
 64 512 l 1,92,-1
128 512 m 1,96,-1
 192 512 l 1,97,-1
 192 448 l 1,98,-1
 128 448 l 1,99,-1
 128 512 l 1,96,-1
0 448 m 1,100,-1
 64 448 l 1,101,-1
 64 384 l 1,102,-1
 0 384 l 1,103,-1
 0 448 l 1,100,-1
64 448 m 1,104,-1
 128 448 l 1,105,-1
 128 384 l 1,106,-1
 64 384 l 1,107,-1
 64 448 l 1,104,-1
128 448 m 1,108,-1
 192 448 l 1,109,-1
 192 384 l 1,110,-1
 128 384 l 1,111,-1
 128 448 l 1,108,-1
192 448 m 1,112,-1
 256 448 l 1,113,-1
 256 384 l 1,114,-1
 192 384 l 1,115,-1
 192 448 l 1,112,-1
256 448 m 1,116,-1
 320 448 l 1,117,-1
 320 384 l 1,118,-1
 256 384 l 1,119,-1
 256 448 l 1,116,-1
320 448 m 1,120,-1
 384 448 l 1,121,-1
 384 384 l 1,122,-1
 320 384 l 1,123,-1
 320 448 l 1,120,-1
384 448 m 1,124,-1
 448 448 l 1,125,-1
 448 384 l 1,126,-1
 384 384 l 1,127,-1
 384 448 l 1,124,-1
0 384 m 1,128,-1
 64 384 l 1,129,-1
 64 320 l 1,130,-1
 0 320 l 1,131,-1
 0 384 l 1,128,-1
64 384 m 1,132,-1
 128 384 l 1,133,-1
 128 320 l 1,134,-1
 64 320 l 1,135,-1
 64 384 l 1,132,-1
128 384 m 1,136,-1
 192 384 l 1,137,-1
 192 320 l 1,138,-1
 128 320 l 1,139,-1
 128 384 l 1,136,-1
192 384 m 1,140,-1
 256 384 l 1,141,-1
 256 320 l 1,142,-1
 192 320 l 1,143,-1
 192 384 l 1,140,-1
256 384 m 1,144,-1
 320 384 l 1,145,-1
 320 320 l 1,146,-1
 256 320 l 1,147,-1
 256 384 l 1,144,-1
320 384 m 1,148,-1
 384 384 l 1,149,-1
 384 320 l 1,150,-1
 320 320 l 1,151,-1
 320 384 l 1,148,-1
384 384 m 1,152,-1
 448 384 l 1,153,-1
 448 320 l 1,154,-1
 384 320 l 1,155,-1
 384 384 l 1,152,-1
0 320 m 1,156,-1
 64 320 l 1,157,-1
 64 256 l 1,158,-1
 0 256 l 1,159,-1
 0 320 l 1,156,-1
64 320 m 1,160,-1
 128 320 l 1,161,-1
 128 256 l 1,162,-1
 64 256 l 1,163,-1
 64 320 l 1,160,-1
128 320 m 1,164,-1
 192 320 l 1,165,-1
 192 256 l 1,166,-1
 128 256 l 1,167,-1
 128 320 l 1,164,-1
192 320 m 1,168,-1
 256 320 l 1,169,-1
 256 256 l 1,170,-1
 192 256 l 1,171,-1
 192 320 l 1,168,-1
256 320 m 1,172,-1
 320 320 l 1,173,-1
 320 256 l 1,174,-1
 256 256 l 1,175,-1
 256 320 l 1,172,-1
320 320 m 1,176,-1
 384 320 l 1,177,-1
 384 256 l 1,178,-1
 320 256 l 1,179,-1
 320 320 l 1,176,-1
384 320 m 1,180,-1
 448 320 l 1,181,-1
 448 256 l 1,182,-1
 384 256 l 1,183,-1
 384 320 l 1,180,-1
0 256 m 1,184,-1
 64 256 l 1,185,-1
 64 192 l 1,186,-1
 0 192 l 1,187,-1
 0 256 l 1,184,-1
64 256 m 1,188,-1
 128 256 l 1,189,-1
 128 192 l 1,190,-1
 64 192 l 1,191,-1
 64 256 l 1,188,-1
128 256 m 1,192,-1
 192 256 l 1,193,-1
 192 192 l 1,194,-1
 128 192 l 1,195,-1
 128 256 l 1,192,-1
0 192 m 1,196,-1
 64 192 l 1,197,-1
 64 128 l 1,198,-1
 0 128 l 1,199,-1
 0 192 l 1,196,-1
64 192 m 1,200,-1
 128 192 l 1,201,-1
 128 128 l 1,202,-1
 64 128 l 1,203,-1
 64 192 l 1,200,-1
128 192 m 1,204,-1
 192 192 l 1,205,-1
 192 128 l 1,206,-1
 128 128 l 1,207,-1
 128 192 l 1,204,-1
192 192 m 1,208,-1
 256 192 l 1,209,-1
 256 128 l 1,210,-1
 192 128 l 1,211,-1
 192 192 l 1,208,-1
256 192 m 1,212,-1
 320 192 l 1,213,-1
 320 128 l 1,214,-1
 256 128 l 1,215,-1
 256 192 l 1,212,-1
320 192 m 1,216,-1
 384 192 l 1,217,-1
 384 128 l 1,218,-1
 320 128 l 1,219,-1
 320 192 l 1,216,-1
384 192 m 1,220,-1
 448 192 l 1,221,-1
 448 128 l 1,222,-1
 384 128 l 1,223,-1
 384 192 l 1,220,-1
0 128 m 1,224,-1
 64 128 l 1,225,-1
 64 64 l 1,226,-1
 0 64 l 1,227,-1
 0 128 l 1,224,-1
64 128 m 1,228,-1
 128 128 l 1,229,-1
 128 64 l 1,230,-1
 64 64 l 1,231,-1
 64 128 l 1,228,-1
128 128 m 1,232,-1
 192 128 l 1,233,-1
 192 64 l 1,234,-1
 128 64 l 1,235,-1
 128 128 l 1,232,-1
192 128 m 1,236,-1
 256 128 l 1,237,-1
 256 64 l 1,238,-1
 192 64 l 1,239,-1
 192 128 l 1,236,-1
256 128 m 1,240,-1
 320 128 l 1,241,-1
 320 64 l 1,242,-1
 256 64 l 1,243,-1
 256 128 l 1,240,-1
320 128 m 1,244,-1
 384 128 l 1,245,-1
 384 64 l 1,246,-1
 320 64 l 1,247,-1
 320 128 l 1,244,-1
384 128 m 1,248,-1
 448 128 l 1,249,-1
 448 64 l 1,250,-1
 384 64 l 1,251,-1
 384 128 l 1,248,-1
64 64 m 1,252,-1
 128 64 l 1,253,-1
 128 0 l 1,254,-1
 64 0 l 1,255,-1
 64 64 l 1,252,-1
128 64 m 1,256,-1
 192 64 l 1,257,-1
 192 0 l 1,258,-1
 128 0 l 1,259,-1
 128 64 l 1,256,-1
192 64 m 1,260,-1
 256 64 l 1,261,-1
 256 0 l 1,262,-1
 192 0 l 1,263,-1
 192 64 l 1,260,-1
256 64 m 1,264,-1
 320 64 l 1,265,-1
 320 0 l 1,266,-1
 256 0 l 1,267,-1
 256 64 l 1,264,-1
320 64 m 1,268,-1
 384 64 l 1,269,-1
 384 0 l 1,270,-1
 320 0 l 1,271,-1
 320 64 l 1,268,-1
EndSplineSet
EndChar

StartChar: F
Encoding: 70 70 40
Width: 640
GlyphClass: 1
Flags: W
LayerCount: 2
Fore
SplineSet
64 768 m 1,0,-1
 128 768 l 1,1,-1
 128 704 l 1,2,-1
 64 704 l 1,3,-1
 64 768 l 1,0,-1
128 768 m 1,4,-1
 192 768 l 1,5,-1
 192 704 l 1,6,-1
 128 704 l 1,7,-1
 128 768 l 1,4,-1
192 768 m 1,8,-1
 256 768 l 1,9,-1
 256 704 l 1,10,-1
 192 704 l 1,11,-1
 192 768 l 1,8,-1
256 768 m 1,12,-1
 320 768 l 1,13,-1
 320 704 l 1,14,-1
 256 704 l 1,15,-1
 256 768 l 1,12,-1
320 768 m 1,16,-1
 384 768 l 1,17,-1
 384 704 l 1,18,-1
 320 704 l 1,19,-1
 320 768 l 1,16,-1
384 768 m 1,20,-1
 448 768 l 1,21,-1
 448 704 l 1,22,-1
 384 704 l 1,23,-1
 384 768 l 1,20,-1
448 768 m 1,24,-1
 512 768 l 1,25,-1
 512 704 l 1,26,-1
 448 704 l 1,27,-1
 448 768 l 1,24,-1
0 704 m 1,28,-1
 64 704 l 1,29,-1
 64 640 l 1,30,-1
 0 640 l 1,31,-1
 0 704 l 1,28,-1
64 704 m 1,32,-1
 128 704 l 1,33,-1
 128 640 l 1,34,-1
 64 640 l 1,35,-1
 64 704 l 1,32,-1
128 704 m 1,36,-1
 192 704 l 1,37,-1
 192 640 l 1,38,-1
 128 640 l 1,39,-1
 128 704 l 1,36,-1
192 704 m 1,40,-1
 256 704 l 1,41,-1
 256 640 l 1,42,-1
 192 640 l 1,43,-1
 192 704 l 1,40,-1
256 704 m 1,44,-1
 320 704 l 1,45,-1
 320 640 l 1,46,-1
 256 640 l 1,47,-1
 256 704 l 1,44,-1
320 704 m 1,48,-1
 384 704 l 1,49,-1
 384 640 l 1,50,-1
 320 640 l 1,51,-1
 320 704 l 1,48,-1
384 704 m 1,52,-1
 448 704 l 1,53,-1
 448 640 l 1,54,-1
 384 640 l 1,55,-1
 384 704 l 1,52,-1
448 704 m 1,56,-1
 512 704 l 1,57,-1
 512 640 l 1,58,-1
 448 640 l 1,59,-1
 448 704 l 1,56,-1
0 640 m 1,60,-1
 64 640 l 1,61,-1
 64 576 l 1,62,-1
 0 576 l 1,63,-1
 0 640 l 1,60,-1
64 640 m 1,64,-1
 128 640 l 1,65,-1
 128 576 l 1,66,-1
 64 576 l 1,67,-1
 64 640 l 1,64,-1
128 640 m 1,68,-1
 192 640 l 1,69,-1
 192 576 l 1,70,-1
 128 576 l 1,71,-1
 128 640 l 1,68,-1
192 640 m 1,72,-1
 256 640 l 1,73,-1
 256 576 l 1,74,-1
 192 576 l 1,75,-1
 192 640 l 1,72,-1
256 640 m 1,76,-1
 320 640 l 1,77,-1
 320 576 l 1,78,-1
 256 576 l 1,79,-1
 256 640 l 1,76,-1
320 640 m 1,80,-1
 384 640 l 1,81,-1
 384 576 l 1,82,-1
 320 576 l 1,83,-1
 320 640 l 1,80,-1
384 640 m 1,84,-1
 448 640 l 1,85,-1
 448 576 l 1,86,-1
 384 576 l 1,87,-1
 384 640 l 1,84,-1
448 640 m 1,88,-1
 512 640 l 1,89,-1
 512 576 l 1,90,-1
 448 576 l 1,91,-1
 448 640 l 1,88,-1
0 576 m 1,92,-1
 64 576 l 1,93,-1
 64 512 l 1,94,-1
 0 512 l 1,95,-1
 0 576 l 1,92,-1
64 576 m 1,96,-1
 128 576 l 1,97,-1
 128 512 l 1,98,-1
 64 512 l 1,99,-1
 64 576 l 1,96,-1
128 576 m 1,100,-1
 192 576 l 1,101,-1
 192 512 l 1,102,-1
 128 512 l 1,103,-1
 128 576 l 1,100,-1
0 512 m 1,104,-1
 64 512 l 1,105,-1
 64 448 l 1,106,-1
 0 448 l 1,107,-1
 0 512 l 1,104,-1
64 512 m 1,108,-1
 128 512 l 1,109,-1
 128 448 l 1,110,-1
 64 448 l 1,111,-1
 64 512 l 1,108,-1
128 512 m 1,112,-1
 192 512 l 1,113,-1
 192 448 l 1,114,-1
 128 448 l 1,115,-1
 128 512 l 1,112,-1
0 448 m 1,116,-1
 64 448 l 1,117,-1
 64 384 l 1,118,-1
 0 384 l 1,119,-1
 0 448 l 1,116,-1
64 448 m 1,120,-1
 128 448 l 1,121,-1
 128 384 l 1,122,-1
 64 384 l 1,123,-1
 64 448 l 1,120,-1
128 448 m 1,124,-1
 192 448 l 1,125,-1
 192 384 l 1,126,-1
 128 384 l 1,127,-1
 128 448 l 1,124,-1
192 448 m 1,128,-1
 256 448 l 1,129,-1
 256 384 l 1,130,-1
 192 384 l 1,131,-1
 192 448 l 1,128,-1
256 448 m 1,132,-1
 320 448 l 1,133,-1
 320 384 l 1,134,-1
 256 384 l 1,135,-1
 256 448 l 1,132,-1
320 448 m 1,136,-1
 384 448 l 1,137,-1
 384 384 l 1,138,-1
 320 384 l 1,139,-1
 320 448 l 1,136,-1
384 448 m 1,140,-1
 448 448 l 1,141,-1
 448 384 l 1,142,-1
 384 384 l 1,143,-1
 384 448 l 1,140,-1
448 448 m 1,144,-1
 512 448 l 1,145,-1
 512 384 l 1,146,-1
 448 384 l 1,147,-1
 448 448 l 1,144,-1
0 384 m 1,148,-1
 64 384 l 1,149,-1
 64 320 l 1,150,-1
 0 320 l 1,151,-1
 0 384 l 1,148,-1
64 384 m 1,152,-1
 128 384 l 1,153,-1
 128 320 l 1,154,-1
 64 320 l 1,155,-1
 64 384 l 1,152,-1
128 384 m 1,156,-1
 192 384 l 1,157,-1
 192 320 l 1,158,-1
 128 320 l 1,159,-1
 128 384 l 1,156,-1
192 384 m 1,160,-1
 256 384 l 1,161,-1
 256 320 l 1,162,-1
 192 320 l 1,163,-1
 192 384 l 1,160,-1
256 384 m 1,164,-1
 320 384 l 1,165,-1
 320 320 l 1,166,-1
 256 320 l 1,167,-1
 256 384 l 1,164,-1
320 384 m 1,168,-1
 384 384 l 1,169,-1
 384 320 l 1,170,-1
 320 320 l 1,171,-1
 320 384 l 1,168,-1
384 384 m 1,172,-1
 448 384 l 1,173,-1
 448 320 l 1,174,-1
 384 320 l 1,175,-1
 384 384 l 1,172,-1
448 384 m 1,176,-1
 512 384 l 1,177,-1
 512 320 l 1,178,-1
 448 320 l 1,179,-1
 448 384 l 1,176,-1
0 320 m 1,180,-1
 64 320 l 1,181,-1
 64 256 l 1,182,-1
 0 256 l 1,183,-1
 0 320 l 1,180,-1
64 320 m 1,184,-1
 128 320 l 1,185,-1
 128 256 l 1,186,-1
 64 256 l 1,187,-1
 64 320 l 1,184,-1
128 320 m 1,188,-1
 192 320 l 1,189,-1
 192 256 l 1,190,-1
 128 256 l 1,191,-1
 128 320 l 1,188,-1
192 320 m 1,192,-1
 256 320 l 1,193,-1
 256 256 l 1,194,-1
 192 256 l 1,195,-1
 192 320 l 1,192,-1
256 320 m 1,196,-1
 320 320 l 1,197,-1
 320 256 l 1,198,-1
 256 256 l 1,199,-1
 256 320 l 1,196,-1
320 320 m 1,200,-1
 384 320 l 1,201,-1
 384 256 l 1,202,-1
 320 256 l 1,203,-1
 320 320 l 1,200,-1
384 320 m 1,204,-1
 448 320 l 1,205,-1
 448 256 l 1,206,-1
 384 256 l 1,207,-1
 384 320 l 1,204,-1
0 256 m 1,208,-1
 64 256 l 1,209,-1
 64 192 l 1,210,-1
 0 192 l 1,211,-1
 0 256 l 1,208,-1
64 256 m 1,212,-1
 128 256 l 1,213,-1
 128 192 l 1,214,-1
 64 192 l 1,215,-1
 64 256 l 1,212,-1
128 256 m 1,216,-1
 192 256 l 1,217,-1
 192 192 l 1,218,-1
 128 192 l 1,219,-1
 128 256 l 1,216,-1
0 192 m 1,220,-1
 64 192 l 1,221,-1
 64 128 l 1,222,-1
 0 128 l 1,223,-1
 0 192 l 1,220,-1
64 192 m 1,224,-1
 128 192 l 1,225,-1
 128 128 l 1,226,-1
 64 128 l 1,227,-1
 64 192 l 1,224,-1
128 192 m 1,228,-1
 192 192 l 1,229,-1
 192 128 l 1,230,-1
 128 128 l 1,231,-1
 128 192 l 1,228,-1
0 128 m 1,232,-1
 64 128 l 1,233,-1
 64 64 l 1,234,-1
 0 64 l 1,235,-1
 0 128 l 1,232,-1
64 128 m 1,236,-1
 128 128 l 1,237,-1
 128 64 l 1,238,-1
 64 64 l 1,239,-1
 64 128 l 1,236,-1
128 128 m 1,240,-1
 192 128 l 1,241,-1
 192 64 l 1,242,-1
 128 64 l 1,243,-1
 128 128 l 1,240,-1
0 64 m 1,244,-1
 64 64 l 1,245,-1
 64 0 l 1,246,-1
 0 0 l 1,247,-1
 0 64 l 1,244,-1
64 64 m 1,248,-1
 128 64 l 1,249,-1
 128 0 l 1,250,-1
 64 0 l 1,251,-1
 64 64 l 1,248,-1
128 64 m 1,252,-1
 192 64 l 1,253,-1
 192 0 l 1,254,-1
 128 0 l 1,255,-1
 128 64 l 1,252,-1
EndSplineSet
EndChar

StartChar: G
Encoding: 71 71 41
Width: 640
GlyphClass: 1
Flags: W
LayerCount: 2
Fore
SplineSet
64 768 m 1,0,-1
 128 768 l 1,1,-1
 128 704 l 1,2,-1
 64 704 l 1,3,-1
 64 768 l 1,0,-1
128 768 m 1,4,-1
 192 768 l 1,5,-1
 192 704 l 1,6,-1
 128 704 l 1,7,-1
 128 768 l 1,4,-1
192 768 m 1,8,-1
 256 768 l 1,9,-1
 256 704 l 1,10,-1
 192 704 l 1,11,-1
 192 768 l 1,8,-1
256 768 m 1,12,-1
 320 768 l 1,13,-1
 320 704 l 1,14,-1
 256 704 l 1,15,-1
 256 768 l 1,12,-1
320 768 m 1,16,-1
 384 768 l 1,17,-1
 384 704 l 1,18,-1
 320 704 l 1,19,-1
 320 768 l 1,16,-1
384 768 m 1,20,-1
 448 768 l 1,21,-1
 448 704 l 1,22,-1
 384 704 l 1,23,-1
 384 768 l 1,20,-1
0 704 m 1,24,-1
 64 704 l 1,25,-1
 64 640 l 1,26,-1
 0 640 l 1,27,-1
 0 704 l 1,24,-1
64 704 m 1,28,-1
 128 704 l 1,29,-1
 128 640 l 1,30,-1
 64 640 l 1,31,-1
 64 704 l 1,28,-1
128 704 m 1,32,-1
 192 704 l 1,33,-1
 192 640 l 1,34,-1
 128 640 l 1,35,-1
 128 704 l 1,32,-1
192 704 m 1,36,-1
 256 704 l 1,37,-1
 256 640 l 1,38,-1
 192 640 l 1,39,-1
 192 704 l 1,36,-1
256 704 m 1,40,-1
 320 704 l 1,41,-1
 320 640 l 1,42,-1
 256 640 l 1,43,-1
 256 704 l 1,40,-1
320 704 m 1,44,-1
 384 704 l 1,45,-1
 384 640 l 1,46,-1
 320 640 l 1,47,-1
 320 704 l 1,44,-1
384 704 m 1,48,-1
 448 704 l 1,49,-1
 448 640 l 1,50,-1
 384 640 l 1,51,-1
 384 704 l 1,48,-1
448 704 m 1,52,-1
 512 704 l 1,53,-1
 512 640 l 1,54,-1
 448 640 l 1,55,-1
 448 704 l 1,52,-1
0 640 m 1,56,-1
 64 640 l 1,57,-1
 64 576 l 1,58,-1
 0 576 l 1,59,-1
 0 640 l 1,56,-1
64 640 m 1,60,-1
 128 640 l 1,61,-1
 128 576 l 1,62,-1
 64 576 l 1,63,-1
 64 640 l 1,60,-1
128 640 m 1,64,-1
 192 640 l 1,65,-1
 192 576 l 1,66,-1
 128 576 l 1,67,-1
 128 640 l 1,64,-1
192 640 m 1,68,-1
 256 640 l 1,69,-1
 256 576 l 1,70,-1
 192 576 l 1,71,-1
 192 640 l 1,68,-1
256 640 m 1,72,-1
 320 640 l 1,73,-1
 320 576 l 1,74,-1
 256 576 l 1,75,-1
 256 640 l 1,72,-1
320 640 m 1,76,-1
 384 640 l 1,77,-1
 384 576 l 1,78,-1
 320 576 l 1,79,-1
 320 640 l 1,76,-1
384 640 m 1,80,-1
 448 640 l 1,81,-1
 448 576 l 1,82,-1
 384 576 l 1,83,-1
 384 640 l 1,80,-1
448 640 m 1,84,-1
 512 640 l 1,85,-1
 512 576 l 1,86,-1
 448 576 l 1,87,-1
 448 640 l 1,84,-1
0 576 m 1,88,-1
 64 576 l 1,89,-1
 64 512 l 1,90,-1
 0 512 l 1,91,-1
 0 576 l 1,88,-1
64 576 m 1,92,-1
 128 576 l 1,93,-1
 128 512 l 1,94,-1
 64 512 l 1,95,-1
 64 576 l 1,92,-1
128 576 m 1,96,-1
 192 576 l 1,97,-1
 192 512 l 1,98,-1
 128 512 l 1,99,-1
 128 576 l 1,96,-1
320 576 m 1,100,-1
 384 576 l 1,101,-1
 384 512 l 1,102,-1
 320 512 l 1,103,-1
 320 576 l 1,100,-1
384 576 m 1,104,-1
 448 576 l 1,105,-1
 448 512 l 1,106,-1
 384 512 l 1,107,-1
 384 576 l 1,104,-1
448 576 m 1,108,-1
 512 576 l 1,109,-1
 512 512 l 1,110,-1
 448 512 l 1,111,-1
 448 576 l 1,108,-1
0 512 m 1,112,-1
 64 512 l 1,113,-1
 64 448 l 1,114,-1
 0 448 l 1,115,-1
 0 512 l 1,112,-1
64 512 m 1,116,-1
 128 512 l 1,117,-1
 128 448 l 1,118,-1
 64 448 l 1,119,-1
 64 512 l 1,116,-1
128 512 m 1,120,-1
 192 512 l 1,121,-1
 192 448 l 1,122,-1
 128 448 l 1,123,-1
 128 512 l 1,120,-1
0 448 m 1,124,-1
 64 448 l 1,125,-1
 64 384 l 1,126,-1
 0 384 l 1,127,-1
 0 448 l 1,124,-1
64 448 m 1,128,-1
 128 448 l 1,129,-1
 128 384 l 1,130,-1
 64 384 l 1,131,-1
 64 448 l 1,128,-1
128 448 m 1,132,-1
 192 448 l 1,133,-1
 192 384 l 1,134,-1
 128 384 l 1,135,-1
 128 448 l 1,132,-1
0 384 m 1,136,-1
 64 384 l 1,137,-1
 64 320 l 1,138,-1
 0 320 l 1,139,-1
 0 384 l 1,136,-1
64 384 m 1,140,-1
 128 384 l 1,141,-1
 128 320 l 1,142,-1
 64 320 l 1,143,-1
 64 384 l 1,140,-1
128 384 m 1,144,-1
 192 384 l 1,145,-1
 192 320 l 1,146,-1
 128 320 l 1,147,-1
 128 384 l 1,144,-1
256 384 m 1,148,-1
 320 384 l 1,149,-1
 320 320 l 1,150,-1
 256 320 l 1,151,-1
 256 384 l 1,148,-1
320 384 m 1,152,-1
 384 384 l 1,153,-1
 384 320 l 1,154,-1
 320 320 l 1,155,-1
 320 384 l 1,152,-1
384 384 m 1,156,-1
 448 384 l 1,157,-1
 448 320 l 1,158,-1
 384 320 l 1,159,-1
 384 384 l 1,156,-1
448 384 m 1,160,-1
 512 384 l 1,161,-1
 512 320 l 1,162,-1
 448 320 l 1,163,-1
 448 384 l 1,160,-1
0 320 m 1,164,-1
 64 320 l 1,165,-1
 64 256 l 1,166,-1
 0 256 l 1,167,-1
 0 320 l 1,164,-1
64 320 m 1,168,-1
 128 320 l 1,169,-1
 128 256 l 1,170,-1
 64 256 l 1,171,-1
 64 320 l 1,168,-1
128 320 m 1,172,-1
 192 320 l 1,173,-1
 192 256 l 1,174,-1
 128 256 l 1,175,-1
 128 320 l 1,172,-1
256 320 m 1,176,-1
 320 320 l 1,177,-1
 320 256 l 1,178,-1
 256 256 l 1,179,-1
 256 320 l 1,176,-1
320 320 m 1,180,-1
 384 320 l 1,181,-1
 384 256 l 1,182,-1
 320 256 l 1,183,-1
 320 320 l 1,180,-1
384 320 m 1,184,-1
 448 320 l 1,185,-1
 448 256 l 1,186,-1
 384 256 l 1,187,-1
 384 320 l 1,184,-1
448 320 m 1,188,-1
 512 320 l 1,189,-1
 512 256 l 1,190,-1
 448 256 l 1,191,-1
 448 320 l 1,188,-1
0 256 m 1,192,-1
 64 256 l 1,193,-1
 64 192 l 1,194,-1
 0 192 l 1,195,-1
 0 256 l 1,192,-1
64 256 m 1,196,-1
 128 256 l 1,197,-1
 128 192 l 1,198,-1
 64 192 l 1,199,-1
 64 256 l 1,196,-1
128 256 m 1,200,-1
 192 256 l 1,201,-1
 192 192 l 1,202,-1
 128 192 l 1,203,-1
 128 256 l 1,200,-1
320 256 m 1,204,-1
 384 256 l 1,205,-1
 384 192 l 1,206,-1
 320 192 l 1,207,-1
 320 256 l 1,204,-1
384 256 m 1,208,-1
 448 256 l 1,209,-1
 448 192 l 1,210,-1
 384 192 l 1,211,-1
 384 256 l 1,208,-1
448 256 m 1,212,-1
 512 256 l 1,213,-1
 512 192 l 1,214,-1
 448 192 l 1,215,-1
 448 256 l 1,212,-1
0 192 m 1,216,-1
 64 192 l 1,217,-1
 64 128 l 1,218,-1
 0 128 l 1,219,-1
 0 192 l 1,216,-1
64 192 m 1,220,-1
 128 192 l 1,221,-1
 128 128 l 1,222,-1
 64 128 l 1,223,-1
 64 192 l 1,220,-1
128 192 m 1,224,-1
 192 192 l 1,225,-1
 192 128 l 1,226,-1
 128 128 l 1,227,-1
 128 192 l 1,224,-1
192 192 m 1,228,-1
 256 192 l 1,229,-1
 256 128 l 1,230,-1
 192 128 l 1,231,-1
 192 192 l 1,228,-1
256 192 m 1,232,-1
 320 192 l 1,233,-1
 320 128 l 1,234,-1
 256 128 l 1,235,-1
 256 192 l 1,232,-1
320 192 m 1,236,-1
 384 192 l 1,237,-1
 384 128 l 1,238,-1
 320 128 l 1,239,-1
 320 192 l 1,236,-1
384 192 m 1,240,-1
 448 192 l 1,241,-1
 448 128 l 1,242,-1
 384 128 l 1,243,-1
 384 192 l 1,240,-1
448 192 m 1,244,-1
 512 192 l 1,245,-1
 512 128 l 1,246,-1
 448 128 l 1,247,-1
 448 192 l 1,244,-1
0 128 m 1,248,-1
 64 128 l 1,249,-1
 64 64 l 1,250,-1
 0 64 l 1,251,-1
 0 128 l 1,248,-1
64 128 m 1,252,-1
 128 128 l 1,253,-1
 128 64 l 1,254,-1
 64 64 l 1,255,-1
 64 128 l 1,252,-1
128 128 m 1,256,-1
 192 128 l 1,257,-1
 192 64 l 1,258,-1
 128 64 l 1,259,-1
 128 128 l 1,256,-1
192 128 m 1,260,-1
 256 128 l 1,261,-1
 256 64 l 1,262,-1
 192 64 l 1,263,-1
 192 128 l 1,260,-1
256 128 m 1,264,-1
 320 128 l 1,265,-1
 320 64 l 1,266,-1
 256 64 l 1,267,-1
 256 128 l 1,264,-1
320 128 m 1,268,-1
 384 128 l 1,269,-1
 384 64 l 1,270,-1
 320 64 l 1,271,-1
 320 128 l 1,268,-1
384 128 m 1,272,-1
 448 128 l 1,273,-1
 448 64 l 1,274,-1
 384 64 l 1,275,-1
 384 128 l 1,272,-1
448 128 m 1,276,-1
 512 128 l 1,277,-1
 512 64 l 1,278,-1
 448 64 l 1,279,-1
 448 128 l 1,276,-1
64 64 m 1,280,-1
 128 64 l 1,281,-1
 128 0 l 1,282,-1
 64 0 l 1,283,-1
 64 64 l 1,280,-1
128 64 m 1,284,-1
 192 64 l 1,285,-1
 192 0 l 1,286,-1
 128 0 l 1,287,-1
 128 64 l 1,284,-1
192 64 m 1,288,-1
 256 64 l 1,289,-1
 256 0 l 1,290,-1
 192 0 l 1,291,-1
 192 64 l 1,288,-1
256 64 m 1,292,-1
 320 64 l 1,293,-1
 320 0 l 1,294,-1
 256 0 l 1,295,-1
 256 64 l 1,292,-1
320 64 m 1,296,-1
 384 64 l 1,297,-1
 384 0 l 1,298,-1
 320 0 l 1,299,-1
 320 64 l 1,296,-1
384 64 m 1,300,-1
 448 64 l 1,301,-1
 448 0 l 1,302,-1
 384 0 l 1,303,-1
 384 64 l 1,300,-1
EndSplineSet
EndChar

StartChar: H
Encoding: 72 72 42
Width: 640
GlyphClass: 1
Flags: W
LayerCount: 2
Fore
SplineSet
64 768 m 1,0,-1
 128 768 l 1,1,-1
 128 704 l 1,2,-1
 64 704 l 1,3,-1
 64 768 l 1,0,-1
128 768 m 1,4,-1
 192 768 l 1,5,-1
 192 704 l 1,6,-1
 128 704 l 1,7,-1
 128 768 l 1,4,-1
320 768 m 1,8,-1
 384 768 l 1,9,-1
 384 704 l 1,10,-1
 320 704 l 1,11,-1
 320 768 l 1,8,-1
384 768 m 1,12,-1
 448 768 l 1,13,-1
 448 704 l 1,14,-1
 384 704 l 1,15,-1
 384 768 l 1,12,-1
0 704 m 1,16,-1
 64 704 l 1,17,-1
 64 640 l 1,18,-1
 0 640 l 1,19,-1
 0 704 l 1,16,-1
64 704 m 1,20,-1
 128 704 l 1,21,-1
 128 640 l 1,22,-1
 64 640 l 1,23,-1
 64 704 l 1,20,-1
128 704 m 1,24,-1
 192 704 l 1,25,-1
 192 640 l 1,26,-1
 128 640 l 1,27,-1
 128 704 l 1,24,-1
320 704 m 1,28,-1
 384 704 l 1,29,-1
 384 640 l 1,30,-1
 320 640 l 1,31,-1
 320 704 l 1,28,-1
384 704 m 1,32,-1
 448 704 l 1,33,-1
 448 640 l 1,34,-1
 384 640 l 1,35,-1
 384 704 l 1,32,-1
448 704 m 1,36,-1
 512 704 l 1,37,-1
 512 640 l 1,38,-1
 448 640 l 1,39,-1
 448 704 l 1,36,-1
0 640 m 1,40,-1
 64 640 l 1,41,-1
 64 576 l 1,42,-1
 0 576 l 1,43,-1
 0 640 l 1,40,-1
64 640 m 1,44,-1
 128 640 l 1,45,-1
 128 576 l 1,46,-1
 64 576 l 1,47,-1
 64 640 l 1,44,-1
128 640 m 1,48,-1
 192 640 l 1,49,-1
 192 576 l 1,50,-1
 128 576 l 1,51,-1
 128 640 l 1,48,-1
320 640 m 1,52,-1
 384 640 l 1,53,-1
 384 576 l 1,54,-1
 320 576 l 1,55,-1
 320 640 l 1,52,-1
384 640 m 1,56,-1
 448 640 l 1,57,-1
 448 576 l 1,58,-1
 384 576 l 1,59,-1
 384 640 l 1,56,-1
448 640 m 1,60,-1
 512 640 l 1,61,-1
 512 576 l 1,62,-1
 448 576 l 1,63,-1
 448 640 l 1,60,-1
0 576 m 1,64,-1
 64 576 l 1,65,-1
 64 512 l 1,66,-1
 0 512 l 1,67,-1
 0 576 l 1,64,-1
64 576 m 1,68,-1
 128 576 l 1,69,-1
 128 512 l 1,70,-1
 64 512 l 1,71,-1
 64 576 l 1,68,-1
128 576 m 1,72,-1
 192 576 l 1,73,-1
 192 512 l 1,74,-1
 128 512 l 1,75,-1
 128 576 l 1,72,-1
320 576 m 1,76,-1
 384 576 l 1,77,-1
 384 512 l 1,78,-1
 320 512 l 1,79,-1
 320 576 l 1,76,-1
384 576 m 1,80,-1
 448 576 l 1,81,-1
 448 512 l 1,82,-1
 384 512 l 1,83,-1
 384 576 l 1,80,-1
448 576 m 1,84,-1
 512 576 l 1,85,-1
 512 512 l 1,86,-1
 448 512 l 1,87,-1
 448 576 l 1,84,-1
0 512 m 1,88,-1
 64 512 l 1,89,-1
 64 448 l 1,90,-1
 0 448 l 1,91,-1
 0 512 l 1,88,-1
64 512 m 1,92,-1
 128 512 l 1,93,-1
 128 448 l 1,94,-1
 64 448 l 1,95,-1
 64 512 l 1,92,-1
128 512 m 1,96,-1
 192 512 l 1,97,-1
 192 448 l 1,98,-1
 128 448 l 1,99,-1
 128 512 l 1,96,-1
320 512 m 1,100,-1
 384 512 l 1,101,-1
 384 448 l 1,102,-1
 320 448 l 1,103,-1
 320 512 l 1,100,-1
384 512 m 1,104,-1
 448 512 l 1,105,-1
 448 448 l 1,106,-1
 384 448 l 1,107,-1
 384 512 l 1,104,-1
448 512 m 1,108,-1
 512 512 l 1,109,-1
 512 448 l 1,110,-1
 448 448 l 1,111,-1
 448 512 l 1,108,-1
0 448 m 1,112,-1
 64 448 l 1,113,-1
 64 384 l 1,114,-1
 0 384 l 1,115,-1
 0 448 l 1,112,-1
64 448 m 1,116,-1
 128 448 l 1,117,-1
 128 384 l 1,118,-1
 64 384 l 1,119,-1
 64 448 l 1,116,-1
128 448 m 1,120,-1
 192 448 l 1,121,-1
 192 384 l 1,122,-1
 128 384 l 1,123,-1
 128 448 l 1,120,-1
192 448 m 1,124,-1
 256 448 l 1,125,-1
 256 384 l 1,126,-1
 192 384 l 1,127,-1
 192 448 l 1,124,-1
256 448 m 1,128,-1
 320 448 l 1,129,-1
 320 384 l 1,130,-1
 256 384 l 1,131,-1
 256 448 l 1,128,-1
320 448 m 1,132,-1
 384 448 l 1,133,-1
 384 384 l 1,134,-1
 320 384 l 1,135,-1
 320 448 l 1,132,-1
384 448 m 1,136,-1
 448 448 l 1,137,-1
 448 384 l 1,138,-1
 384 384 l 1,139,-1
 384 448 l 1,136,-1
448 448 m 1,140,-1
 512 448 l 1,141,-1
 512 384 l 1,142,-1
 448 384 l 1,143,-1
 448 448 l 1,140,-1
0 384 m 1,144,-1
 64 384 l 1,145,-1
 64 320 l 1,146,-1
 0 320 l 1,147,-1
 0 384 l 1,144,-1
64 384 m 1,148,-1
 128 384 l 1,149,-1
 128 320 l 1,150,-1
 64 320 l 1,151,-1
 64 384 l 1,148,-1
128 384 m 1,152,-1
 192 384 l 1,153,-1
 192 320 l 1,154,-1
 128 320 l 1,155,-1
 128 384 l 1,152,-1
192 384 m 1,156,-1
 256 384 l 1,157,-1
 256 320 l 1,158,-1
 192 320 l 1,159,-1
 192 384 l 1,156,-1
256 384 m 1,160,-1
 320 384 l 1,161,-1
 320 320 l 1,162,-1
 256 320 l 1,163,-1
 256 384 l 1,160,-1
320 384 m 1,164,-1
 384 384 l 1,165,-1
 384 320 l 1,166,-1
 320 320 l 1,167,-1
 320 384 l 1,164,-1
384 384 m 1,168,-1
 448 384 l 1,169,-1
 448 320 l 1,170,-1
 384 320 l 1,171,-1
 384 384 l 1,168,-1
448 384 m 1,172,-1
 512 384 l 1,173,-1
 512 320 l 1,174,-1
 448 320 l 1,175,-1
 448 384 l 1,172,-1
0 320 m 1,176,-1
 64 320 l 1,177,-1
 64 256 l 1,178,-1
 0 256 l 1,179,-1
 0 320 l 1,176,-1
64 320 m 1,180,-1
 128 320 l 1,181,-1
 128 256 l 1,182,-1
 64 256 l 1,183,-1
 64 320 l 1,180,-1
128 320 m 1,184,-1
 192 320 l 1,185,-1
 192 256 l 1,186,-1
 128 256 l 1,187,-1
 128 320 l 1,184,-1
192 320 m 1,188,-1
 256 320 l 1,189,-1
 256 256 l 1,190,-1
 192 256 l 1,191,-1
 192 320 l 1,188,-1
256 320 m 1,192,-1
 320 320 l 1,193,-1
 320 256 l 1,194,-1
 256 256 l 1,195,-1
 256 320 l 1,192,-1
320 320 m 1,196,-1
 384 320 l 1,197,-1
 384 256 l 1,198,-1
 320 256 l 1,199,-1
 320 320 l 1,196,-1
384 320 m 1,200,-1
 448 320 l 1,201,-1
 448 256 l 1,202,-1
 384 256 l 1,203,-1
 384 320 l 1,200,-1
448 320 m 1,204,-1
 512 320 l 1,205,-1
 512 256 l 1,206,-1
 448 256 l 1,207,-1
 448 320 l 1,204,-1
0 256 m 1,208,-1
 64 256 l 1,209,-1
 64 192 l 1,210,-1
 0 192 l 1,211,-1
 0 256 l 1,208,-1
64 256 m 1,212,-1
 128 256 l 1,213,-1
 128 192 l 1,214,-1
 64 192 l 1,215,-1
 64 256 l 1,212,-1
128 256 m 1,216,-1
 192 256 l 1,217,-1
 192 192 l 1,218,-1
 128 192 l 1,219,-1
 128 256 l 1,216,-1
320 256 m 1,220,-1
 384 256 l 1,221,-1
 384 192 l 1,222,-1
 320 192 l 1,223,-1
 320 256 l 1,220,-1
384 256 m 1,224,-1
 448 256 l 1,225,-1
 448 192 l 1,226,-1
 384 192 l 1,227,-1
 384 256 l 1,224,-1
448 256 m 1,228,-1
 512 256 l 1,229,-1
 512 192 l 1,230,-1
 448 192 l 1,231,-1
 448 256 l 1,228,-1
0 192 m 1,232,-1
 64 192 l 1,233,-1
 64 128 l 1,234,-1
 0 128 l 1,235,-1
 0 192 l 1,232,-1
64 192 m 1,236,-1
 128 192 l 1,237,-1
 128 128 l 1,238,-1
 64 128 l 1,239,-1
 64 192 l 1,236,-1
128 192 m 1,240,-1
 192 192 l 1,241,-1
 192 128 l 1,242,-1
 128 128 l 1,243,-1
 128 192 l 1,240,-1
320 192 m 1,244,-1
 384 192 l 1,245,-1
 384 128 l 1,246,-1
 320 128 l 1,247,-1
 320 192 l 1,244,-1
384 192 m 1,248,-1
 448 192 l 1,249,-1
 448 128 l 1,250,-1
 384 128 l 1,251,-1
 384 192 l 1,248,-1
448 192 m 1,252,-1
 512 192 l 1,253,-1
 512 128 l 1,254,-1
 448 128 l 1,255,-1
 448 192 l 1,252,-1
0 128 m 1,256,-1
 64 128 l 1,257,-1
 64 64 l 1,258,-1
 0 64 l 1,259,-1
 0 128 l 1,256,-1
64 128 m 1,260,-1
 128 128 l 1,261,-1
 128 64 l 1,262,-1
 64 64 l 1,263,-1
 64 128 l 1,260,-1
128 128 m 1,264,-1
 192 128 l 1,265,-1
 192 64 l 1,266,-1
 128 64 l 1,267,-1
 128 128 l 1,264,-1
320 128 m 1,268,-1
 384 128 l 1,269,-1
 384 64 l 1,270,-1
 320 64 l 1,271,-1
 320 128 l 1,268,-1
384 128 m 1,272,-1
 448 128 l 1,273,-1
 448 64 l 1,274,-1
 384 64 l 1,275,-1
 384 128 l 1,272,-1
448 128 m 1,276,-1
 512 128 l 1,277,-1
 512 64 l 1,278,-1
 448 64 l 1,279,-1
 448 128 l 1,276,-1
64 64 m 1,280,-1
 128 64 l 1,281,-1
 128 0 l 1,282,-1
 64 0 l 1,283,-1
 64 64 l 1,280,-1
128 64 m 1,284,-1
 192 64 l 1,285,-1
 192 0 l 1,286,-1
 128 0 l 1,287,-1
 128 64 l 1,284,-1
320 64 m 1,288,-1
 384 64 l 1,289,-1
 384 0 l 1,290,-1
 320 0 l 1,291,-1
 320 64 l 1,288,-1
384 64 m 1,292,-1
 448 64 l 1,293,-1
 448 0 l 1,294,-1
 384 0 l 1,295,-1
 384 64 l 1,292,-1
EndSplineSet
EndChar

StartChar: I
Encoding: 73 73 43
Width: 576
GlyphClass: 1
Flags: W
LayerCount: 2
Fore
SplineSet
64 768 m 1,0,-1
 128 768 l 1,1,-1
 128 704 l 1,2,-1
 64 704 l 1,3,-1
 64 768 l 1,0,-1
128 768 m 1,4,-1
 192 768 l 1,5,-1
 192 704 l 1,6,-1
 128 704 l 1,7,-1
 128 768 l 1,4,-1
192 768 m 1,8,-1
 256 768 l 1,9,-1
 256 704 l 1,10,-1
 192 704 l 1,11,-1
 192 768 l 1,8,-1
256 768 m 1,12,-1
 320 768 l 1,13,-1
 320 704 l 1,14,-1
 256 704 l 1,15,-1
 256 768 l 1,12,-1
320 768 m 1,16,-1
 384 768 l 1,17,-1
 384 704 l 1,18,-1
 320 704 l 1,19,-1
 320 768 l 1,16,-1
384 768 m 1,20,-1
 448 768 l 1,21,-1
 448 704 l 1,22,-1
 384 704 l 1,23,-1
 384 768 l 1,20,-1
0 704 m 1,24,-1
 64 704 l 1,25,-1
 64 640 l 1,26,-1
 0 640 l 1,27,-1
 0 704 l 1,24,-1
64 704 m 1,28,-1
 128 704 l 1,29,-1
 128 640 l 1,30,-1
 64 640 l 1,31,-1
 64 704 l 1,28,-1
128 704 m 1,32,-1
 192 704 l 1,33,-1
 192 640 l 1,34,-1
 128 640 l 1,35,-1
 128 704 l 1,32,-1
192 704 m 1,36,-1
 256 704 l 1,37,-1
 256 640 l 1,38,-1
 192 640 l 1,39,-1
 192 704 l 1,36,-1
256 704 m 1,40,-1
 320 704 l 1,41,-1
 320 640 l 1,42,-1
 256 640 l 1,43,-1
 256 704 l 1,40,-1
320 704 m 1,44,-1
 384 704 l 1,45,-1
 384 640 l 1,46,-1
 320 640 l 1,47,-1
 320 704 l 1,44,-1
384 704 m 1,48,-1
 448 704 l 1,49,-1
 448 640 l 1,50,-1
 384 640 l 1,51,-1
 384 704 l 1,48,-1
0 640 m 1,52,-1
 64 640 l 1,53,-1
 64 576 l 1,54,-1
 0 576 l 1,55,-1
 0 640 l 1,52,-1
64 640 m 1,56,-1
 128 640 l 1,57,-1
 128 576 l 1,58,-1
 64 576 l 1,59,-1
 64 640 l 1,56,-1
128 640 m 1,60,-1
 192 640 l 1,61,-1
 192 576 l 1,62,-1
 128 576 l 1,63,-1
 128 640 l 1,60,-1
192 640 m 1,64,-1
 256 640 l 1,65,-1
 256 576 l 1,66,-1
 192 576 l 1,67,-1
 192 640 l 1,64,-1
256 640 m 1,68,-1
 320 640 l 1,69,-1
 320 576 l 1,70,-1
 256 576 l 1,71,-1
 256 640 l 1,68,-1
320 640 m 1,72,-1
 384 640 l 1,73,-1
 384 576 l 1,74,-1
 320 576 l 1,75,-1
 320 640 l 1,72,-1
384 640 m 1,76,-1
 448 640 l 1,77,-1
 448 576 l 1,78,-1
 384 576 l 1,79,-1
 384 640 l 1,76,-1
128 576 m 1,80,-1
 192 576 l 1,81,-1
 192 512 l 1,82,-1
 128 512 l 1,83,-1
 128 576 l 1,80,-1
192 576 m 1,84,-1
 256 576 l 1,85,-1
 256 512 l 1,86,-1
 192 512 l 1,87,-1
 192 576 l 1,84,-1
256 576 m 1,88,-1
 320 576 l 1,89,-1
 320 512 l 1,90,-1
 256 512 l 1,91,-1
 256 576 l 1,88,-1
128 512 m 1,92,-1
 192 512 l 1,93,-1
 192 448 l 1,94,-1
 128 448 l 1,95,-1
 128 512 l 1,92,-1
192 512 m 1,96,-1
 256 512 l 1,97,-1
 256 448 l 1,98,-1
 192 448 l 1,99,-1
 192 512 l 1,96,-1
256 512 m 1,100,-1
 320 512 l 1,101,-1
 320 448 l 1,102,-1
 256 448 l 1,103,-1
 256 512 l 1,100,-1
128 448 m 1,104,-1
 192 448 l 1,105,-1
 192 384 l 1,106,-1
 128 384 l 1,107,-1
 128 448 l 1,104,-1
192 448 m 1,108,-1
 256 448 l 1,109,-1
 256 384 l 1,110,-1
 192 384 l 1,111,-1
 192 448 l 1,108,-1
256 448 m 1,112,-1
 320 448 l 1,113,-1
 320 384 l 1,114,-1
 256 384 l 1,115,-1
 256 448 l 1,112,-1
128 384 m 1,116,-1
 192 384 l 1,117,-1
 192 320 l 1,118,-1
 128 320 l 1,119,-1
 128 384 l 1,116,-1
192 384 m 1,120,-1
 256 384 l 1,121,-1
 256 320 l 1,122,-1
 192 320 l 1,123,-1
 192 384 l 1,120,-1
256 384 m 1,124,-1
 320 384 l 1,125,-1
 320 320 l 1,126,-1
 256 320 l 1,127,-1
 256 384 l 1,124,-1
128 320 m 1,128,-1
 192 320 l 1,129,-1
 192 256 l 1,130,-1
 128 256 l 1,131,-1
 128 320 l 1,128,-1
192 320 m 1,132,-1
 256 320 l 1,133,-1
 256 256 l 1,134,-1
 192 256 l 1,135,-1
 192 320 l 1,132,-1
256 320 m 1,136,-1
 320 320 l 1,137,-1
 320 256 l 1,138,-1
 256 256 l 1,139,-1
 256 320 l 1,136,-1
128 256 m 1,140,-1
 192 256 l 1,141,-1
 192 192 l 1,142,-1
 128 192 l 1,143,-1
 128 256 l 1,140,-1
192 256 m 1,144,-1
 256 256 l 1,145,-1
 256 192 l 1,146,-1
 192 192 l 1,147,-1
 192 256 l 1,144,-1
256 256 m 1,148,-1
 320 256 l 1,149,-1
 320 192 l 1,150,-1
 256 192 l 1,151,-1
 256 256 l 1,148,-1
0 192 m 1,152,-1
 64 192 l 1,153,-1
 64 128 l 1,154,-1
 0 128 l 1,155,-1
 0 192 l 1,152,-1
64 192 m 1,156,-1
 128 192 l 1,157,-1
 128 128 l 1,158,-1
 64 128 l 1,159,-1
 64 192 l 1,156,-1
128 192 m 1,160,-1
 192 192 l 1,161,-1
 192 128 l 1,162,-1
 128 128 l 1,163,-1
 128 192 l 1,160,-1
192 192 m 1,164,-1
 256 192 l 1,165,-1
 256 128 l 1,166,-1
 192 128 l 1,167,-1
 192 192 l 1,164,-1
256 192 m 1,168,-1
 320 192 l 1,169,-1
 320 128 l 1,170,-1
 256 128 l 1,171,-1
 256 192 l 1,168,-1
320 192 m 1,172,-1
 384 192 l 1,173,-1
 384 128 l 1,174,-1
 320 128 l 1,175,-1
 320 192 l 1,172,-1
384 192 m 1,176,-1
 448 192 l 1,177,-1
 448 128 l 1,178,-1
 384 128 l 1,179,-1
 384 192 l 1,176,-1
0 128 m 1,180,-1
 64 128 l 1,181,-1
 64 64 l 1,182,-1
 0 64 l 1,183,-1
 0 128 l 1,180,-1
64 128 m 1,184,-1
 128 128 l 1,185,-1
 128 64 l 1,186,-1
 64 64 l 1,187,-1
 64 128 l 1,184,-1
128 128 m 1,188,-1
 192 128 l 1,189,-1
 192 64 l 1,190,-1
 128 64 l 1,191,-1
 128 128 l 1,188,-1
192 128 m 1,192,-1
 256 128 l 1,193,-1
 256 64 l 1,194,-1
 192 64 l 1,195,-1
 192 128 l 1,192,-1
256 128 m 1,196,-1
 320 128 l 1,197,-1
 320 64 l 1,198,-1
 256 64 l 1,199,-1
 256 128 l 1,196,-1
320 128 m 1,200,-1
 384 128 l 1,201,-1
 384 64 l 1,202,-1
 320 64 l 1,203,-1
 320 128 l 1,200,-1
384 128 m 1,204,-1
 448 128 l 1,205,-1
 448 64 l 1,206,-1
 384 64 l 1,207,-1
 384 128 l 1,204,-1
0 64 m 1,208,-1
 64 64 l 1,209,-1
 64 0 l 1,210,-1
 0 0 l 1,211,-1
 0 64 l 1,208,-1
64 64 m 1,212,-1
 128 64 l 1,213,-1
 128 0 l 1,214,-1
 64 0 l 1,215,-1
 64 64 l 1,212,-1
128 64 m 1,216,-1
 192 64 l 1,217,-1
 192 0 l 1,218,-1
 128 0 l 1,219,-1
 128 64 l 1,216,-1
192 64 m 1,220,-1
 256 64 l 1,221,-1
 256 0 l 1,222,-1
 192 0 l 1,223,-1
 192 64 l 1,220,-1
256 64 m 1,224,-1
 320 64 l 1,225,-1
 320 0 l 1,226,-1
 256 0 l 1,227,-1
 256 64 l 1,224,-1
320 64 m 1,228,-1
 384 64 l 1,229,-1
 384 0 l 1,230,-1
 320 0 l 1,231,-1
 320 64 l 1,228,-1
384 64 m 1,232,-1
 448 64 l 1,233,-1
 448 0 l 1,234,-1
 384 0 l 1,235,-1
 384 64 l 1,232,-1
EndSplineSet
EndChar

StartChar: J
Encoding: 74 74 44
Width: 640
GlyphClass: 1
Flags: W
LayerCount: 2
Fore
SplineSet
320 768 m 1,0,-1
 384 768 l 1,1,-1
 384 704 l 1,2,-1
 320 704 l 1,3,-1
 320 768 l 1,0,-1
384 768 m 1,4,-1
 448 768 l 1,5,-1
 448 704 l 1,6,-1
 384 704 l 1,7,-1
 384 768 l 1,4,-1
320 704 m 1,8,-1
 384 704 l 1,9,-1
 384 640 l 1,10,-1
 320 640 l 1,11,-1
 320 704 l 1,8,-1
384 704 m 1,12,-1
 448 704 l 1,13,-1
 448 640 l 1,14,-1
 384 640 l 1,15,-1
 384 704 l 1,12,-1
448 704 m 1,16,-1
 512 704 l 1,17,-1
 512 640 l 1,18,-1
 448 640 l 1,19,-1
 448 704 l 1,16,-1
320 640 m 1,20,-1
 384 640 l 1,21,-1
 384 576 l 1,22,-1
 320 576 l 1,23,-1
 320 640 l 1,20,-1
384 640 m 1,24,-1
 448 640 l 1,25,-1
 448 576 l 1,26,-1
 384 576 l 1,27,-1
 384 640 l 1,24,-1
448 640 m 1,28,-1
 512 640 l 1,29,-1
 512 576 l 1,30,-1
 448 576 l 1,31,-1
 448 640 l 1,28,-1
320 576 m 1,32,-1
 384 576 l 1,33,-1
 384 512 l 1,34,-1
 320 512 l 1,35,-1
 320 576 l 1,32,-1
384 576 m 1,36,-1
 448 576 l 1,37,-1
 448 512 l 1,38,-1
 384 512 l 1,39,-1
 384 576 l 1,36,-1
448 576 m 1,40,-1
 512 576 l 1,41,-1
 512 512 l 1,42,-1
 448 512 l 1,43,-1
 448 576 l 1,40,-1
320 512 m 1,44,-1
 384 512 l 1,45,-1
 384 448 l 1,46,-1
 320 448 l 1,47,-1
 320 512 l 1,44,-1
384 512 m 1,48,-1
 448 512 l 1,49,-1
 448 448 l 1,50,-1
 384 448 l 1,51,-1
 384 512 l 1,48,-1
448 512 m 1,52,-1
 512 512 l 1,53,-1
 512 448 l 1,54,-1
 448 448 l 1,55,-1
 448 512 l 1,52,-1
320 448 m 1,56,-1
 384 448 l 1,57,-1
 384 384 l 1,58,-1
 320 384 l 1,59,-1
 320 448 l 1,56,-1
384 448 m 1,60,-1
 448 448 l 1,61,-1
 448 384 l 1,62,-1
 384 384 l 1,63,-1
 384 448 l 1,60,-1
448 448 m 1,64,-1
 512 448 l 1,65,-1
 512 384 l 1,66,-1
 448 384 l 1,67,-1
 448 448 l 1,64,-1
320 384 m 1,68,-1
 384 384 l 1,69,-1
 384 320 l 1,70,-1
 320 320 l 1,71,-1
 320 384 l 1,68,-1
384 384 m 1,72,-1
 448 384 l 1,73,-1
 448 320 l 1,74,-1
 384 320 l 1,75,-1
 384 384 l 1,72,-1
448 384 m 1,76,-1
 512 384 l 1,77,-1
 512 320 l 1,78,-1
 448 320 l 1,79,-1
 448 384 l 1,76,-1
0 320 m 1,80,-1
 64 320 l 1,81,-1
 64 256 l 1,82,-1
 0 256 l 1,83,-1
 0 320 l 1,80,-1
64 320 m 1,84,-1
 128 320 l 1,85,-1
 128 256 l 1,86,-1
 64 256 l 1,87,-1
 64 320 l 1,84,-1
320 320 m 1,88,-1
 384 320 l 1,89,-1
 384 256 l 1,90,-1
 320 256 l 1,91,-1
 320 320 l 1,88,-1
384 320 m 1,92,-1
 448 320 l 1,93,-1
 448 256 l 1,94,-1
 384 256 l 1,95,-1
 384 320 l 1,92,-1
448 320 m 1,96,-1
 512 320 l 1,97,-1
 512 256 l 1,98,-1
 448 256 l 1,99,-1
 448 320 l 1,96,-1
0 256 m 1,100,-1
 64 256 l 1,101,-1
 64 192 l 1,102,-1
 0 192 l 1,103,-1
 0 256 l 1,100,-1
64 256 m 1,104,-1
 128 256 l 1,105,-1
 128 192 l 1,106,-1
 64 192 l 1,107,-1
 64 256 l 1,104,-1
128 256 m 1,108,-1
 192 256 l 1,109,-1
 192 192 l 1,110,-1
 128 192 l 1,111,-1
 128 256 l 1,108,-1
320 256 m 1,112,-1
 384 256 l 1,113,-1
 384 192 l 1,114,-1
 320 192 l 1,115,-1
 320 256 l 1,112,-1
384 256 m 1,116,-1
 448 256 l 1,117,-1
 448 192 l 1,118,-1
 384 192 l 1,119,-1
 384 256 l 1,116,-1
448 256 m 1,120,-1
 512 256 l 1,121,-1
 512 192 l 1,122,-1
 448 192 l 1,123,-1
 448 256 l 1,120,-1
0 192 m 1,124,-1
 64 192 l 1,125,-1
 64 128 l 1,126,-1
 0 128 l 1,127,-1
 0 192 l 1,124,-1
64 192 m 1,128,-1
 128 192 l 1,129,-1
 128 128 l 1,130,-1
 64 128 l 1,131,-1
 64 192 l 1,128,-1
128 192 m 1,132,-1
 192 192 l 1,133,-1
 192 128 l 1,134,-1
 128 128 l 1,135,-1
 128 192 l 1,132,-1
192 192 m 1,136,-1
 256 192 l 1,137,-1
 256 128 l 1,138,-1
 192 128 l 1,139,-1
 192 192 l 1,136,-1
256 192 m 1,140,-1
 320 192 l 1,141,-1
 320 128 l 1,142,-1
 256 128 l 1,143,-1
 256 192 l 1,140,-1
320 192 m 1,144,-1
 384 192 l 1,145,-1
 384 128 l 1,146,-1
 320 128 l 1,147,-1
 320 192 l 1,144,-1
384 192 m 1,148,-1
 448 192 l 1,149,-1
 448 128 l 1,150,-1
 384 128 l 1,151,-1
 384 192 l 1,148,-1
448 192 m 1,152,-1
 512 192 l 1,153,-1
 512 128 l 1,154,-1
 448 128 l 1,155,-1
 448 192 l 1,152,-1
0 128 m 1,156,-1
 64 128 l 1,157,-1
 64 64 l 1,158,-1
 0 64 l 1,159,-1
 0 128 l 1,156,-1
64 128 m 1,160,-1
 128 128 l 1,161,-1
 128 64 l 1,162,-1
 64 64 l 1,163,-1
 64 128 l 1,160,-1
128 128 m 1,164,-1
 192 128 l 1,165,-1
 192 64 l 1,166,-1
 128 64 l 1,167,-1
 128 128 l 1,164,-1
192 128 m 1,168,-1
 256 128 l 1,169,-1
 256 64 l 1,170,-1
 192 64 l 1,171,-1
 192 128 l 1,168,-1
256 128 m 1,172,-1
 320 128 l 1,173,-1
 320 64 l 1,174,-1
 256 64 l 1,175,-1
 256 128 l 1,172,-1
320 128 m 1,176,-1
 384 128 l 1,177,-1
 384 64 l 1,178,-1
 320 64 l 1,179,-1
 320 128 l 1,176,-1
384 128 m 1,180,-1
 448 128 l 1,181,-1
 448 64 l 1,182,-1
 384 64 l 1,183,-1
 384 128 l 1,180,-1
448 128 m 1,184,-1
 512 128 l 1,185,-1
 512 64 l 1,186,-1
 448 64 l 1,187,-1
 448 128 l 1,184,-1
64 64 m 1,188,-1
 128 64 l 1,189,-1
 128 0 l 1,190,-1
 64 0 l 1,191,-1
 64 64 l 1,188,-1
128 64 m 1,192,-1
 192 64 l 1,193,-1
 192 0 l 1,194,-1
 128 0 l 1,195,-1
 128 64 l 1,192,-1
192 64 m 1,196,-1
 256 64 l 1,197,-1
 256 0 l 1,198,-1
 192 0 l 1,199,-1
 192 64 l 1,196,-1
256 64 m 1,200,-1
 320 64 l 1,201,-1
 320 0 l 1,202,-1
 256 0 l 1,203,-1
 256 64 l 1,200,-1
320 64 m 1,204,-1
 384 64 l 1,205,-1
 384 0 l 1,206,-1
 320 0 l 1,207,-1
 320 64 l 1,204,-1
384 64 m 1,208,-1
 448 64 l 1,209,-1
 448 0 l 1,210,-1
 384 0 l 1,211,-1
 384 64 l 1,208,-1
EndSplineSet
EndChar

StartChar: K
Encoding: 75 75 45
Width: 640
GlyphClass: 1
Flags: W
LayerCount: 2
Fore
SplineSet
0 768 m 1,0,-1
 64 768 l 1,1,-1
 64 704 l 1,2,-1
 0 704 l 1,3,-1
 0 768 l 1,0,-1
64 768 m 1,4,-1
 128 768 l 1,5,-1
 128 704 l 1,6,-1
 64 704 l 1,7,-1
 64 768 l 1,4,-1
128 768 m 1,8,-1
 192 768 l 1,9,-1
 192 704 l 1,10,-1
 128 704 l 1,11,-1
 128 768 l 1,8,-1
320 768 m 1,12,-1
 384 768 l 1,13,-1
 384 704 l 1,14,-1
 320 704 l 1,15,-1
 320 768 l 1,12,-1
384 768 m 1,16,-1
 448 768 l 1,17,-1
 448 704 l 1,18,-1
 384 704 l 1,19,-1
 384 768 l 1,16,-1
0 704 m 1,20,-1
 64 704 l 1,21,-1
 64 640 l 1,22,-1
 0 640 l 1,23,-1
 0 704 l 1,20,-1
64 704 m 1,24,-1
 128 704 l 1,25,-1
 128 640 l 1,26,-1
 64 640 l 1,27,-1
 64 704 l 1,24,-1
128 704 m 1,28,-1
 192 704 l 1,29,-1
 192 640 l 1,30,-1
 128 640 l 1,31,-1
 128 704 l 1,28,-1
320 704 m 1,32,-1
 384 704 l 1,33,-1
 384 640 l 1,34,-1
 320 640 l 1,35,-1
 320 704 l 1,32,-1
384 704 m 1,36,-1
 448 704 l 1,37,-1
 448 640 l 1,38,-1
 384 640 l 1,39,-1
 384 704 l 1,36,-1
448 704 m 1,40,-1
 512 704 l 1,41,-1
 512 640 l 1,42,-1
 448 640 l 1,43,-1
 448 704 l 1,40,-1
0 640 m 1,44,-1
 64 640 l 1,45,-1
 64 576 l 1,46,-1
 0 576 l 1,47,-1
 0 640 l 1,44,-1
64 640 m 1,48,-1
 128 640 l 1,49,-1
 128 576 l 1,50,-1
 64 576 l 1,51,-1
 64 640 l 1,48,-1
128 640 m 1,52,-1
 192 640 l 1,53,-1
 192 576 l 1,54,-1
 128 576 l 1,55,-1
 128 640 l 1,52,-1
256 640 m 1,56,-1
 320 640 l 1,57,-1
 320 576 l 1,58,-1
 256 576 l 1,59,-1
 256 640 l 1,56,-1
320 640 m 1,60,-1
 384 640 l 1,61,-1
 384 576 l 1,62,-1
 320 576 l 1,63,-1
 320 640 l 1,60,-1
384 640 m 1,64,-1
 448 640 l 1,65,-1
 448 576 l 1,66,-1
 384 576 l 1,67,-1
 384 640 l 1,64,-1
448 640 m 1,68,-1
 512 640 l 1,69,-1
 512 576 l 1,70,-1
 448 576 l 1,71,-1
 448 640 l 1,68,-1
0 576 m 1,72,-1
 64 576 l 1,73,-1
 64 512 l 1,74,-1
 0 512 l 1,75,-1
 0 576 l 1,72,-1
64 576 m 1,76,-1
 128 576 l 1,77,-1
 128 512 l 1,78,-1
 64 512 l 1,79,-1
 64 576 l 1,76,-1
128 576 m 1,80,-1
 192 576 l 1,81,-1
 192 512 l 1,82,-1
 128 512 l 1,83,-1
 128 576 l 1,80,-1
256 576 m 1,84,-1
 320 576 l 1,85,-1
 320 512 l 1,86,-1
 256 512 l 1,87,-1
 256 576 l 1,84,-1
320 576 m 1,88,-1
 384 576 l 1,89,-1
 384 512 l 1,90,-1
 320 512 l 1,91,-1
 320 576 l 1,88,-1
384 576 m 1,92,-1
 448 576 l 1,93,-1
 448 512 l 1,94,-1
 384 512 l 1,95,-1
 384 576 l 1,92,-1
0 512 m 1,96,-1
 64 512 l 1,97,-1
 64 448 l 1,98,-1
 0 448 l 1,99,-1
 0 512 l 1,96,-1
64 512 m 1,100,-1
 128 512 l 1,101,-1
 128 448 l 1,102,-1
 64 448 l 1,103,-1
 64 512 l 1,100,-1
128 512 m 1,104,-1
 192 512 l 1,105,-1
 192 448 l 1,106,-1
 128 448 l 1,107,-1
 128 512 l 1,104,-1
192 512 m 1,108,-1
 256 512 l 1,109,-1
 256 448 l 1,110,-1
 192 448 l 1,111,-1
 192 512 l 1,108,-1
256 512 m 1,112,-1
 320 512 l 1,113,-1
 320 448 l 1,114,-1
 256 448 l 1,115,-1
 256 512 l 1,112,-1
320 512 m 1,116,-1
 384 512 l 1,117,-1
 384 448 l 1,118,-1
 320 448 l 1,119,-1
 320 512 l 1,116,-1
384 512 m 1,120,-1
 448 512 l 1,121,-1
 448 448 l 1,122,-1
 384 448 l 1,123,-1
 384 512 l 1,120,-1
0 448 m 1,124,-1
 64 448 l 1,125,-1
 64 384 l 1,126,-1
 0 384 l 1,127,-1
 0 448 l 1,124,-1
64 448 m 1,128,-1
 128 448 l 1,129,-1
 128 384 l 1,130,-1
 64 384 l 1,131,-1
 64 448 l 1,128,-1
128 448 m 1,132,-1
 192 448 l 1,133,-1
 192 384 l 1,134,-1
 128 384 l 1,135,-1
 128 448 l 1,132,-1
192 448 m 1,136,-1
 256 448 l 1,137,-1
 256 384 l 1,138,-1
 192 384 l 1,139,-1
 192 448 l 1,136,-1
256 448 m 1,140,-1
 320 448 l 1,141,-1
 320 384 l 1,142,-1
 256 384 l 1,143,-1
 256 448 l 1,140,-1
320 448 m 1,144,-1
 384 448 l 1,145,-1
 384 384 l 1,146,-1
 320 384 l 1,147,-1
 320 448 l 1,144,-1
0 384 m 1,148,-1
 64 384 l 1,149,-1
 64 320 l 1,150,-1
 0 320 l 1,151,-1
 0 384 l 1,148,-1
64 384 m 1,152,-1
 128 384 l 1,153,-1
 128 320 l 1,154,-1
 64 320 l 1,155,-1
 64 384 l 1,152,-1
128 384 m 1,156,-1
 192 384 l 1,157,-1
 192 320 l 1,158,-1
 128 320 l 1,159,-1
 128 384 l 1,156,-1
192 384 m 1,160,-1
 256 384 l 1,161,-1
 256 320 l 1,162,-1
 192 320 l 1,163,-1
 192 384 l 1,160,-1
256 384 m 1,164,-1
 320 384 l 1,165,-1
 320 320 l 1,166,-1
 256 320 l 1,167,-1
 256 384 l 1,164,-1
320 384 m 1,168,-1
 384 384 l 1,169,-1
 384 320 l 1,170,-1
 320 320 l 1,171,-1
 320 384 l 1,168,-1
0 320 m 1,172,-1
 64 320 l 1,173,-1
 64 256 l 1,174,-1
 0 256 l 1,175,-1
 0 320 l 1,172,-1
64 320 m 1,176,-1
 128 320 l 1,177,-1
 128 256 l 1,178,-1
 64 256 l 1,179,-1
 64 320 l 1,176,-1
128 320 m 1,180,-1
 192 320 l 1,181,-1
 192 256 l 1,182,-1
 128 256 l 1,183,-1
 128 320 l 1,180,-1
192 320 m 1,184,-1
 256 320 l 1,185,-1
 256 256 l 1,186,-1
 192 256 l 1,187,-1
 192 320 l 1,184,-1
256 320 m 1,188,-1
 320 320 l 1,189,-1
 320 256 l 1,190,-1
 256 256 l 1,191,-1
 256 320 l 1,188,-1
320 320 m 1,192,-1
 384 320 l 1,193,-1
 384 256 l 1,194,-1
 320 256 l 1,195,-1
 320 320 l 1,192,-1
384 320 m 1,196,-1
 448 320 l 1,197,-1
 448 256 l 1,198,-1
 384 256 l 1,199,-1
 384 320 l 1,196,-1
0 256 m 1,200,-1
 64 256 l 1,201,-1
 64 192 l 1,202,-1
 0 192 l 1,203,-1
 0 256 l 1,200,-1
64 256 m 1,204,-1
 128 256 l 1,205,-1
 128 192 l 1,206,-1
 64 192 l 1,207,-1
 64 256 l 1,204,-1
128 256 m 1,208,-1
 192 256 l 1,209,-1
 192 192 l 1,210,-1
 128 192 l 1,211,-1
 128 256 l 1,208,-1
192 256 m 1,212,-1
 256 256 l 1,213,-1
 256 192 l 1,214,-1
 192 192 l 1,215,-1
 192 256 l 1,212,-1
256 256 m 1,216,-1
 320 256 l 1,217,-1
 320 192 l 1,218,-1
 256 192 l 1,219,-1
 256 256 l 1,216,-1
320 256 m 1,220,-1
 384 256 l 1,221,-1
 384 192 l 1,222,-1
 320 192 l 1,223,-1
 320 256 l 1,220,-1
384 256 m 1,224,-1
 448 256 l 1,225,-1
 448 192 l 1,226,-1
 384 192 l 1,227,-1
 384 256 l 1,224,-1
0 192 m 1,228,-1
 64 192 l 1,229,-1
 64 128 l 1,230,-1
 0 128 l 1,231,-1
 0 192 l 1,228,-1
64 192 m 1,232,-1
 128 192 l 1,233,-1
 128 128 l 1,234,-1
 64 128 l 1,235,-1
 64 192 l 1,232,-1
128 192 m 1,236,-1
 192 192 l 1,237,-1
 192 128 l 1,238,-1
 128 128 l 1,239,-1
 128 192 l 1,236,-1
256 192 m 1,240,-1
 320 192 l 1,241,-1
 320 128 l 1,242,-1
 256 128 l 1,243,-1
 256 192 l 1,240,-1
320 192 m 1,244,-1
 384 192 l 1,245,-1
 384 128 l 1,246,-1
 320 128 l 1,247,-1
 320 192 l 1,244,-1
384 192 m 1,248,-1
 448 192 l 1,249,-1
 448 128 l 1,250,-1
 384 128 l 1,251,-1
 384 192 l 1,248,-1
448 192 m 1,252,-1
 512 192 l 1,253,-1
 512 128 l 1,254,-1
 448 128 l 1,255,-1
 448 192 l 1,252,-1
0 128 m 1,256,-1
 64 128 l 1,257,-1
 64 64 l 1,258,-1
 0 64 l 1,259,-1
 0 128 l 1,256,-1
64 128 m 1,260,-1
 128 128 l 1,261,-1
 128 64 l 1,262,-1
 64 64 l 1,263,-1
 64 128 l 1,260,-1
128 128 m 1,264,-1
 192 128 l 1,265,-1
 192 64 l 1,266,-1
 128 64 l 1,267,-1
 128 128 l 1,264,-1
256 128 m 1,268,-1
 320 128 l 1,269,-1
 320 64 l 1,270,-1
 256 64 l 1,271,-1
 256 128 l 1,268,-1
320 128 m 1,272,-1
 384 128 l 1,273,-1
 384 64 l 1,274,-1
 320 64 l 1,275,-1
 320 128 l 1,272,-1
384 128 m 1,276,-1
 448 128 l 1,277,-1
 448 64 l 1,278,-1
 384 64 l 1,279,-1
 384 128 l 1,276,-1
448 128 m 1,280,-1
 512 128 l 1,281,-1
 512 64 l 1,282,-1
 448 64 l 1,283,-1
 448 128 l 1,280,-1
0 64 m 1,284,-1
 64 64 l 1,285,-1
 64 0 l 1,286,-1
 0 0 l 1,287,-1
 0 64 l 1,284,-1
64 64 m 1,288,-1
 128 64 l 1,289,-1
 128 0 l 1,290,-1
 64 0 l 1,291,-1
 64 64 l 1,288,-1
128 64 m 1,292,-1
 192 64 l 1,293,-1
 192 0 l 1,294,-1
 128 0 l 1,295,-1
 128 64 l 1,292,-1
320 64 m 1,296,-1
 384 64 l 1,297,-1
 384 0 l 1,298,-1
 320 0 l 1,299,-1
 320 64 l 1,296,-1
384 64 m 1,300,-1
 448 64 l 1,301,-1
 448 0 l 1,302,-1
 384 0 l 1,303,-1
 384 64 l 1,300,-1
448 64 m 1,304,-1
 512 64 l 1,305,-1
 512 0 l 1,306,-1
 448 0 l 1,307,-1
 448 64 l 1,304,-1
EndSplineSet
EndChar

StartChar: L
Encoding: 76 76 46
Width: 640
GlyphClass: 1
Flags: W
LayerCount: 2
Fore
SplineSet
64 768 m 1,0,-1
 128 768 l 1,1,-1
 128 704 l 1,2,-1
 64 704 l 1,3,-1
 64 768 l 1,0,-1
128 768 m 1,4,-1
 192 768 l 1,5,-1
 192 704 l 1,6,-1
 128 704 l 1,7,-1
 128 768 l 1,4,-1
0 704 m 1,8,-1
 64 704 l 1,9,-1
 64 640 l 1,10,-1
 0 640 l 1,11,-1
 0 704 l 1,8,-1
64 704 m 1,12,-1
 128 704 l 1,13,-1
 128 640 l 1,14,-1
 64 640 l 1,15,-1
 64 704 l 1,12,-1
128 704 m 1,16,-1
 192 704 l 1,17,-1
 192 640 l 1,18,-1
 128 640 l 1,19,-1
 128 704 l 1,16,-1
0 640 m 1,20,-1
 64 640 l 1,21,-1
 64 576 l 1,22,-1
 0 576 l 1,23,-1
 0 640 l 1,20,-1
64 640 m 1,24,-1
 128 640 l 1,25,-1
 128 576 l 1,26,-1
 64 576 l 1,27,-1
 64 640 l 1,24,-1
128 640 m 1,28,-1
 192 640 l 1,29,-1
 192 576 l 1,30,-1
 128 576 l 1,31,-1
 128 640 l 1,28,-1
0 576 m 1,32,-1
 64 576 l 1,33,-1
 64 512 l 1,34,-1
 0 512 l 1,35,-1
 0 576 l 1,32,-1
64 576 m 1,36,-1
 128 576 l 1,37,-1
 128 512 l 1,38,-1
 64 512 l 1,39,-1
 64 576 l 1,36,-1
128 576 m 1,40,-1
 192 576 l 1,41,-1
 192 512 l 1,42,-1
 128 512 l 1,43,-1
 128 576 l 1,40,-1
0 512 m 1,44,-1
 64 512 l 1,45,-1
 64 448 l 1,46,-1
 0 448 l 1,47,-1
 0 512 l 1,44,-1
64 512 m 1,48,-1
 128 512 l 1,49,-1
 128 448 l 1,50,-1
 64 448 l 1,51,-1
 64 512 l 1,48,-1
128 512 m 1,52,-1
 192 512 l 1,53,-1
 192 448 l 1,54,-1
 128 448 l 1,55,-1
 128 512 l 1,52,-1
0 448 m 1,56,-1
 64 448 l 1,57,-1
 64 384 l 1,58,-1
 0 384 l 1,59,-1
 0 448 l 1,56,-1
64 448 m 1,60,-1
 128 448 l 1,61,-1
 128 384 l 1,62,-1
 64 384 l 1,63,-1
 64 448 l 1,60,-1
128 448 m 1,64,-1
 192 448 l 1,65,-1
 192 384 l 1,66,-1
 128 384 l 1,67,-1
 128 448 l 1,64,-1
0 384 m 1,68,-1
 64 384 l 1,69,-1
 64 320 l 1,70,-1
 0 320 l 1,71,-1
 0 384 l 1,68,-1
64 384 m 1,72,-1
 128 384 l 1,73,-1
 128 320 l 1,74,-1
 64 320 l 1,75,-1
 64 384 l 1,72,-1
128 384 m 1,76,-1
 192 384 l 1,77,-1
 192 320 l 1,78,-1
 128 320 l 1,79,-1
 128 384 l 1,76,-1
0 320 m 1,80,-1
 64 320 l 1,81,-1
 64 256 l 1,82,-1
 0 256 l 1,83,-1
 0 320 l 1,80,-1
64 320 m 1,84,-1
 128 320 l 1,85,-1
 128 256 l 1,86,-1
 64 256 l 1,87,-1
 64 320 l 1,84,-1
128 320 m 1,88,-1
 192 320 l 1,89,-1
 192 256 l 1,90,-1
 128 256 l 1,91,-1
 128 320 l 1,88,-1
0 256 m 1,92,-1
 64 256 l 1,93,-1
 64 192 l 1,94,-1
 0 192 l 1,95,-1
 0 256 l 1,92,-1
64 256 m 1,96,-1
 128 256 l 1,97,-1
 128 192 l 1,98,-1
 64 192 l 1,99,-1
 64 256 l 1,96,-1
128 256 m 1,100,-1
 192 256 l 1,101,-1
 192 192 l 1,102,-1
 128 192 l 1,103,-1
 128 256 l 1,100,-1
0 192 m 1,104,-1
 64 192 l 1,105,-1
 64 128 l 1,106,-1
 0 128 l 1,107,-1
 0 192 l 1,104,-1
64 192 m 1,108,-1
 128 192 l 1,109,-1
 128 128 l 1,110,-1
 64 128 l 1,111,-1
 64 192 l 1,108,-1
128 192 m 1,112,-1
 192 192 l 1,113,-1
 192 128 l 1,114,-1
 128 128 l 1,115,-1
 128 192 l 1,112,-1
192 192 m 1,116,-1
 256 192 l 1,117,-1
 256 128 l 1,118,-1
 192 128 l 1,119,-1
 192 192 l 1,116,-1
256 192 m 1,120,-1
 320 192 l 1,121,-1
 320 128 l 1,122,-1
 256 128 l 1,123,-1
 256 192 l 1,120,-1
320 192 m 1,124,-1
 384 192 l 1,125,-1
 384 128 l 1,126,-1
 320 128 l 1,127,-1
 320 192 l 1,124,-1
384 192 m 1,128,-1
 448 192 l 1,129,-1
 448 128 l 1,130,-1
 384 128 l 1,131,-1
 384 192 l 1,128,-1
448 192 m 1,132,-1
 512 192 l 1,133,-1
 512 128 l 1,134,-1
 448 128 l 1,135,-1
 448 192 l 1,132,-1
0 128 m 1,136,-1
 64 128 l 1,137,-1
 64 64 l 1,138,-1
 0 64 l 1,139,-1
 0 128 l 1,136,-1
64 128 m 1,140,-1
 128 128 l 1,141,-1
 128 64 l 1,142,-1
 64 64 l 1,143,-1
 64 128 l 1,140,-1
128 128 m 1,144,-1
 192 128 l 1,145,-1
 192 64 l 1,146,-1
 128 64 l 1,147,-1
 128 128 l 1,144,-1
192 128 m 1,148,-1
 256 128 l 1,149,-1
 256 64 l 1,150,-1
 192 64 l 1,151,-1
 192 128 l 1,148,-1
256 128 m 1,152,-1
 320 128 l 1,153,-1
 320 64 l 1,154,-1
 256 64 l 1,155,-1
 256 128 l 1,152,-1
320 128 m 1,156,-1
 384 128 l 1,157,-1
 384 64 l 1,158,-1
 320 64 l 1,159,-1
 320 128 l 1,156,-1
384 128 m 1,160,-1
 448 128 l 1,161,-1
 448 64 l 1,162,-1
 384 64 l 1,163,-1
 384 128 l 1,160,-1
448 128 m 1,164,-1
 512 128 l 1,165,-1
 512 64 l 1,166,-1
 448 64 l 1,167,-1
 448 128 l 1,164,-1
64 64 m 1,168,-1
 128 64 l 1,169,-1
 128 0 l 1,170,-1
 64 0 l 1,171,-1
 64 64 l 1,168,-1
128 64 m 1,172,-1
 192 64 l 1,173,-1
 192 0 l 1,174,-1
 128 0 l 1,175,-1
 128 64 l 1,172,-1
192 64 m 1,176,-1
 256 64 l 1,177,-1
 256 0 l 1,178,-1
 192 0 l 1,179,-1
 192 64 l 1,176,-1
256 64 m 1,180,-1
 320 64 l 1,181,-1
 320 0 l 1,182,-1
 256 0 l 1,183,-1
 256 64 l 1,180,-1
320 64 m 1,184,-1
 384 64 l 1,185,-1
 384 0 l 1,186,-1
 320 0 l 1,187,-1
 320 64 l 1,184,-1
384 64 m 1,188,-1
 448 64 l 1,189,-1
 448 0 l 1,190,-1
 384 0 l 1,191,-1
 384 64 l 1,188,-1
EndSplineSet
EndChar

StartChar: M
Encoding: 77 77 47
Width: 640
GlyphClass: 1
Flags: W
LayerCount: 2
Fore
SplineSet
0 768 m 1,0,-1
 64 768 l 1,1,-1
 64 704 l 1,2,-1
 0 704 l 1,3,-1
 0 768 l 1,0,-1
64 768 m 1,4,-1
 128 768 l 1,5,-1
 128 704 l 1,6,-1
 64 704 l 1,7,-1
 64 768 l 1,4,-1
384 768 m 1,8,-1
 448 768 l 1,9,-1
 448 704 l 1,10,-1
 384 704 l 1,11,-1
 384 768 l 1,8,-1
448 768 m 1,12,-1
 512 768 l 1,13,-1
 512 704 l 1,14,-1
 448 704 l 1,15,-1
 448 768 l 1,12,-1
0 704 m 1,16,-1
 64 704 l 1,17,-1
 64 640 l 1,18,-1
 0 640 l 1,19,-1
 0 704 l 1,16,-1
64 704 m 1,20,-1
 128 704 l 1,21,-1
 128 640 l 1,22,-1
 64 640 l 1,23,-1
 64 704 l 1,20,-1
384 704 m 1,24,-1
 448 704 l 1,25,-1
 448 640 l 1,26,-1
 384 640 l 1,27,-1
 384 704 l 1,24,-1
448 704 m 1,28,-1
 512 704 l 1,29,-1
 512 640 l 1,30,-1
 448 640 l 1,31,-1
 448 704 l 1,28,-1
0 640 m 1,32,-1
 64 640 l 1,33,-1
 64 576 l 1,34,-1
 0 576 l 1,35,-1
 0 640 l 1,32,-1
64 640 m 1,36,-1
 128 640 l 1,37,-1
 128 576 l 1,38,-1
 64 576 l 1,39,-1
 64 640 l 1,36,-1
128 640 m 1,40,-1
 192 640 l 1,41,-1
 192 576 l 1,42,-1
 128 576 l 1,43,-1
 128 640 l 1,40,-1
320 640 m 1,44,-1
 384 640 l 1,45,-1
 384 576 l 1,46,-1
 320 576 l 1,47,-1
 320 640 l 1,44,-1
384 640 m 1,48,-1
 448 640 l 1,49,-1
 448 576 l 1,50,-1
 384 576 l 1,51,-1
 384 640 l 1,48,-1
448 640 m 1,52,-1
 512 640 l 1,53,-1
 512 576 l 1,54,-1
 448 576 l 1,55,-1
 448 640 l 1,52,-1
0 576 m 1,56,-1
 64 576 l 1,57,-1
 64 512 l 1,58,-1
 0 512 l 1,59,-1
 0 576 l 1,56,-1
64 576 m 1,60,-1
 128 576 l 1,61,-1
 128 512 l 1,62,-1
 64 512 l 1,63,-1
 64 576 l 1,60,-1
128 576 m 1,64,-1
 192 576 l 1,65,-1
 192 512 l 1,66,-1
 128 512 l 1,67,-1
 128 576 l 1,64,-1
192 576 m 1,68,-1
 256 576 l 1,69,-1
 256 512 l 1,70,-1
 192 512 l 1,71,-1
 192 576 l 1,68,-1
256 576 m 1,72,-1
 320 576 l 1,73,-1
 320 512 l 1,74,-1
 256 512 l 1,75,-1
 256 576 l 1,72,-1
320 576 m 1,76,-1
 384 576 l 1,77,-1
 384 512 l 1,78,-1
 320 512 l 1,79,-1
 320 576 l 1,76,-1
384 576 m 1,80,-1
 448 576 l 1,81,-1
 448 512 l 1,82,-1
 384 512 l 1,83,-1
 384 576 l 1,80,-1
448 576 m 1,84,-1
 512 576 l 1,85,-1
 512 512 l 1,86,-1
 448 512 l 1,87,-1
 448 576 l 1,84,-1
0 512 m 1,88,-1
 64 512 l 1,89,-1
 64 448 l 1,90,-1
 0 448 l 1,91,-1
 0 512 l 1,88,-1
64 512 m 1,92,-1
 128 512 l 1,93,-1
 128 448 l 1,94,-1
 64 448 l 1,95,-1
 64 512 l 1,92,-1
128 512 m 1,96,-1
 192 512 l 1,97,-1
 192 448 l 1,98,-1
 128 448 l 1,99,-1
 128 512 l 1,96,-1
192 512 m 1,100,-1
 256 512 l 1,101,-1
 256 448 l 1,102,-1
 192 448 l 1,103,-1
 192 512 l 1,100,-1
256 512 m 1,104,-1
 320 512 l 1,105,-1
 320 448 l 1,106,-1
 256 448 l 1,107,-1
 256 512 l 1,104,-1
320 512 m 1,108,-1
 384 512 l 1,109,-1
 384 448 l 1,110,-1
 320 448 l 1,111,-1
 320 512 l 1,108,-1
384 512 m 1,112,-1
 448 512 l 1,113,-1
 448 448 l 1,114,-1
 384 448 l 1,115,-1
 384 512 l 1,112,-1
448 512 m 1,116,-1
 512 512 l 1,117,-1
 512 448 l 1,118,-1
 448 448 l 1,119,-1
 448 512 l 1,116,-1
0 448 m 1,120,-1
 64 448 l 1,121,-1
 64 384 l 1,122,-1
 0 384 l 1,123,-1
 0 448 l 1,120,-1
64 448 m 1,124,-1
 128 448 l 1,125,-1
 128 384 l 1,126,-1
 64 384 l 1,127,-1
 64 448 l 1,124,-1
128 448 m 1,128,-1
 192 448 l 1,129,-1
 192 384 l 1,130,-1
 128 384 l 1,131,-1
 128 448 l 1,128,-1
192 448 m 1,132,-1
 256 448 l 1,133,-1
 256 384 l 1,134,-1
 192 384 l 1,135,-1
 192 448 l 1,132,-1
256 448 m 1,136,-1
 320 448 l 1,137,-1
 320 384 l 1,138,-1
 256 384 l 1,139,-1
 256 448 l 1,136,-1
320 448 m 1,140,-1
 384 448 l 1,141,-1
 384 384 l 1,142,-1
 320 384 l 1,143,-1
 320 448 l 1,140,-1
384 448 m 1,144,-1
 448 448 l 1,145,-1
 448 384 l 1,146,-1
 384 384 l 1,147,-1
 384 448 l 1,144,-1
448 448 m 1,148,-1
 512 448 l 1,149,-1
 512 384 l 1,150,-1
 448 384 l 1,151,-1
 448 448 l 1,148,-1
0 384 m 1,152,-1
 64 384 l 1,153,-1
 64 320 l 1,154,-1
 0 320 l 1,155,-1
 0 384 l 1,152,-1
64 384 m 1,156,-1
 128 384 l 1,157,-1
 128 320 l 1,158,-1
 64 320 l 1,159,-1
 64 384 l 1,156,-1
192 384 m 1,160,-1
 256 384 l 1,161,-1
 256 320 l 1,162,-1
 192 320 l 1,163,-1
 192 384 l 1,160,-1
256 384 m 1,164,-1
 320 384 l 1,165,-1
 320 320 l 1,166,-1
 256 320 l 1,167,-1
 256 384 l 1,164,-1
384 384 m 1,168,-1
 448 384 l 1,169,-1
 448 320 l 1,170,-1
 384 320 l 1,171,-1
 384 384 l 1,168,-1
448 384 m 1,172,-1
 512 384 l 1,173,-1
 512 320 l 1,174,-1
 448 320 l 1,175,-1
 448 384 l 1,172,-1
0 320 m 1,176,-1
 64 320 l 1,177,-1
 64 256 l 1,178,-1
 0 256 l 1,179,-1
 0 320 l 1,176,-1
64 320 m 1,180,-1
 128 320 l 1,181,-1
 128 256 l 1,182,-1
 64 256 l 1,183,-1
 64 320 l 1,180,-1
192 320 m 1,184,-1
 256 320 l 1,185,-1
 256 256 l 1,186,-1
 192 256 l 1,187,-1
 192 320 l 1,184,-1
256 320 m 1,188,-1
 320 320 l 1,189,-1
 320 256 l 1,190,-1
 256 256 l 1,191,-1
 256 320 l 1,188,-1
384 320 m 1,192,-1
 448 320 l 1,193,-1
 448 256 l 1,194,-1
 384 256 l 1,195,-1
 384 320 l 1,192,-1
448 320 m 1,196,-1
 512 320 l 1,197,-1
 512 256 l 1,198,-1
 448 256 l 1,199,-1
 448 320 l 1,196,-1
0 256 m 1,200,-1
 64 256 l 1,201,-1
 64 192 l 1,202,-1
 0 192 l 1,203,-1
 0 256 l 1,200,-1
64 256 m 1,204,-1
 128 256 l 1,205,-1
 128 192 l 1,206,-1
 64 192 l 1,207,-1
 64 256 l 1,204,-1
384 256 m 1,208,-1
 448 256 l 1,209,-1
 448 192 l 1,210,-1
 384 192 l 1,211,-1
 384 256 l 1,208,-1
448 256 m 1,212,-1
 512 256 l 1,213,-1
 512 192 l 1,214,-1
 448 192 l 1,215,-1
 448 256 l 1,212,-1
0 192 m 1,216,-1
 64 192 l 1,217,-1
 64 128 l 1,218,-1
 0 128 l 1,219,-1
 0 192 l 1,216,-1
64 192 m 1,220,-1
 128 192 l 1,221,-1
 128 128 l 1,222,-1
 64 128 l 1,223,-1
 64 192 l 1,220,-1
384 192 m 1,224,-1
 448 192 l 1,225,-1
 448 128 l 1,226,-1
 384 128 l 1,227,-1
 384 192 l 1,224,-1
448 192 m 1,228,-1
 512 192 l 1,229,-1
 512 128 l 1,230,-1
 448 128 l 1,231,-1
 448 192 l 1,228,-1
0 128 m 1,232,-1
 64 128 l 1,233,-1
 64 64 l 1,234,-1
 0 64 l 1,235,-1
 0 128 l 1,232,-1
64 128 m 1,236,-1
 128 128 l 1,237,-1
 128 64 l 1,238,-1
 64 64 l 1,239,-1
 64 128 l 1,236,-1
384 128 m 1,240,-1
 448 128 l 1,241,-1
 448 64 l 1,242,-1
 384 64 l 1,243,-1
 384 128 l 1,240,-1
448 128 m 1,244,-1
 512 128 l 1,245,-1
 512 64 l 1,246,-1
 448 64 l 1,247,-1
 448 128 l 1,244,-1
0 64 m 1,248,-1
 64 64 l 1,249,-1
 64 0 l 1,250,-1
 0 0 l 1,251,-1
 0 64 l 1,248,-1
64 64 m 1,252,-1
 128 64 l 1,253,-1
 128 0 l 1,254,-1
 64 0 l 1,255,-1
 64 64 l 1,252,-1
384 64 m 1,256,-1
 448 64 l 1,257,-1
 448 0 l 1,258,-1
 384 0 l 1,259,-1
 384 64 l 1,256,-1
448 64 m 1,260,-1
 512 64 l 1,261,-1
 512 0 l 1,262,-1
 448 0 l 1,263,-1
 448 64 l 1,260,-1
EndSplineSet
EndChar

StartChar: N
Encoding: 78 78 48
Width: 640
GlyphClass: 1
Flags: W
LayerCount: 2
Fore
SplineSet
0 768 m 1,0,-1
 64 768 l 1,1,-1
 64 704 l 1,2,-1
 0 704 l 1,3,-1
 0 768 l 1,0,-1
64 768 m 1,4,-1
 128 768 l 1,5,-1
 128 704 l 1,6,-1
 64 704 l 1,7,-1
 64 768 l 1,4,-1
384 768 m 1,8,-1
 448 768 l 1,9,-1
 448 704 l 1,10,-1
 384 704 l 1,11,-1
 384 768 l 1,8,-1
448 768 m 1,12,-1
 512 768 l 1,13,-1
 512 704 l 1,14,-1
 448 704 l 1,15,-1
 448 768 l 1,12,-1
0 704 m 1,16,-1
 64 704 l 1,17,-1
 64 640 l 1,18,-1
 0 640 l 1,19,-1
 0 704 l 1,16,-1
64 704 m 1,20,-1
 128 704 l 1,21,-1
 128 640 l 1,22,-1
 64 640 l 1,23,-1
 64 704 l 1,20,-1
384 704 m 1,24,-1
 448 704 l 1,25,-1
 448 640 l 1,26,-1
 384 640 l 1,27,-1
 384 704 l 1,24,-1
448 704 m 1,28,-1
 512 704 l 1,29,-1
 512 640 l 1,30,-1
 448 640 l 1,31,-1
 448 704 l 1,28,-1
0 640 m 1,32,-1
 64 640 l 1,33,-1
 64 576 l 1,34,-1
 0 576 l 1,35,-1
 0 640 l 1,32,-1
64 640 m 1,36,-1
 128 640 l 1,37,-1
 128 576 l 1,38,-1
 64 576 l 1,39,-1
 64 640 l 1,36,-1
128 640 m 1,40,-1
 192 640 l 1,41,-1
 192 576 l 1,42,-1
 128 576 l 1,43,-1
 128 640 l 1,40,-1
384 640 m 1,44,-1
 448 640 l 1,45,-1
 448 576 l 1,46,-1
 384 576 l 1,47,-1
 384 640 l 1,44,-1
448 640 m 1,48,-1
 512 640 l 1,49,-1
 512 576 l 1,50,-1
 448 576 l 1,51,-1
 448 640 l 1,48,-1
0 576 m 1,52,-1
 64 576 l 1,53,-1
 64 512 l 1,54,-1
 0 512 l 1,55,-1
 0 576 l 1,52,-1
64 576 m 1,56,-1
 128 576 l 1,57,-1
 128 512 l 1,58,-1
 64 512 l 1,59,-1
 64 576 l 1,56,-1
128 576 m 1,60,-1
 192 576 l 1,61,-1
 192 512 l 1,62,-1
 128 512 l 1,63,-1
 128 576 l 1,60,-1
384 576 m 1,64,-1
 448 576 l 1,65,-1
 448 512 l 1,66,-1
 384 512 l 1,67,-1
 384 576 l 1,64,-1
448 576 m 1,68,-1
 512 576 l 1,69,-1
 512 512 l 1,70,-1
 448 512 l 1,71,-1
 448 576 l 1,68,-1
0 512 m 1,72,-1
 64 512 l 1,73,-1
 64 448 l 1,74,-1
 0 448 l 1,75,-1
 0 512 l 1,72,-1
64 512 m 1,76,-1
 128 512 l 1,77,-1
 128 448 l 1,78,-1
 64 448 l 1,79,-1
 64 512 l 1,76,-1
128 512 m 1,80,-1
 192 512 l 1,81,-1
 192 448 l 1,82,-1
 128 448 l 1,83,-1
 128 512 l 1,80,-1
192 512 m 1,84,-1
 256 512 l 1,85,-1
 256 448 l 1,86,-1
 192 448 l 1,87,-1
 192 512 l 1,84,-1
256 512 m 1,88,-1
 320 512 l 1,89,-1
 320 448 l 1,90,-1
 256 448 l 1,91,-1
 256 512 l 1,88,-1
384 512 m 1,92,-1
 448 512 l 1,93,-1
 448 448 l 1,94,-1
 384 448 l 1,95,-1
 384 512 l 1,92,-1
448 512 m 1,96,-1
 512 512 l 1,97,-1
 512 448 l 1,98,-1
 448 448 l 1,99,-1
 448 512 l 1,96,-1
0 448 m 1,100,-1
 64 448 l 1,101,-1
 64 384 l 1,102,-1
 0 384 l 1,103,-1
 0 448 l 1,100,-1
64 448 m 1,104,-1
 128 448 l 1,105,-1
 128 384 l 1,106,-1
 64 384 l 1,107,-1
 64 448 l 1,104,-1
128 448 m 1,108,-1
 192 448 l 1,109,-1
 192 384 l 1,110,-1
 128 384 l 1,111,-1
 128 448 l 1,108,-1
192 448 m 1,112,-1
 256 448 l 1,113,-1
 256 384 l 1,114,-1
 192 384 l 1,115,-1
 192 448 l 1,112,-1
256 448 m 1,116,-1
 320 448 l 1,117,-1
 320 384 l 1,118,-1
 256 384 l 1,119,-1
 256 448 l 1,116,-1
384 448 m 1,120,-1
 448 448 l 1,121,-1
 448 384 l 1,122,-1
 384 384 l 1,123,-1
 384 448 l 1,120,-1
448 448 m 1,124,-1
 512 448 l 1,125,-1
 512 384 l 1,126,-1
 448 384 l 1,127,-1
 448 448 l 1,124,-1
0 384 m 1,128,-1
 64 384 l 1,129,-1
 64 320 l 1,130,-1
 0 320 l 1,131,-1
 0 384 l 1,128,-1
64 384 m 1,132,-1
 128 384 l 1,133,-1
 128 320 l 1,134,-1
 64 320 l 1,135,-1
 64 384 l 1,132,-1
128 384 m 1,136,-1
 192 384 l 1,137,-1
 192 320 l 1,138,-1
 128 320 l 1,139,-1
 128 384 l 1,136,-1
192 384 m 1,140,-1
 256 384 l 1,141,-1
 256 320 l 1,142,-1
 192 320 l 1,143,-1
 192 384 l 1,140,-1
256 384 m 1,144,-1
 320 384 l 1,145,-1
 320 320 l 1,146,-1
 256 320 l 1,147,-1
 256 384 l 1,144,-1
320 384 m 1,148,-1
 384 384 l 1,149,-1
 384 320 l 1,150,-1
 320 320 l 1,151,-1
 320 384 l 1,148,-1
384 384 m 1,152,-1
 448 384 l 1,153,-1
 448 320 l 1,154,-1
 384 320 l 1,155,-1
 384 384 l 1,152,-1
448 384 m 1,156,-1
 512 384 l 1,157,-1
 512 320 l 1,158,-1
 448 320 l 1,159,-1
 448 384 l 1,156,-1
0 320 m 1,160,-1
 64 320 l 1,161,-1
 64 256 l 1,162,-1
 0 256 l 1,163,-1
 0 320 l 1,160,-1
64 320 m 1,164,-1
 128 320 l 1,165,-1
 128 256 l 1,166,-1
 64 256 l 1,167,-1
 64 320 l 1,164,-1
128 320 m 1,168,-1
 192 320 l 1,169,-1
 192 256 l 1,170,-1
 128 256 l 1,171,-1
 128 320 l 1,168,-1
192 320 m 1,172,-1
 256 320 l 1,173,-1
 256 256 l 1,174,-1
 192 256 l 1,175,-1
 192 320 l 1,172,-1
256 320 m 1,176,-1
 320 320 l 1,177,-1
 320 256 l 1,178,-1
 256 256 l 1,179,-1
 256 320 l 1,176,-1
320 320 m 1,180,-1
 384 320 l 1,181,-1
 384 256 l 1,182,-1
 320 256 l 1,183,-1
 320 320 l 1,180,-1
384 320 m 1,184,-1
 448 320 l 1,185,-1
 448 256 l 1,186,-1
 384 256 l 1,187,-1
 384 320 l 1,184,-1
448 320 m 1,188,-1
 512 320 l 1,189,-1
 512 256 l 1,190,-1
 448 256 l 1,191,-1
 448 320 l 1,188,-1
0 256 m 1,192,-1
 64 256 l 1,193,-1
 64 192 l 1,194,-1
 0 192 l 1,195,-1
 0 256 l 1,192,-1
64 256 m 1,196,-1
 128 256 l 1,197,-1
 128 192 l 1,198,-1
 64 192 l 1,199,-1
 64 256 l 1,196,-1
192 256 m 1,200,-1
 256 256 l 1,201,-1
 256 192 l 1,202,-1
 192 192 l 1,203,-1
 192 256 l 1,200,-1
256 256 m 1,204,-1
 320 256 l 1,205,-1
 320 192 l 1,206,-1
 256 192 l 1,207,-1
 256 256 l 1,204,-1
320 256 m 1,208,-1
 384 256 l 1,209,-1
 384 192 l 1,210,-1
 320 192 l 1,211,-1
 320 256 l 1,208,-1
384 256 m 1,212,-1
 448 256 l 1,213,-1
 448 192 l 1,214,-1
 384 192 l 1,215,-1
 384 256 l 1,212,-1
448 256 m 1,216,-1
 512 256 l 1,217,-1
 512 192 l 1,218,-1
 448 192 l 1,219,-1
 448 256 l 1,216,-1
0 192 m 1,220,-1
 64 192 l 1,221,-1
 64 128 l 1,222,-1
 0 128 l 1,223,-1
 0 192 l 1,220,-1
64 192 m 1,224,-1
 128 192 l 1,225,-1
 128 128 l 1,226,-1
 64 128 l 1,227,-1
 64 192 l 1,224,-1
192 192 m 1,228,-1
 256 192 l 1,229,-1
 256 128 l 1,230,-1
 192 128 l 1,231,-1
 192 192 l 1,228,-1
256 192 m 1,232,-1
 320 192 l 1,233,-1
 320 128 l 1,234,-1
 256 128 l 1,235,-1
 256 192 l 1,232,-1
320 192 m 1,236,-1
 384 192 l 1,237,-1
 384 128 l 1,238,-1
 320 128 l 1,239,-1
 320 192 l 1,236,-1
384 192 m 1,240,-1
 448 192 l 1,241,-1
 448 128 l 1,242,-1
 384 128 l 1,243,-1
 384 192 l 1,240,-1
448 192 m 1,244,-1
 512 192 l 1,245,-1
 512 128 l 1,246,-1
 448 128 l 1,247,-1
 448 192 l 1,244,-1
0 128 m 1,248,-1
 64 128 l 1,249,-1
 64 64 l 1,250,-1
 0 64 l 1,251,-1
 0 128 l 1,248,-1
64 128 m 1,252,-1
 128 128 l 1,253,-1
 128 64 l 1,254,-1
 64 64 l 1,255,-1
 64 128 l 1,252,-1
320 128 m 1,256,-1
 384 128 l 1,257,-1
 384 64 l 1,258,-1
 320 64 l 1,259,-1
 320 128 l 1,256,-1
384 128 m 1,260,-1
 448 128 l 1,261,-1
 448 64 l 1,262,-1
 384 64 l 1,263,-1
 384 128 l 1,260,-1
448 128 m 1,264,-1
 512 128 l 1,265,-1
 512 64 l 1,266,-1
 448 64 l 1,267,-1
 448 128 l 1,264,-1
0 64 m 1,268,-1
 64 64 l 1,269,-1
 64 0 l 1,270,-1
 0 0 l 1,271,-1
 0 64 l 1,268,-1
64 64 m 1,272,-1
 128 64 l 1,273,-1
 128 0 l 1,274,-1
 64 0 l 1,275,-1
 64 64 l 1,272,-1
320 64 m 1,276,-1
 384 64 l 1,277,-1
 384 0 l 1,278,-1
 320 0 l 1,279,-1
 320 64 l 1,276,-1
384 64 m 1,280,-1
 448 64 l 1,281,-1
 448 0 l 1,282,-1
 384 0 l 1,283,-1
 384 64 l 1,280,-1
448 64 m 1,284,-1
 512 64 l 1,285,-1
 512 0 l 1,286,-1
 448 0 l 1,287,-1
 448 64 l 1,284,-1
EndSplineSet
EndChar

